<svg xmlns="http://www.w3.org/2000/svg" viewBox="0 0 64 64" width="64" height="64" style="white-space:preserve-spaces"><path fill="#fff" stroke="#008075" stroke-miterlimit="10" d="M27 52.5h-9.2c.6-.7.9-1.7.9-2.6 0 0 0 0 0 0 0-2.4-2-4.3-4.4-4.3H14c-2.4.2-4.2 2.4-4 4.8.1.8.4 1.5.8 2.1H.5v-26h10.4c-.6.7-.9 1.7-.9 2.6v.1c0 2.4 2 4.3 4.4 4.3h.3c2.4-.2 4.2-2.3 4-4.8-.1-.8-.4-1.5-.9-2.1H27V36c.7-.6 1.6-.9 2.5-.9 2.1 0 4 1.4 4.4 3.5.5 2.4-1.1 4.6-3.4 5.1-1.2.3-2.5 0-3.4-.8l-.1 9.6z" transform="translate(4.75 5.5)"></path><path fill="none" stroke="#008075" stroke-dasharray="142 142" stroke-dashoffset="0" stroke-linecap="square" stroke-linejoin="miter" stroke-miterlimit="10" d="M54 .5H43.9c1.4 1.9 1 4.7-.9 6.1-.7.5-1.6.8-2.5.8-2.4 0-4.2-2-4.2-4.3 0 0 0 0 0 0 0-.9.3-1.8.9-2.6H27V10c-1-.8-2.3-1-3.5-.7-1.5.4-2.7 1.5-3.1 3.1-.6 2.3.7 4.7 3 5.3.3.1.7.2 1.1.2.9 0 1.8-.3 2.5-.8v9.5l27 .1z" class="animation_animatepuzzle__Xb6tp" transform="translate(4.75 2.5)"></path><path fill="#fff" stroke="#008075" stroke-miterlimit="10" d="M54 36c-1-.8-2.2-1.1-3.4-.8-2.3.6-3.8 2.9-3.2 5.3.5 1.9 2.1 3.2 4.1 3.3.9 0 1.8-.3 2.5-.8v9.5H27V43c1 .8 2.2 1.1 3.4.8 2.4-.5 3.9-2.7 3.4-5.1-.4-2.1-2.2-3.6-4.4-3.5-.9 0-1.8.3-2.5.9v-9.5h10.2c-1.4-1.9-1-4.7.9-6.1.7-.5 1.6-.8 2.5-.8 2.4.1 4.3 2.1 4.2 4.5 0 .9-.3 1.8-.8 2.5H54z" transform="translate(4.75 5.5)"></path><path fill="none" stroke="#02BFD3" stroke-dasharray="41 41" stroke-miterlimit="10" d="M24 .5H.5V18" transform="translate(4.75 5.5)"></path><path fill="none" stroke="#02BFD3" stroke-dasharray="1 1" stroke-miterlimit="10" d="M.5 21v1" transform="translate(4.75 5.5)"></path></svg>