<svg xmlns="http://www.w3.org/2000/svg" viewBox="0 0 64 64" width="64" height="64">
  <path class="st0" d="M38.5,24.5L38.5,29.5" stroke-linecap="square" stroke="#008075" fill="none"/>
  <path class="st1" d="M15,35.5L4.5,35.5L4.5,4.5L38.5,4.5L38.5,19M21.5,13L21.5,16" stroke="#008075" fill="none"/>
  <path class="st1" d="M19.5,15C18.1,15.7,17.3,17.2,17.3,18.7C17.3,21.1,19.2,23,21.6,23C24,23,25.9,21.1,25.9,18.7C25.9,17.1,25,15.7,23.7,15M22,59.5L21,59.5M48.5,39L48.5,59.5L24,59.5M14.5,53L14.5,29.5L48.5,29.5L48.5,34" stroke="#008075" fill="none"/>
  <ellipse class="st2 integrate_animate1__5QV8P" rx="2" ry="2" stroke-linecap="round" stroke="#02BFD3" fill="none" opacity="0" transform="translate(40.5 44.5)"/>
  <ellipse class="st2 integrate_animate2__5t83k" rx="2" ry="2" stroke-linecap="round" stroke="#02BFD3" fill="none" opacity="0" transform="translate(31.5 44.5)"/>
  <ellipse class="st2 integrate_animate3__Sg2zZ" rx="2" ry="2" stroke-linecap="round" stroke="#02BFD3" fill="none" opacity="0" transform="translate(22.5 44.5)"/>
  <path class="st1" d="M38.5,24.5C37.4,24.5,36.5,23.6,36.5,22.5L36.5,20.5C36.5,19.4,37.4,18.5,38.5,18.5C39.6,18.5,40.5,19.4,40.5,20.5L40.5,22.5C40.5,23.6,39.6,24.5,38.5,24.5ZM48.5,39.5C47.4,39.5,46.5,38.6,46.5,37.5L46.5,35.5C46.5,34.4,47.4,33.5,48.5,33.5C49.6,33.5,50.5,34.4,50.5,35.5L50.5,37.5C50.5,38.6,49.6,39.5,48.5,39.5Z" stroke="#008075" fill="none"/>
  <path class="st1" d="M40.7,21.5L52,21.5C56.1,21.5,59.7,24.7,59.8,28.8C59.9,32.9,56.6,36.4,52.5,36.5C52.4,36.5,52.4,36.5,52.3,36.5L51,36.5" stroke="#008075" fill="none" stroke-dasharray="36.229999999999997 36.229999999999997"/>
</svg>
