<svg xmlns="http://www.w3.org/2000/svg" viewBox="0 0 64 64" width="64" height="64" style="white-space:preserve-spaces"><path fill="none" stroke="#008075" stroke-width="1.053" d="M31.6 56.4v-29M31.6 59.4v-1"></path><g class="animation_animatemill__R_6Zb"><path fill="#fff" stroke-width="1.053" d="M0 .9c.5.5 15.7-13.1 16.1-13 .4.1 2.4 1.1 2.4 1.1s3.2-1.7 3.1-1.1c-.1.6 5.9 6.8 5.4 6.7-.5-.1-8 6.7-8.5 6.3C18 .5-.5.4 0 .9z" transform="translate(13.5 39)"></path><path fill="none" stroke="#008075" stroke-width="1.053" d="M31.6 21.4v-13M29.1 23.9h-13M48.1 23.9h-13M34.2 21.9l16.3-14H32l-8.3 6.6m16.8 18.6L32 39.9H13.5l16.1-13"></path><path fill="none" stroke="#008075" stroke-width="1.053" d="M34.6 26.9l14 15.5V23.9l-6.7-8.4M22.3 32.4l-6.7-8.5V5.4l14 16.3M31.6 39.8V27.4"></path></g><path fill="#fff" stroke="#02BFD3" d="M35.6 24.4c0 1.9-1.6 3.5-3.5 3.5s-3.5-1.6-3.5-3.5 1.6-3.5 3.5-3.5 3.5 1.6 3.5 3.5z"></path></svg>