<svg xmlns="http://www.w3.org/2000/svg" width="64" height="64" viewBox="0 0 64 64">
  <path d="M12,41L7,41C6.46957,41,5.96086,40.7893,5.58579,40.4142C5.21071,40.0391,5,39.5304,5,39C5,38.4696,5.21071,37.9609,5.58579,37.5858C5.96086,37.2107,6.46957,37,7,37L12,37L12,38L7,38C6.73478,38,6.48043,38.1054,6.29289,38.2929C6.10536,38.4804,6,38.7348,6,39C6,39.2652,6.10536,39.5196,6.29289,39.7071C6.48043,39.8946,6.73478,40,7,40L12,40Z" fill="#008075"/>
  <path d="M50.5,47L45,47L45,30L50.5,30C52.72,30,54,31.64,54,34.5L54,42.5C54,45.36,52.72,47,50.5,47ZM46,46L50.5,46C52.16,46,53,44.82,53,42.5L53,34.5C53,32.18,52.16,31,50.5,31L46,31Z" fill="#008075"/>
  <path d="M58.39,41L54,41L54,40L58.39,40C58.6552,40,58.9096,39.8946,59.0971,39.7071C59.2846,39.5196,59.39,39.2652,59.39,39C59.39,38.7348,59.2846,38.4804,59.0971,38.2929C58.9096,38.1054,58.6552,38,58.39,38L54,38L54,37L58.39,37C58.9204,37,59.4291,37.2107,59.8042,37.5858C60.1793,37.9609,60.39,38.4696,60.39,39C60.39,39.5304,60.1793,40.0391,59.8042,40.4142C59.4291,40.7893,58.9204,41,58.39,41Z" fill="#008075"/>
  <path d="M57,37L56,37L56,26.5C56.0048,24.96,55.8571,23.4232,55.5592,21.9123C55.2612,20.4013,54.8144,18.9235,54.2254,17.5006C53.6364,16.0776,52.9079,14.7165,52.0508,13.437C51.1936,12.1576,50.2119,10.9661,49.12,9.88C45.821,6.57235,41.6106,4.32352,37.027,3.4209C32.4434,2.51828,27.6947,3.00288,23.3879,4.81277C19.0811,6.62265,15.4118,9.67561,12.8489,13.5815C10.286,17.4873,8.94596,22.0687,9,26.74L9,37L8,37L8,26.74C7.96817,20.2422,10.5189,13.9979,15.091,9.38074C19.6632,4.76359,25.8822,2.15183,32.38,2.12C38.8778,2.08817,45.1221,4.63889,49.7393,9.21103C54.3564,13.7832,56.9682,20.0022,57,26.5Z" fill="#008075"/>
  <path d="M47.86,52L39,52L39,51L47.86,51C48.0097,51,48.1579,50.9705,48.2963,50.9132C48.4346,50.8559,48.5602,50.772,48.6661,50.6661C48.772,50.5602,48.8559,50.4346,48.9132,50.2963C48.9705,50.1579,49,50.0097,49,49.86L49,47L50,47L50,49.86C50,50.141,49.9446,50.4193,49.8371,50.6789C49.7296,50.9386,49.5719,51.1745,49.3732,51.3732C49.1745,51.5719,48.9386,51.7296,48.6789,51.8371C48.4193,51.9446,48.141,52,47.86,52Z" fill="#008075"/>
  <path d="M20,47L14.5,47C12.28,47,11,45.36,11,42.5L11,34.5C11,31.64,12.28,30,14.5,30L20,30ZM14.5,31C12.84,31,12,32.18,12,34.5L12,42.5C12,44.82,12.84,46,14.5,46L19,46L19,31Z" fill="#008075"/>
  <path d="M53,28L52,28L52,26.22C51.9886,24.4292,51.7276,22.6488,51.2245,20.9301C50.7215,19.2114,49.9813,17.5712,49.0254,16.0569C48.0695,14.5425,46.9072,13.1688,45.572,11.9754C44.2368,10.782,42.7417,9.78059,41.13,9L41.56,8.1C43.2564,8.92092,44.83,9.97441,46.2354,11.23C47.6408,12.4856,48.8642,13.9311,49.8702,15.5247C50.8763,17.1182,51.6553,18.8443,52.1846,20.653C52.7138,22.4618,52.9883,24.3355,53,26.22Z" fill="#008075"/>
  <path d="M13,28L12,28L12,26.22C12,17.8,18.17,11,24.28,8.05L24.72,8.95C18.89,11.79,13,18.23,13,26.22Z" fill="#008075"/>
  <path d="M39.14,12.43L38.75,12.25C37.7936,11.8427,36.7985,11.5328,35.78,11.325C34.7614,11.1171,33.7245,11.0124,32.685,11.0124C31.6455,11.0124,30.6086,11.1171,29.59,11.325C28.5715,11.5328,27.5764,11.8427,26.62,12.25L26.24,12.42L21.64,5.42L22.48,4.87L26.62,11.14C27.5854,10.7604,28.5842,10.4721,29.6034,10.2789C30.6226,10.0857,31.6577,9.98844,32.695,9.98844C33.7323,9.98844,34.7674,10.0857,35.7866,10.2789C36.8058,10.4721,37.8046,10.7604,38.77,11.14L42.91,4.9L43.75,5.45Z" fill="#008075"/>
  <path d="M37.5,54L35.5,54C34.837,54,34.2011,53.7366,33.7322,53.2678C33.2634,52.7989,33,52.163,33,51.5C33,50.837,33.2634,50.2011,33.7322,49.7322C34.2011,49.2634,34.837,49,35.5,49L37.5,49C38.163,49,38.7989,49.2634,39.2678,49.7322C39.7366,50.2011,40,50.837,40,51.5C40,52.163,39.7366,52.7989,39.2678,53.2678C38.7989,53.7366,38.163,54,37.5,54ZM35.5,50C35.1022,50,34.7206,50.158,34.4393,50.4393C34.158,50.7206,34,51.1022,34,51.5C34,51.8978,34.158,52.2794,34.4393,52.5607C34.7206,52.842,35.1022,53,35.5,53L37.5,53C37.8978,53,38.2794,52.842,38.5607,52.5607C38.842,52.2794,39,51.8978,39,51.5C39,51.1022,38.842,50.7206,38.5607,50.4393C38.2794,50.158,37.8978,50,37.5,50Z" fill="#008075"/>
  <path class="cls-2 animation_animate1__RsJl6" d="M34.5,46.5C33.1739,46.5,31.9021,47.0268,30.9645,47.9645C30.0268,48.9021,29.5,50.1739,29.5,51.5C29.5,52.8261,30.0268,54.0979,30.9645,55.0355C31.9021,55.9732,33.1739,56.5,34.5,56.5" stroke="#02bfd3" fill="none"/>
  <path class="cls-2 animation_animate2__V_XHZ" d="M34.5,43.5C32.3783,43.5,30.3434,44.3429,28.8431,45.8431C27.3429,47.3434,26.5,49.3783,26.5,51.5C26.5,53.6217,27.3429,55.6566,28.8431,57.1569C30.3434,58.6571,32.3783,59.5,34.5,59.5" stroke="#02bfd3" fill="none" opacity="0"/>
  <path class="cls-2 animation_animate3__Mqe9K" d="M34.5,40.5C31.5826,40.5,28.7847,41.6589,26.7218,43.7218C24.6589,45.7847,23.5,48.5826,23.5,51.5C23.5,54.4174,24.6589,57.2153,26.7218,59.2782C28.7847,61.3411,31.5826,62.5,34.5,62.5" stroke="#02bfd3" fill="none" opacity="0"/>
</svg>
