<svg xmlns="http://www.w3.org/2000/svg" width="64" height="64" fill="none" viewBox="0 0 64 64"><path stroke="#008075" stroke-miterlimit="10" d="M32 33.32a1.65 1.65 0 100-3.3 1.65 1.65 0 000 3.3z"></path><path stroke="#02BFD3" stroke-miterlimit="10" d="M32 49.32c9.748 0 17.65-7.902 17.65-17.65 0-9.748-7.902-17.65-17.65-17.65-9.748 0-17.65 7.902-17.65 17.65 0 9.748 7.902 17.65 17.65 17.65z"></path><path stroke="#008075" stroke-miterlimit="10" d="M32 52.9c11.725 0 21.23-9.505 21.23-21.23S43.725 10.44 32 10.44s-21.23 9.505-21.23 21.23S20.275 52.9 32 52.9zM32.15 30V17M33.56 32.56l7.59 3.94M32.1 10.44h26.63M54.84 6.56l3.89 3.88-3.89 3.89M10.77 32.22V5.59M6.88 9.48l3.89-3.89 3.89 3.89M53.23 31.59v26.63M57.12 54.33l-3.89 3.89-3.89-3.89M31.73 52.9H5.1M8.99 56.79L5.1 52.91l3.89-3.89M26.15 21.11l-1-1.73M21.76 25.5l-1.73-1M20.15 31.5h-2M21.76 37.5l-1.73 1M26.15 41.89l-1 1.73M32.15 43.5v2M38.15 41.89l1 1.73M42.54 37.5l1.74 1M44.15 31.5h2M42.54 25.5l1.74-1M38.15 21.11l1-1.73"></path></svg>