<svg xmlns="http://www.w3.org/2000/svg" width="64" height="64" viewBox="0 0 64 64"><g fill="none" fill-rule="evenodd"><path stroke="#008075" d="M38 16.253h12M38 20.253h9M47.96 27.606a11.087 11.087 0 0 1-6.032.887c-4.741-.614-8.638-4.352-9.416-9.069A11.058 11.058 0 0 1 45.281 6.655c4.802.792 8.571 4.814 9.097 9.652a11.027 11.027 0 0 1-2.878 8.745v3.536l-3.54-.982z"></path><path stroke="#02BFD3" d="M25.028 48.253l-4.528 3.49v-3.49h-15v-18h28v18z"></path><path stroke="#00756A" d="M9 35.253h21M9 39.253h21M9 43.253h9"></path><path stroke="#008075" d="M22 43.253h-1M27.57 24.68l2.083-2.081M27.57 9.672l2.083 2.082M48.548 34.786a4.703 4.703 0 0 0-.731.033c-1.008.128-1.973.5-2.781 1.138-4.7 3.72-2.155 14.176 3.35 14.298 5.536-.122 8.08-10.579 3.38-14.298-.786-.622-1.721-.99-2.701-1.127a5.249 5.249 0 0 0-.517-.044zM54 51.204a9.793 9.793 0 0 1 4.204 8.05H38.597c0-3.37 1.7-6.342 4.288-8.107M28 17.253h-3"></path></g></svg>