<svg xmlns="http://www.w3.org/2000/svg" width="64" height="64" viewBox="0 0 64 64"><g fill="none" fill-rule="evenodd"><path stroke="#008075" d="M24.834 43.486L5.663 54.756M58.663 54.755L39.362 43.41M32.663 31.255v-23M16.663 30.311l16-8.556 15 8.556v17.825l-15 8.62-16-8.62zM52.553 56.104l6.458-.739-.739-6.458M12.011 56.104l-6.458-.739.74-6.458M37.249 12.293l-4.586-4.586-4.586 4.586"></path><path stroke="#02BFD3" d="M41.07 39.224a8.408 8.408 0 0 1-8.407 8.407 8.407 8.407 0 1 1 0-16.815 8.408 8.408 0 0 1 8.408 8.408z"></path><path stroke="#008075" d="M32.663 39.755l-15.787-9.322M47.45 30.434L32.679 39.74M32.663 50.255v-11M32.663 53.255v-1"></path></g></svg>