<svg width="395" height="395" xmlns="http://www.w3.org/2000/svg" xmlns:xlink="http://www.w3.org/1999/xlink"><defs><filter x="-24.6%" y="-29%" width="149.2%" height="176.9%" filterUnits="objectBoundingBox" id="a"><feMorphology radius="1.5" operator="dilate" in="SourceAlpha" result="shadowSpreadOuter1"/><feOffset dy="18" in="shadowSpreadOuter1" result="shadowOffsetOuter1"/><feGaussianBlur stdDeviation="20" in="shadowOffsetOuter1" result="shadowBlurOuter1"/><feColorMatrix values="0 0 0 0 0 0 0 0 0 0 0 0 0 0 0 0 0 0 0.1 0" in="shadowBlurOuter1"/></filter><filter x="-15.5%" y="-18.3%" width="131%" height="146.5%" filterUnits="objectBoundingBox" id="c"><feMorphology radius="1.5" operator="dilate" in="SourceAlpha" result="shadowSpreadOuter1"/><feOffset dy="10" in="shadowSpreadOuter1" result="shadowOffsetOuter1"/><feGaussianBlur stdDeviation="12.5" in="shadowOffsetOuter1" result="shadowBlurOuter1"/><feColorMatrix values="0 0 0 0 0 0 0 0 0 0 0 0 0 0 0 0 0 0 0.12 0" in="shadowBlurOuter1"/></filter><path d="M8.844 0H291.68a8 8 0 018 8v175.068a8 8 0 01-8 8H8.844a8 8 0 01-8-8V8a8 8 0 018-8z" id="b"/><path d="M8 0h287a8 8 0 018 8v186a8 8 0 01-8 8H8a8 8 0 01-8-8V8a8 8 0 018-8z" id="d"/></defs><g fill="none" fill-rule="evenodd"><g transform="translate(28 21)"><use fill="#000" filter="url(#a)" xlink:href="#b"/><use fill="#FFF" xlink:href="#b"/></g><path d="M66.99 159.64v-1.23h.725v-.84h-.726V154.2h-1.313l-2.235 3.442v.766h2.594v1.232h.954zm-.955-2.07h-1.656l1.656-2.513v2.512zm2.903-.784c.31 0 .571-.26.571-.57 0-.31-.26-.571-.57-.571-.31 0-.572.26-.572.57 0 .31.261.571.571.571zm0 2.944c.31 0 .571-.26.571-.57 0-.31-.26-.571-.57-.571-.31 0-.572.26-.572.57 0 .31.261.571.571.571zm3.515.009c1.525 0 2.178-1.444 2.178-2.814s-.653-2.805-2.178-2.805-2.177 1.435-2.177 2.805.652 2.814 2.177 2.814zm0-.849c-.889 0-1.207-.93-1.207-1.965 0-1.036.318-1.957 1.207-1.957.89 0 1.207.921 1.207 1.957s-.318 1.965-1.207 1.965zm5.024.849c1.525 0 2.177-1.444 2.177-2.814s-.652-2.805-2.177-2.805-2.178 1.435-2.178 2.805.653 2.814 2.178 2.814zm0-.849c-.89 0-1.207-.93-1.207-1.965 0-1.036.318-1.957 1.207-1.957s1.207.921 1.207 1.957-.318 1.965-1.207 1.965zm4.045.75v-2.03h1.435c1.134 0 1.778-.783 1.778-1.704 0-.922-.636-1.705-1.778-1.705h-2.39v5.44h.955zm1.305-2.87h-1.305v-1.729h1.305c.538 0 .93.343.93.865s-.392.864-.93.864zm3.653 2.87v-4.118l1.664 4.119h.408l1.672-4.119v4.119h.954v-5.44h-1.346l-1.484 3.662-1.476-3.662h-1.346v5.44h.954z" fill="#333E49" fill-rule="nonzero"/><path d="M102.068 147.908H52.32a5.483 5.483 0 00-3.89 1.61 5.483 5.483 0 00-1.61 3.89v6.64c0 1.52.616 2.894 1.61 3.89a5.483 5.483 0 003.89 1.61h49.748a5.483 5.483 0 003.889-1.61 5.483 5.483 0 001.61-3.89v-6.64a5.483 5.483 0 00-1.61-3.89 5.483 5.483 0 00-3.89-1.61z" stroke="#E1E6EB"/><path d="M67.16 183.524v-1.231h.726v-.84h-.726v-3.368h-1.313l-2.234 3.441v.767h2.593v1.231h.954zm-.954-2.071h-1.655l1.655-2.512v2.512zm2.903-.783c.31 0 .571-.261.571-.571 0-.31-.26-.57-.57-.57-.31 0-.571.26-.571.57 0 .31.26.57.57.57zm0 2.944c.31 0 .571-.261.571-.57 0-.31-.26-.572-.57-.572-.31 0-.571.261-.571.571 0 .31.26.571.57.571zm3.254.008c1.256 0 2.047-.66 2.047-1.582 0-.84-.734-1.272-1.264-1.321.563-.098 1.183-.522 1.183-1.248 0-.913-.791-1.468-1.966-1.468-.905 0-1.565.367-1.981.856l.489.596c.391-.392.848-.604 1.403-.604.611 0 1.1.261 1.1.767 0 .497-.48.718-1.117.718h-.266c-.153-.002-.3-.004-.362-.009v.857c.082-.008.4-.008.628-.008.775 0 1.207.228 1.207.766 0 .506-.416.832-1.133.832-.58 0-1.158-.253-1.509-.66l-.514.627c.367.49 1.085.881 2.055.881zm4.943 0c1.525 0 2.177-1.443 2.177-2.813s-.652-2.806-2.177-2.806-2.178 1.435-2.178 2.806c0 1.37.653 2.813 2.178 2.813zm0-.848c-.89 0-1.207-.93-1.207-1.965 0-1.036.318-1.958 1.207-1.958.888 0 1.207.922 1.207 1.958 0 1.035-.319 1.965-1.207 1.965zm4.045.75v-2.03h1.435c1.134 0 1.778-.783 1.778-1.705 0-.921-.636-1.704-1.778-1.704h-2.39v5.44h.955zm1.304-2.87h-1.304v-1.73h1.304c.539 0 .93.343.93.865s-.391.865-.93.865zm3.654 2.87v-4.118l1.664 4.118h.408l1.671-4.118v4.118h.955v-5.44H89.66l-1.484 3.662-1.476-3.661h-1.346v5.44h.954z" fill="#333E49" fill-rule="nonzero"/><path d="M102.068 171.791H52.32a5.483 5.483 0 00-3.89 1.611 5.483 5.483 0 00-1.61 3.89v6.64c0 1.519.616 2.894 1.61 3.89a5.483 5.483 0 003.89 1.61h49.748a5.483 5.483 0 003.889-1.61 5.483 5.483 0 001.61-3.89v-6.64a5.483 5.483 0 00-1.61-3.89 5.483 5.483 0 00-3.89-1.61z" stroke="#E1E6EB"/><path d="M52.32 123.524h49.748a6 6 0 016 6v6.641a6 6 0 01-6 6H52.32a6 6 0 01-6-6v-6.64a6 6 0 016-6z" fill="#00756D"/><path d="M65.66 135.855c1.256 0 2.047-.66 2.047-1.582 0-.84-.734-1.272-1.264-1.321.562-.098 1.182-.522 1.182-1.248 0-.913-.79-1.468-1.965-1.468-.906 0-1.566.367-1.982.856l.49.596c.39-.392.847-.604 1.402-.604.612 0 1.101.261 1.101.767 0 .497-.481.718-1.117.718h-.266c-.154-.002-.301-.004-.362-.009v.857c.081-.008.4-.008.628-.008.774 0 1.207.228 1.207.766 0 .506-.416.832-1.134.832-.579 0-1.158-.253-1.509-.66l-.513.627c.367.49 1.084.881 2.055.881zm3.425-2.952c.31 0 .57-.261.57-.571 0-.31-.26-.57-.57-.57-.31 0-.57.26-.57.57 0 .31.26.57.57.57zm0 2.944c.31 0 .57-.261.57-.57 0-.31-.26-.572-.57-.572-.31 0-.57.261-.57.571 0 .31.26.571.57.571zm3.254.008c1.256 0 2.047-.66 2.047-1.582 0-.84-.734-1.272-1.264-1.321.563-.098 1.182-.522 1.182-1.248 0-.913-.79-1.468-1.965-1.468-.905 0-1.566.367-1.982.856l.49.596c.391-.392.848-.604 1.402-.604.612 0 1.101.261 1.101.767 0 .497-.48.718-1.117.718h-.266c-.154-.002-.3-.004-.362-.009v.857c.082-.008.4-.008.628-.008.775 0 1.207.228 1.207.766 0 .506-.416.832-1.134.832-.579 0-1.158-.253-1.508-.66l-.514.627c.367.49 1.084.881 2.055.881zm4.942 0c1.525 0 2.178-1.443 2.178-2.813s-.653-2.806-2.178-2.806-2.177 1.435-2.177 2.806c0 1.37.652 2.813 2.177 2.813zm0-.848c-.889 0-1.207-.93-1.207-1.965 0-1.036.318-1.958 1.207-1.958s1.207.922 1.207 1.958c0 1.035-.318 1.965-1.207 1.965zm4.045.75v-2.03h1.435c1.134 0 1.778-.783 1.778-1.705 0-.921-.636-1.704-1.778-1.704h-2.389v5.44h.954zm1.305-2.87h-1.305v-1.73h1.305c.538 0 .93.343.93.865s-.392.865-.93.865zm3.654 2.87v-4.118l1.663 4.118h.408l1.672-4.118v4.118h.954v-5.44h-1.346l-1.484 3.662-1.476-3.661H85.33v5.44h.955z" fill="#FFF" fill-rule="nonzero"/><path d="M65.488 111.972c1.256 0 2.047-.66 2.047-1.582 0-.84-.734-1.273-1.264-1.322.563-.098 1.183-.522 1.183-1.247 0-.914-.791-1.468-1.966-1.468-.905 0-1.565.367-1.981.856l.489.595c.392-.391.848-.603 1.403-.603.611 0 1.1.26 1.1.766 0 .498-.48.718-1.117.718h-.266c-.153-.001-.3-.003-.362-.008v.856c.082-.008.4-.008.628-.008.775 0 1.207.228 1.207.767 0 .505-.415.831-1.133.831-.58 0-1.158-.252-1.509-.66l-.514.628c.367.49 1.085.88 2.055.88zm3.426-2.953c.31 0 .57-.26.57-.57 0-.31-.26-.571-.57-.571-.31 0-.571.26-.571.57 0 .31.26.571.57.571zm0 2.944c.31 0 .57-.26.57-.57 0-.31-.26-.571-.57-.571-.31 0-.571.26-.571.57 0 .31.26.571.57.571zm3.515.009c1.525 0 2.177-1.444 2.177-2.814s-.652-2.805-2.177-2.805-2.178 1.435-2.178 2.805.653 2.814 2.178 2.814zm0-.849c-.89 0-1.207-.93-1.207-1.965 0-1.036.318-1.957 1.207-1.957s1.207.921 1.207 1.957-.318 1.965-1.207 1.965zm5.023.849c1.525 0 2.178-1.444 2.178-2.814s-.653-2.805-2.178-2.805-2.177 1.435-2.177 2.805.652 2.814 2.177 2.814zm0-.849c-.889 0-1.207-.93-1.207-1.965 0-1.036.318-1.957 1.207-1.957.89 0 1.207.921 1.207 1.957s-.318 1.965-1.207 1.965zm4.045.75v-2.03h1.436c1.133 0 1.778-.783 1.778-1.704 0-.922-.637-1.705-1.778-1.705h-2.39v5.44h.954zm1.305-2.87h-1.305v-1.729h1.305c.539 0 .93.343.93.865s-.391.864-.93.864zm3.654 2.87v-4.118l1.664 4.119h.407l1.672-4.119v4.119h.954v-5.44h-1.345l-1.485 3.662-1.476-3.662h-1.345v5.44h.954z" fill="#333E49" fill-rule="nonzero"/><path d="M102.068 100.14H52.32a5.483 5.483 0 00-3.89 1.612 5.483 5.483 0 00-1.61 3.889v6.64c0 1.52.616 2.894 1.61 3.89a5.483 5.483 0 003.89 1.61h49.748a5.483 5.483 0 003.889-1.61 5.483 5.483 0 001.61-3.89v-6.64a5.483 5.483 0 00-1.61-3.89 5.483 5.483 0 00-3.89-1.61z" stroke="#E1E6EB"/><g><path d="M133.98 159.64v-1.23h.725v-.84h-.726V154.2h-1.313l-2.234 3.442v.766h2.593v1.232h.954zm-.955-2.07h-1.655l1.655-2.513v2.512zm2.903-.784c.31 0 .571-.26.571-.57 0-.31-.26-.571-.57-.571-.31 0-.571.26-.571.57 0 .31.26.571.57.571zm0 2.944c.31 0 .571-.26.571-.57 0-.31-.26-.571-.57-.571-.31 0-.571.26-.571.57 0 .31.26.571.57.571zm3.515.009c1.525 0 2.178-1.444 2.178-2.814s-.653-2.805-2.178-2.805-2.177 1.435-2.177 2.805.652 2.814 2.177 2.814zm0-.849c-.889 0-1.207-.93-1.207-1.965 0-1.036.318-1.957 1.207-1.957.89 0 1.207.921 1.207 1.957s-.318 1.965-1.207 1.965zm5.024.849c1.525 0 2.178-1.444 2.178-2.814s-.653-2.805-2.178-2.805-2.177 1.435-2.177 2.805.652 2.814 2.177 2.814zm0-.849c-.889 0-1.207-.93-1.207-1.965 0-1.036.318-1.957 1.207-1.957.89 0 1.207.921 1.207 1.957s-.318 1.965-1.207 1.965zm4.045.75v-2.03h1.436c1.133 0 1.777-.783 1.777-1.704 0-.922-.636-1.705-1.777-1.705h-2.39v5.44h.954zm1.305-2.87h-1.305v-1.729h1.305c.538 0 .93.343.93.865s-.392.864-.93.864zm3.654 2.87v-4.118l1.663 4.119h.408l1.672-4.119v4.119h.954v-5.44h-1.346l-1.484 3.662-1.476-3.662h-1.346v5.44h.955z" fill="#333E49" fill-rule="nonzero"/><path d="M169.058 147.908H119.31a5.483 5.483 0 00-3.889 1.61 5.483 5.483 0 00-1.61 3.89v6.64c0 1.52.615 2.894 1.61 3.89a5.483 5.483 0 003.89 1.61h49.747a5.483 5.483 0 003.889-1.61 5.483 5.483 0 001.61-3.89v-6.64a5.483 5.483 0 00-1.61-3.89 5.483 5.483 0 00-3.89-1.61z" stroke="#E1E6EB"/><path d="M132.65 135.855c1.256 0 2.047-.66 2.047-1.582 0-.84-.734-1.272-1.264-1.321.563-.098 1.182-.522 1.182-1.248 0-.913-.79-1.468-1.965-1.468-.905 0-1.566.367-1.982.856l.49.596c.391-.392.848-.604 1.402-.604.612 0 1.101.261 1.101.767 0 .497-.48.718-1.117.718h-.266c-.154-.002-.3-.004-.362-.009v.857c.082-.008.4-.008.628-.008.775 0 1.207.228 1.207.766 0 .506-.416.832-1.134.832-.579 0-1.158-.253-1.508-.66l-.514.627c.367.49 1.085.881 2.055.881zm3.425-2.952c.31 0 .571-.261.571-.571 0-.31-.26-.57-.57-.57-.31 0-.572.26-.572.57 0 .31.261.57.571.57zm0 2.944c.31 0 .571-.261.571-.57 0-.31-.26-.572-.57-.572-.31 0-.572.261-.572.571 0 .31.261.571.571.571zm3.254.008c1.256 0 2.047-.66 2.047-1.582 0-.84-.734-1.272-1.264-1.321.563-.098 1.183-.522 1.183-1.248 0-.913-.791-1.468-1.966-1.468-.905 0-1.566.367-1.981.856l.489.596c.391-.392.848-.604 1.403-.604.611 0 1.1.261 1.1.767 0 .497-.48.718-1.117.718h-.266c-.153-.002-.3-.004-.362-.009v.857c.082-.008.4-.008.628-.008.775 0 1.207.228 1.207.766 0 .506-.416.832-1.133.832-.58 0-1.158-.253-1.51-.66l-.513.627c.367.49 1.085.881 2.055.881zm4.942 0c1.525 0 2.178-1.443 2.178-2.813s-.653-2.806-2.178-2.806-2.177 1.435-2.177 2.806c0 1.37.652 2.813 2.177 2.813zm0-.848c-.889 0-1.207-.93-1.207-1.965 0-1.036.318-1.958 1.207-1.958.89 0 1.207.922 1.207 1.958 0 1.035-.318 1.965-1.207 1.965zm4.045.75v-2.03h1.436c1.133 0 1.778-.783 1.778-1.705 0-.921-.636-1.704-1.778-1.704h-2.39v5.44h.954zm1.305-2.87h-1.305v-1.73h1.305c.539 0 .93.343.93.865s-.391.865-.93.865zm3.654 2.87v-4.118l1.664 4.118h.407l1.672-4.118v4.118h.954v-5.44h-1.345l-1.485 3.662-1.476-3.661h-1.345v5.44h.954z" fill="#333E49" fill-rule="nonzero"/><path d="M169.058 124.024H119.31a5.483 5.483 0 00-3.889 1.611 5.483 5.483 0 00-1.61 3.89v6.64c0 1.519.615 2.894 1.61 3.89a5.483 5.483 0 003.89 1.61h49.747a5.483 5.483 0 003.889-1.61 5.483 5.483 0 001.61-3.89v-6.64a5.483 5.483 0 00-1.61-3.89 5.483 5.483 0 00-3.89-1.61z" stroke="#E1E6EB"/><g><path d="M132.479 111.972c1.256 0 2.047-.66 2.047-1.582 0-.84-.734-1.273-1.264-1.322.562-.098 1.182-.522 1.182-1.247 0-.914-.79-1.468-1.965-1.468-.905 0-1.566.367-1.982.856l.49.595c.39-.391.847-.603 1.402-.603.612 0 1.101.26 1.101.766 0 .498-.481.718-1.117.718h-.266c-.154-.001-.301-.003-.362-.008v.856c.081-.008.4-.008.628-.008.775 0 1.207.228 1.207.767 0 .505-.416.831-1.134.831-.579 0-1.158-.252-1.509-.66l-.513.628c.367.49 1.084.88 2.055.88zm3.425-2.953c.31 0 .57-.26.57-.57 0-.31-.26-.571-.57-.571-.31 0-.57.26-.57.57 0 .31.26.571.57.571zm0 2.944c.31 0 .57-.26.57-.57 0-.31-.26-.571-.57-.571-.31 0-.57.26-.57.57 0 .31.26.571.57.571zm3.515.009c1.525 0 2.177-1.444 2.177-2.814s-.652-2.805-2.177-2.805-2.178 1.435-2.178 2.805.653 2.814 2.178 2.814zm0-.849c-.889 0-1.207-.93-1.207-1.965 0-1.036.318-1.957 1.207-1.957s1.207.921 1.207 1.957-.318 1.965-1.207 1.965zm5.024.849c1.525 0 2.177-1.444 2.177-2.814s-.652-2.805-2.177-2.805-2.178 1.435-2.178 2.805.653 2.814 2.178 2.814zm0-.849c-.89 0-1.207-.93-1.207-1.965 0-1.036.318-1.957 1.207-1.957s1.207.921 1.207 1.957-.318 1.965-1.207 1.965zm4.045.75v-2.03h1.435c1.134 0 1.778-.783 1.778-1.704 0-.922-.636-1.705-1.778-1.705h-2.39v5.44h.955zm1.305-2.87h-1.305v-1.729h1.305c.538 0 .93.343.93.865s-.392.864-.93.864zm3.653 2.87v-4.118l1.664 4.119h.408l1.671-4.119v4.119h.955v-5.44h-1.346l-1.484 3.662-1.476-3.662h-1.346v5.44h.954z" fill="#333E49" fill-rule="nonzero"/><path d="M169.058 100.14H119.31a5.483 5.483 0 00-3.889 1.612 5.483 5.483 0 00-1.61 3.889v6.64c0 1.52.615 2.894 1.61 3.89a5.483 5.483 0 003.89 1.61h49.747a5.483 5.483 0 003.889-1.61 5.483 5.483 0 001.61-3.89v-6.64a5.483 5.483 0 00-1.61-3.89 5.483 5.483 0 00-3.89-1.61z" stroke="#E1E6EB"/></g></g><g><path d="M201.552 159.64v-1.23h.726v-.84h-.726V154.2h-1.313l-2.234 3.442v.766h2.593v1.232h.954zm-.954-2.07h-1.656l1.656-2.513v2.512zm2.903-.784c.31 0 .571-.26.571-.57 0-.31-.26-.571-.57-.571-.31 0-.572.26-.572.57 0 .31.261.571.571.571zm0 2.944c.31 0 .571-.26.571-.57 0-.31-.26-.571-.57-.571-.31 0-.572.26-.572.57 0 .31.261.571.571.571zm3.515.009c1.525 0 2.178-1.444 2.178-2.814s-.653-2.805-2.178-2.805-2.177 1.435-2.177 2.805.652 2.814 2.177 2.814zm0-.849c-.889 0-1.207-.93-1.207-1.965 0-1.036.318-1.957 1.207-1.957.89 0 1.207.921 1.207 1.957s-.318 1.965-1.207 1.965zm5.024.849c1.525 0 2.177-1.444 2.177-2.814s-.652-2.805-2.177-2.805-2.178 1.435-2.178 2.805.653 2.814 2.178 2.814zm0-.849c-.889 0-1.207-.93-1.207-1.965 0-1.036.318-1.957 1.207-1.957s1.207.921 1.207 1.957-.318 1.965-1.207 1.965zm4.045.75v-2.03h1.435c1.134 0 1.778-.783 1.778-1.704 0-.922-.636-1.705-1.778-1.705h-2.39v5.44h.955zm1.305-2.87h-1.305v-1.729h1.305c.538 0 .93.343.93.865s-.392.864-.93.864zm3.653 2.87v-4.118l1.664 4.119h.408l1.672-4.119v4.119h.954v-5.44h-1.346l-1.484 3.662-1.476-3.662h-1.346v5.44h.954z" fill="#333E49" fill-rule="nonzero"/><path d="M236.63 147.908h-49.747a5.483 5.483 0 00-3.889 1.61 5.483 5.483 0 00-1.611 3.89v6.64c0 1.52.616 2.894 1.611 3.89a5.483 5.483 0 003.889 1.61h49.748a5.483 5.483 0 003.889-1.61 5.483 5.483 0 001.61-3.89v-6.64a5.483 5.483 0 00-1.61-3.89 5.483 5.483 0 00-3.89-1.61z" stroke="#E1E6EB"/><path d="M201.723 183.524v-1.231h.726v-.84h-.726v-3.368h-1.313l-2.234 3.441v.767h2.593v1.231h.954zm-.954-2.071h-1.655l1.655-2.512v2.512zm2.904-.783c.31 0 .57-.261.57-.571 0-.31-.26-.57-.57-.57-.31 0-.571.26-.571.57 0 .31.26.57.57.57zm0 2.944c.31 0 .57-.261.57-.57 0-.31-.26-.572-.57-.572-.31 0-.571.261-.571.571 0 .31.26.571.57.571zm3.254.008c1.255 0 2.047-.66 2.047-1.582 0-.84-.734-1.272-1.265-1.321.563-.098 1.183-.522 1.183-1.248 0-.913-.791-1.468-1.965-1.468-.906 0-1.566.367-1.982.856l.49.596c.39-.392.847-.604 1.402-.604.611 0 1.1.261 1.1.767 0 .497-.48.718-1.116.718h-.267c-.153-.002-.3-.004-.361-.009v.857c.081-.008.4-.008.628-.008.774 0 1.207.228 1.207.766 0 .506-.416.832-1.134.832-.58 0-1.158-.253-1.509-.66l-.514.627c.367.49 1.085.881 2.056.881zm4.942 0c1.525 0 2.177-1.443 2.177-2.813s-.652-2.806-2.177-2.806-2.178 1.435-2.178 2.806c0 1.37.653 2.813 2.178 2.813zm0-.848c-.89 0-1.207-.93-1.207-1.965 0-1.036.318-1.958 1.207-1.958s1.207.922 1.207 1.958c0 1.035-.318 1.965-1.207 1.965zm4.045.75v-2.03h1.435c1.134 0 1.778-.783 1.778-1.705 0-.921-.636-1.704-1.778-1.704h-2.39v5.44h.955zm1.305-2.87h-1.305v-1.73h1.305c.538 0 .93.343.93.865s-.392.865-.93.865zm3.653 2.87v-4.118l1.664 4.118h.408l1.671-4.118v4.118h.955v-5.44h-1.346l-1.484 3.662-1.476-3.661h-1.346v5.44h.954z" fill="#333E49" fill-rule="nonzero"/><path d="M236.63 171.791h-49.747a5.483 5.483 0 00-3.889 1.611 5.483 5.483 0 00-1.611 3.89v6.64c0 1.519.616 2.894 1.611 3.89a5.483 5.483 0 003.889 1.61h49.748a5.483 5.483 0 003.889-1.61 5.483 5.483 0 001.61-3.89v-6.64a5.483 5.483 0 00-1.61-3.89 5.483 5.483 0 00-3.89-1.61z" stroke="#E1E6EB"/><g><path d="M200.223 135.855c1.256 0 2.047-.66 2.047-1.582 0-.84-.734-1.272-1.264-1.321.562-.098 1.182-.522 1.182-1.248 0-.913-.79-1.468-1.965-1.468-.905 0-1.566.367-1.982.856l.49.596c.39-.392.848-.604 1.402-.604.612 0 1.101.261 1.101.767 0 .497-.481.718-1.117.718h-.266c-.154-.002-.301-.004-.362-.009v.857c.081-.008.4-.008.628-.008.775 0 1.207.228 1.207.766 0 .506-.416.832-1.134.832-.579 0-1.158-.253-1.509-.66l-.513.627c.367.49 1.084.881 2.055.881zm3.425-2.952c.31 0 .571-.261.571-.571 0-.31-.261-.57-.57-.57-.31 0-.572.26-.572.57 0 .31.261.57.571.57zm0 2.944c.31 0 .571-.261.571-.57 0-.31-.261-.572-.57-.572-.31 0-.572.261-.572.571 0 .31.261.571.571.571zm3.254.008c1.256 0 2.047-.66 2.047-1.582 0-.84-.734-1.272-1.264-1.321.563-.098 1.183-.522 1.183-1.248 0-.913-.792-1.468-1.966-1.468-.905 0-1.566.367-1.982.856l.49.596c.391-.392.848-.604 1.402-.604.612 0 1.101.261 1.101.767 0 .497-.48.718-1.117.718h-.266c-.154-.002-.3-.004-.362-.009v.857c.082-.008.4-.008.628-.008.775 0 1.207.228 1.207.766 0 .506-.416.832-1.134.832-.579 0-1.158-.253-1.508-.66l-.514.627c.367.49 1.085.881 2.055.881zm4.942 0c1.525 0 2.178-1.443 2.178-2.813s-.653-2.806-2.178-2.806-2.177 1.435-2.177 2.806c0 1.37.652 2.813 2.177 2.813zm0-.848c-.889 0-1.207-.93-1.207-1.965 0-1.036.318-1.958 1.207-1.958.89 0 1.207.922 1.207 1.958 0 1.035-.318 1.965-1.207 1.965zm4.045.75v-2.03h1.436c1.133 0 1.777-.783 1.777-1.705 0-.921-.636-1.704-1.777-1.704h-2.39v5.44h.954zm1.305-2.87h-1.305v-1.73h1.305c.538 0 .93.343.93.865s-.392.865-.93.865zm3.654 2.87v-4.118l1.663 4.118h.408l1.672-4.118v4.118h.954v-5.44H224.2l-1.485 3.662-1.476-3.661h-1.345v5.44h.954z" fill="#333E49" fill-rule="nonzero"/><path d="M236.63 124.024h-49.747a5.483 5.483 0 00-3.889 1.611 5.483 5.483 0 00-1.611 3.89v6.64c0 1.519.616 2.894 1.611 3.89a5.483 5.483 0 003.889 1.61h49.748a5.483 5.483 0 003.889-1.61 5.483 5.483 0 001.61-3.89v-6.64a5.483 5.483 0 00-1.61-3.89 5.483 5.483 0 00-3.89-1.61z" stroke="#E1E6EB"/></g><g><path d="M200.052 111.972c1.256 0 2.047-.66 2.047-1.582 0-.84-.734-1.273-1.265-1.322.563-.098 1.183-.522 1.183-1.247 0-.914-.791-1.468-1.965-1.468-.906 0-1.566.367-1.982.856l.49.595c.39-.391.847-.603 1.402-.603.612 0 1.1.26 1.1.766 0 .498-.48.718-1.116.718h-.267c-.153-.001-.3-.003-.361-.008v.856c.081-.008.4-.008.628-.008.774 0 1.207.228 1.207.767 0 .505-.416.831-1.134.831-.58 0-1.158-.252-1.509-.66l-.514.628c.367.49 1.085.88 2.056.88zm3.425-2.953c.31 0 .57-.26.57-.57 0-.31-.26-.571-.57-.571-.31 0-.571.26-.571.57 0 .31.26.571.57.571zm0 2.944c.31 0 .57-.26.57-.57 0-.31-.26-.571-.57-.571-.31 0-.571.26-.571.57 0 .31.26.571.57.571zm3.515.009c1.525 0 2.177-1.444 2.177-2.814s-.652-2.805-2.177-2.805-2.178 1.435-2.178 2.805.653 2.814 2.178 2.814zm0-.849c-.89 0-1.207-.93-1.207-1.965 0-1.036.318-1.957 1.207-1.957s1.207.921 1.207 1.957-.318 1.965-1.207 1.965zm5.023.849c1.526 0 2.178-1.444 2.178-2.814s-.652-2.805-2.178-2.805c-1.525 0-2.177 1.435-2.177 2.805s.652 2.814 2.177 2.814zm0-.849c-.888 0-1.207-.93-1.207-1.965 0-1.036.319-1.957 1.207-1.957.89 0 1.207.921 1.207 1.957s-.318 1.965-1.207 1.965zm4.046.75v-2.03h1.435c1.133 0 1.778-.783 1.778-1.704 0-.922-.636-1.705-1.778-1.705h-2.39v5.44h.955zm1.304-2.87h-1.304v-1.729h1.304c.539 0 .93.343.93.865s-.391.864-.93.864zm3.654 2.87v-4.118l1.664 4.119h.407l1.672-4.119v4.119h.954v-5.44h-1.345l-1.484 3.662-1.477-3.662h-1.345v5.44h.954z" fill="#333E49" fill-rule="nonzero"/><path d="M236.63 100.14h-49.747a5.483 5.483 0 00-3.889 1.612 5.483 5.483 0 00-1.611 3.889v6.64c0 1.52.616 2.894 1.611 3.89a5.483 5.483 0 003.889 1.61h49.748a5.483 5.483 0 003.889-1.61 5.483 5.483 0 001.61-3.89v-6.64a5.483 5.483 0 00-1.61-3.89 5.483 5.483 0 00-3.89-1.61z" stroke="#E1E6EB"/></g></g><g><path d="M304.203 147.908h-49.747a5.483 5.483 0 00-3.89 1.61 5.483 5.483 0 00-1.61 3.89v6.64c0 1.52.615 2.894 1.61 3.89a5.483 5.483 0 003.89 1.61h49.747a5.483 5.483 0 003.89-1.61 5.483 5.483 0 001.61-3.89v-6.64a5.483 5.483 0 00-1.61-3.89 5.483 5.483 0 00-3.89-1.61z" stroke="#E9EDEF"/><path d="M269.125 159.64v-1.23h.726v-.84h-.726V154.2h-1.313l-2.235 3.442v.766h2.594v1.232h.954zm-.954-2.07h-1.656l1.656-2.513v2.512zm2.903-.784c.31 0 .571-.26.571-.57 0-.31-.261-.571-.57-.571-.31 0-.572.26-.572.57 0 .31.261.571.571.571zm0 2.944c.31 0 .571-.26.571-.57 0-.31-.261-.571-.57-.571-.31 0-.572.26-.572.57 0 .31.261.571.571.571zm3.515.009c1.525 0 2.178-1.444 2.178-2.814s-.653-2.805-2.178-2.805-2.177 1.435-2.177 2.805.652 2.814 2.177 2.814zm0-.849c-.889 0-1.207-.93-1.207-1.965 0-1.036.318-1.957 1.207-1.957s1.207.921 1.207 1.957-.318 1.965-1.207 1.965zm5.024.849c1.525 0 2.177-1.444 2.177-2.814s-.652-2.805-2.177-2.805-2.178 1.435-2.178 2.805.653 2.814 2.178 2.814zm0-.849c-.89 0-1.207-.93-1.207-1.965 0-1.036.318-1.957 1.207-1.957s1.207.921 1.207 1.957-.318 1.965-1.207 1.965zm4.045.75v-2.03h1.435c1.134 0 1.778-.783 1.778-1.704 0-.922-.636-1.705-1.778-1.705h-2.39v5.44h.955zm1.305-2.87h-1.305v-1.729h1.305c.538 0 .93.343.93.865s-.392.864-.93.864zm3.653 2.87v-4.118l1.664 4.119h.408l1.672-4.119v4.119h.954v-5.44h-1.346l-1.484 3.662-1.476-3.662h-1.346v5.44h.954zM269.296 183.524v-1.231h.726v-.84h-.726v-3.368h-1.313l-2.234 3.441v.767h2.593v1.231h.954zm-.954-2.071h-1.655l1.655-2.512v2.512zm2.903-.783c.31 0 .571-.261.571-.571 0-.31-.26-.57-.57-.57-.31 0-.572.26-.572.57 0 .31.261.57.571.57zm0 2.944c.31 0 .571-.261.571-.57 0-.31-.26-.572-.57-.572-.31 0-.572.261-.572.571 0 .31.261.571.571.571zm3.254.008c1.256 0 2.047-.66 2.047-1.582 0-.84-.734-1.272-1.264-1.321.563-.098 1.183-.522 1.183-1.248 0-.913-.791-1.468-1.966-1.468-.905 0-1.565.367-1.981.856l.489.596c.391-.392.848-.604 1.403-.604.611 0 1.1.261 1.1.767 0 .497-.48.718-1.117.718h-.266c-.153-.002-.3-.004-.362-.009v.857c.082-.008.4-.008.628-.008.775 0 1.207.228 1.207.766 0 .506-.416.832-1.133.832-.58 0-1.158-.253-1.509-.66l-.514.627c.367.49 1.085.881 2.055.881zm4.942 0c1.526 0 2.178-1.443 2.178-2.813s-.652-2.806-2.178-2.806c-1.525 0-2.177 1.435-2.177 2.806 0 1.37.652 2.813 2.177 2.813zm0-.848c-.888 0-1.207-.93-1.207-1.965 0-1.036.319-1.958 1.207-1.958.89 0 1.207.922 1.207 1.958 0 1.035-.318 1.965-1.207 1.965zm4.046.75v-2.03h1.435c1.133 0 1.778-.783 1.778-1.705 0-.921-.636-1.704-1.778-1.704h-2.39v5.44h.955zm1.304-2.87h-1.304v-1.73h1.304c.539 0 .93.343.93.865s-.391.865-.93.865zm3.654 2.87v-4.118l1.664 4.118h.407l1.672-4.118v4.118h.954v-5.44h-1.345l-1.484 3.662-1.477-3.661h-1.345v5.44h.954z" fill="#333E49" fill-rule="nonzero"/><path d="M304.203 171.791h-49.747a5.483 5.483 0 00-3.89 1.611 5.483 5.483 0 00-1.61 3.89v6.64c0 1.519.615 2.894 1.61 3.89a5.483 5.483 0 003.89 1.61h49.747a5.483 5.483 0 003.89-1.61 5.483 5.483 0 001.61-3.89v-6.64a5.483 5.483 0 00-1.61-3.89 5.483 5.483 0 00-3.89-1.61z" stroke="#E1E6EB"/><g><path d="M267.796 135.855c1.256 0 2.047-.66 2.047-1.582 0-.84-.734-1.272-1.264-1.321.562-.098 1.182-.522 1.182-1.248 0-.913-.791-1.468-1.965-1.468-.906 0-1.566.367-1.982.856l.49.596c.39-.392.847-.604 1.402-.604.612 0 1.1.261 1.1.767 0 .497-.48.718-1.116.718h-.266c-.154-.002-.301-.004-.362-.009v.857c.081-.008.4-.008.628-.008.774 0 1.207.228 1.207.766 0 .506-.416.832-1.134.832-.579 0-1.158-.253-1.509-.66l-.513.627c.367.49 1.084.881 2.055.881zm3.425-2.952c.31 0 .57-.261.57-.571 0-.31-.26-.57-.57-.57-.31 0-.571.26-.571.57 0 .31.261.57.57.57zm0 2.944c.31 0 .57-.261.57-.57 0-.31-.26-.572-.57-.572-.31 0-.571.261-.571.571 0 .31.261.571.57.571zm3.254.008c1.256 0 2.047-.66 2.047-1.582 0-.84-.734-1.272-1.264-1.321.563-.098 1.182-.522 1.182-1.248 0-.913-.79-1.468-1.965-1.468-.905 0-1.566.367-1.982.856l.49.596c.39-.392.848-.604 1.402-.604.612 0 1.101.261 1.101.767 0 .497-.481.718-1.117.718h-.266c-.154-.002-.3-.004-.362-.009v.857c.081-.008.4-.008.628-.008.775 0 1.207.228 1.207.766 0 .506-.416.832-1.134.832-.579 0-1.158-.253-1.508-.66l-.514.627c.367.49 1.084.881 2.055.881zm4.942 0c1.525 0 2.177-1.443 2.177-2.813s-.652-2.806-2.177-2.806-2.177 1.435-2.177 2.806c0 1.37.652 2.813 2.177 2.813zm0-.848c-.889 0-1.207-.93-1.207-1.965 0-1.036.318-1.958 1.207-1.958s1.207.922 1.207 1.958c0 1.035-.318 1.965-1.207 1.965zm4.045.75v-2.03h1.435c1.134 0 1.778-.783 1.778-1.705 0-.921-.636-1.704-1.778-1.704h-2.39v5.44h.955zm1.305-2.87h-1.305v-1.73h1.305c.538 0 .93.343.93.865s-.392.865-.93.865zm3.654 2.87v-4.118l1.663 4.118h.408l1.672-4.118v4.118h.954v-5.44h-1.346l-1.484 3.662-1.476-3.661h-1.346v5.44h.955z" fill="#333E49" fill-rule="nonzero"/><path d="M304.203 124.024h-49.747a5.483 5.483 0 00-3.89 1.611 5.483 5.483 0 00-1.61 3.89v6.64c0 1.519.615 2.894 1.61 3.89a5.483 5.483 0 003.89 1.61h49.747a5.483 5.483 0 003.89-1.61 5.483 5.483 0 001.61-3.89v-6.64a5.483 5.483 0 00-1.61-3.89 5.483 5.483 0 00-3.89-1.61z" stroke="#E1E6EB"/></g><g><path d="M267.624 111.972c1.256 0 2.047-.66 2.047-1.582 0-.84-.734-1.273-1.264-1.322.563-.098 1.183-.522 1.183-1.247 0-.914-.791-1.468-1.966-1.468-.905 0-1.565.367-1.981.856l.489.595c.391-.391.848-.603 1.403-.603.611 0 1.1.26 1.1.766 0 .498-.48.718-1.117.718h-.266c-.153-.001-.3-.003-.362-.008v.856c.082-.008.4-.008.628-.008.775 0 1.207.228 1.207.767 0 .505-.416.831-1.133.831-.58 0-1.158-.252-1.509-.66l-.514.628c.367.49 1.085.88 2.055.88zm3.426-2.953c.31 0 .57-.26.57-.57 0-.31-.26-.571-.57-.571-.31 0-.571.26-.571.57 0 .31.26.571.57.571zm0 2.944c.31 0 .57-.26.57-.57 0-.31-.26-.571-.57-.571-.31 0-.571.26-.571.57 0 .31.26.571.57.571zm3.515.009c1.525 0 2.177-1.444 2.177-2.814s-.652-2.805-2.177-2.805-2.178 1.435-2.178 2.805.653 2.814 2.178 2.814zm0-.849c-.89 0-1.207-.93-1.207-1.965 0-1.036.318-1.957 1.207-1.957s1.207.921 1.207 1.957-.318 1.965-1.207 1.965zm5.023.849c1.525 0 2.178-1.444 2.178-2.814s-.653-2.805-2.178-2.805-2.177 1.435-2.177 2.805.652 2.814 2.177 2.814zm0-.849c-.889 0-1.207-.93-1.207-1.965 0-1.036.318-1.957 1.207-1.957.89 0 1.207.921 1.207 1.957s-.318 1.965-1.207 1.965zm4.045.75v-2.03h1.436c1.133 0 1.778-.783 1.778-1.704 0-.922-.637-1.705-1.778-1.705h-2.39v5.44h.954zm1.305-2.87h-1.305v-1.729h1.305c.538 0 .93.343.93.865s-.392.864-.93.864zm3.654 2.87v-4.118l1.663 4.119h.408l1.672-4.119v4.119h.954v-5.44h-1.345l-1.485 3.662-1.476-3.662h-1.345v5.44h.954z" fill="#333E49" fill-rule="nonzero"/><path d="M304.203 100.14h-49.747a5.483 5.483 0 00-3.89 1.612 5.483 5.483 0 00-1.61 3.889v6.64c0 1.52.615 2.894 1.61 3.89a5.483 5.483 0 003.89 1.61h49.747a5.483 5.483 0 003.89-1.61 5.483 5.483 0 001.61-3.89v-6.64a5.483 5.483 0 00-1.61-3.89 5.483 5.483 0 00-3.89-1.61z" stroke="#E1E6EB"/></g></g><g transform="translate(113.631 53.621)"><rect fill="#FFEBB1" width="61.748" height="40.194" rx="4"/><path d="M13.898 31.456v-4.6h1.647v-.84h-4.249v.84h1.648v4.6h.954zm3.694.098c.62 0 1.11-.302 1.395-.62v.522h.856v-3.939h-.856v2.765a1.31 1.31 0 01-1.011.514c-.482 0-.792-.188-.792-.8v-2.479h-.856v2.79c0 .807.416 1.247 1.264 1.247zm5.179 0c.628 0 1.207-.196 1.598-.57l-.391-.563c-.277.277-.734.432-1.117.432-.743 0-1.191-.49-1.256-1.085h3.042v-.204c0-1.24-.759-2.145-1.941-2.145-1.167 0-1.998.922-1.998 2.064 0 1.247.88 2.071 2.063 2.071zm1.044-2.39h-2.218c.04-.48.375-1.043 1.109-1.043.774 0 1.092.579 1.109 1.044zm3.025 2.39c1.06 0 1.64-.53 1.64-1.223 0-.93-.84-1.126-1.525-1.272-.465-.106-.857-.212-.857-.514 0-.277.286-.44.734-.44.49 0 .93.203 1.166.472l.36-.603c-.36-.318-.865-.555-1.534-.555-.995 0-1.55.555-1.55 1.2 0 .88.808 1.06 1.485 1.206.481.106.897.229.897.571 0 .294-.261.481-.775.481s-1.06-.269-1.337-.554l-.392.62c.408.4 1.02.611 1.688.611zm4.013 0c.505 0 .962-.244 1.264-.636v.538h.856v-5.44h-.856v2.048a1.58 1.58 0 00-1.264-.645c-1.02 0-1.754.8-1.754 2.072 0 1.297.743 2.063 1.754 2.063zm.244-.758c-.676 0-1.109-.547-1.109-1.305 0-.767.433-1.313 1.11-1.313.407 0 .823.236 1.019.53v1.566c-.196.293-.612.522-1.02.522zm4.119.758c.522 0 .979-.187 1.272-.522v.424h.856v-2.61c0-1.06-.766-1.427-1.639-1.427-.628 0-1.199.204-1.655.637l.35.595c.343-.334.726-.498 1.167-.498.546 0 .921.278.921.734v.588c-.285-.335-.742-.506-1.272-.506-.644 0-1.37.375-1.37 1.28 0 .873.726 1.305 1.37 1.305zm.334-.587c-.48 0-.84-.277-.84-.701 0-.433.36-.71.84-.71.375 0 .742.139.938.408v.595c-.196.27-.563.408-.938.408zm3.213 2.088c.612-.008 1.085-.22 1.354-.89l1.9-4.648h-.921l-1.15 2.953-1.15-2.953h-.913l1.614 3.988-.195.449c-.114.26-.294.342-.563.342a.895.895 0 01-.326-.065l-.13.767c.122.032.358.057.48.057z" fill="#FF5E16" fill-rule="nonzero"/><path d="M17.899 18.058v-1.32h-3.794c2.294-1.73 3.742-3.14 3.742-4.716 0-1.704-1.448-2.64-3.101-2.64-1.192 0-2.396.461-3.153 1.371l.872.987c.538-.615 1.307-1.025 2.307-1.025.781 0 1.55.41 1.55 1.307 0 1.23-1.294 2.345-4.613 4.857v1.18h6.19zm4.331.154c1.974 0 3.217-1.038 3.217-2.486 0-1.32-1.153-2-1.986-2.076.884-.154 1.858-.82 1.858-1.961 0-1.435-1.243-2.307-3.089-2.307-1.422 0-2.46.577-3.114 1.346l.769.935c.615-.615 1.333-.948 2.204-.948.961 0 1.73.41 1.73 1.205 0 .781-.756 1.127-1.755 1.127h-.3c-.28 0-.575-.003-.687-.012v1.345c.128-.013.628-.013.987-.013 1.217 0 1.896.36 1.896 1.205 0 .795-.653 1.307-1.781 1.307-.91 0-1.82-.397-2.37-1.038l-.808.987c.576.769 1.704 1.384 3.23 1.384z" fill="#333E49" fill-rule="nonzero"/></g><g transform="translate(180.621 53.621)"><rect fill="#FFEBB1" width="61.748" height="40.194" rx="4"/><path d="M13.694 31.456l1.052-4.012 1.06 4.012h1.02l1.55-5.44h-1.07l-1.051 4.193-1.126-4.192h-.758l-1.126 4.192-1.06-4.192h-1.068l1.558 5.44h1.019zm7.111.098c.628 0 1.207-.196 1.599-.57l-.392-.563c-.277.277-.734.432-1.117.432-.742 0-1.19-.49-1.256-1.085h3.042v-.204c0-1.24-.758-2.145-1.94-2.145-1.167 0-1.999.922-1.999 2.064 0 1.247.88 2.071 2.063 2.071zm1.044-2.39h-2.218c.04-.48.375-1.043 1.11-1.043.774 0 1.092.579 1.108 1.044zm3.19 2.39c.505 0 .961-.244 1.263-.636v.538h.856v-5.44h-.856v2.048a1.58 1.58 0 00-1.264-.645c-1.02 0-1.753.8-1.753 2.072 0 1.297.742 2.063 1.753 2.063zm.244-.758c-.677 0-1.11-.547-1.11-1.305 0-.767.433-1.313 1.11-1.313.407 0 .823.236 1.02.53v1.566c-.197.293-.613.522-1.02.522zm3.84.66v-2.748c.197-.27.572-.53 1.012-.53.481 0 .791.204.791.815v2.463h.857v-2.773c0-.807-.425-1.264-1.273-1.264-.62 0-1.125.327-1.386.637v-.539h-.856v3.94h.856zm5.587.098c.628 0 1.207-.196 1.599-.57l-.392-.563c-.277.277-.734.432-1.117.432-.742 0-1.19-.49-1.256-1.085h3.042v-.204c0-1.24-.758-2.145-1.941-2.145-1.166 0-1.998.922-1.998 2.064 0 1.247.88 2.071 2.063 2.071zm1.044-2.39h-2.218c.04-.48.375-1.043 1.109-1.043.775 0 1.093.579 1.11 1.044zm3.026 2.39c1.06 0 1.639-.53 1.639-1.223 0-.93-.84-1.126-1.525-1.272-.465-.106-.856-.212-.856-.514 0-.277.285-.44.734-.44.489 0 .93.203 1.166.472l.359-.603c-.36-.318-.865-.555-1.534-.555-.994 0-1.549.555-1.549 1.2 0 .88.807 1.06 1.484 1.206.481.106.897.229.897.571 0 .294-.26.481-.774.481s-1.06-.269-1.338-.554l-.391.62c.407.4 1.02.611 1.688.611zm4.012 0c.506 0 .963-.244 1.264-.636v.538h.857v-5.44h-.857v2.048a1.58 1.58 0 00-1.264-.645c-1.02 0-1.753.8-1.753 2.072 0 1.297.742 2.063 1.753 2.063zm.245-.758c-.677 0-1.11-.547-1.11-1.305 0-.767.433-1.313 1.11-1.313.408 0 .824.236 1.02.53v1.566c-.196.293-.612.522-1.02.522zm4.118.758c.522 0 .979-.187 1.273-.522v.424h.856v-2.61c0-1.06-.767-1.427-1.64-1.427-.627 0-1.198.204-1.655.637l.35.595c.343-.334.727-.498 1.167-.498.546 0 .922.278.922.734v.588c-.286-.335-.743-.506-1.273-.506-.644 0-1.37.375-1.37 1.28 0 .873.726 1.305 1.37 1.305zm.335-.587c-.481 0-.84-.277-.84-.701 0-.433.359-.71.84-.71.375 0 .742.139.938.408v.595c-.196.27-.563.408-.938.408zm3.213 2.088c.612-.008 1.085-.22 1.354-.89l1.9-4.648h-.922l-1.15 2.953-1.15-2.953h-.913l1.615 3.988-.196.449c-.114.26-.293.342-.563.342a.895.895 0 01-.326-.065l-.13.767c.122.032.359.057.48.057z" fill="#FF5E16" fill-rule="nonzero"/><path d="M17.899 18.058v-1.32h-3.794c2.294-1.73 3.742-3.14 3.742-4.716 0-1.704-1.448-2.64-3.101-2.64-1.192 0-2.396.461-3.153 1.371l.872.987c.538-.615 1.307-1.025 2.307-1.025.781 0 1.55.41 1.55 1.307 0 1.23-1.294 2.345-4.613 4.857v1.18h6.19zm6.728 0v-1.935h1.14v-1.32h-1.14V9.51h-2.064l-3.511 5.408v1.205h4.075v1.935h1.5zm-1.5-3.255h-2.601l2.601-3.947v3.947z" fill="#333E49" fill-rule="nonzero"/></g><g transform="translate(248.194 53.621)"><rect fill="#FFEBB1" width="61.748" height="40.194" rx="4"/><path d="M13.898 31.456v-4.6h1.647v-.84h-4.249v.84h1.648v4.6h.954zm3.286 0v-2.748c.204-.27.58-.53 1.012-.53.48 0 .799.187.799.8v2.478h.856v-2.789c0-.807-.424-1.248-1.272-1.248-.62 0-1.134.327-1.395.637v-2.04h-.856v5.44h.856zm5.04.098c.62 0 1.11-.302 1.395-.62v.522h.856v-3.939h-.856v2.765a1.31 1.31 0 01-1.011.514c-.481 0-.791-.188-.791-.8v-2.479h-.857v2.79c0 .807.416 1.247 1.264 1.247zm4.217-.098v-2.683c.171-.277.652-.522 1.011-.522.106 0 .196.008.27.025v-.848c-.515 0-.988.293-1.281.668v-.579h-.857v3.94h.857zm3.319.098c1.06 0 1.64-.53 1.64-1.223 0-.93-.84-1.126-1.526-1.272-.465-.106-.856-.212-.856-.514 0-.277.285-.44.734-.44.49 0 .93.203 1.166.472l.359-.603c-.359-.318-.865-.555-1.533-.555-.995 0-1.55.555-1.55 1.2 0 .88.808 1.06 1.484 1.206.482.106.898.229.898.571 0 .294-.261.481-.775.481s-1.06-.269-1.338-.554l-.391.62c.408.4 1.02.611 1.688.611zm4.012 0c.506 0 .963-.244 1.265-.636v.538h.856v-5.44h-.856v2.048a1.58 1.58 0 00-1.265-.645c-1.019 0-1.753.8-1.753 2.072 0 1.297.742 2.063 1.753 2.063zm.245-.758c-.677 0-1.109-.547-1.109-1.305 0-.767.432-1.313 1.11-1.313.407 0 .823.236 1.019.53v1.566c-.196.293-.612.522-1.02.522zm4.119.758c.521 0 .978-.187 1.272-.522v.424h.856v-2.61c0-1.06-.767-1.427-1.64-1.427-.627 0-1.198.204-1.655.637l.351.595c.343-.334.726-.498 1.166-.498.547 0 .922.278.922.734v.588c-.286-.335-.742-.506-1.272-.506-.645 0-1.37.375-1.37 1.28 0 .873.725 1.305 1.37 1.305zm.334-.587c-.481 0-.84-.277-.84-.701 0-.433.359-.71.84-.71.375 0 .742.139.938.408v.595c-.196.27-.563.408-.938.408zm3.213 2.088c.612-.008 1.085-.22 1.354-.89l1.9-4.648h-.921l-1.15 2.953-1.15-2.953h-.914l1.615 3.988-.196.449c-.114.26-.293.342-.562.342a.895.895 0 01-.327-.065l-.13.767c.122.032.359.057.481.057z" fill="#FF5E16" fill-rule="nonzero"/><path d="M17.899 18.058v-1.32h-3.794c2.294-1.73 3.742-3.14 3.742-4.716 0-1.704-1.448-2.64-3.101-2.64-1.192 0-2.396.461-3.153 1.371l.872.987c.538-.615 1.307-1.025 2.307-1.025.781 0 1.55.41 1.55 1.307 0 1.23-1.294 2.345-4.613 4.857v1.18h6.19zm4.69.154c1.91 0 3.255-1.115 3.255-2.896 0-1.743-1.294-2.756-2.73-2.756-.82 0-1.524.334-1.935.744V10.83h4.101V9.51h-5.6v4.78l1.064.308c.538-.513 1.14-.743 1.87-.743 1.052 0 1.718.602 1.718 1.525 0 .833-.68 1.5-1.756 1.5-.96 0-1.73-.36-2.306-1.013l-.86 1.025c.693.82 1.705 1.32 3.18 1.32z" fill="#333E49" fill-rule="nonzero"/></g><g transform="translate(46.058 53.621)"><rect fill="#FFEBB1" width="61.748" height="40.194" rx="4"/><path d="M12.601 31.456v-4.118l1.664 4.118h.408l1.671-4.118v4.118h.955v-5.44h-1.346l-1.484 3.662-1.476-3.661h-1.346v5.44h.954zm7.61.098c1.263 0 2.03-.938 2.03-2.071 0-1.126-.767-2.064-2.03-2.064-1.249 0-2.023.938-2.023 2.064 0 1.133.774 2.071 2.022 2.071zm0-.758c-.727 0-1.134-.612-1.134-1.313 0-.693.407-1.305 1.133-1.305.734 0 1.142.612 1.142 1.305 0 .701-.408 1.313-1.142 1.313zm3.75.66v-2.748c.196-.27.571-.53 1.012-.53.481 0 .79.204.79.815v2.463h.857v-2.773c0-.807-.424-1.264-1.272-1.264-.62 0-1.125.327-1.386.637v-.539h-.857v3.94h.857zm5.277.098c.506 0 .962-.244 1.264-.636v.538h.856v-5.44h-.856v2.048a1.58 1.58 0 00-1.264-.645c-1.02 0-1.753.8-1.753 2.072 0 1.297.742 2.063 1.753 2.063zm.245-.758c-.677 0-1.11-.547-1.11-1.305 0-.767.433-1.313 1.11-1.313.407 0 .823.236 1.02.53v1.566c-.197.293-.613.522-1.02.522zm4.118.758c.522 0 .979-.187 1.272-.522v.424h.857v-2.61c0-1.06-.767-1.427-1.64-1.427-.627 0-1.198.204-1.655.637l.35.595c.343-.334.726-.498 1.167-.498.546 0 .921.278.921.734v.588c-.285-.335-.742-.506-1.272-.506-.644 0-1.37.375-1.37 1.28 0 .873.726 1.305 1.37 1.305zm.335-.587c-.482 0-.84-.277-.84-.701 0-.433.358-.71.84-.71.375 0 .742.139.937.408v.595c-.195.27-.562.408-.937.408zm3.213 2.088c.611-.008 1.084-.22 1.354-.89l1.9-4.648h-.922l-1.15 2.953-1.15-2.953h-.913l1.615 3.988-.196.449c-.114.26-.294.342-.563.342a.895.895 0 01-.326-.065l-.13.767c.122.032.358.057.48.057z" fill="#FF5E16" fill-rule="nonzero"/><path d="M17.899 18.058v-1.32h-3.794c2.294-1.73 3.742-3.14 3.742-4.716 0-1.704-1.448-2.64-3.101-2.64-1.192 0-2.396.461-3.153 1.371l.872.987c.538-.615 1.307-1.025 2.307-1.025.781 0 1.55.41 1.55 1.307 0 1.23-1.294 2.345-4.613 4.857v1.18h6.19zm7.625 0v-1.32H21.73c2.294-1.73 3.743-3.14 3.743-4.716 0-1.704-1.449-2.64-3.102-2.64-1.192 0-2.396.461-3.152 1.371l.871.987c.538-.615 1.307-1.025 2.307-1.025.782 0 1.55.41 1.55 1.307 0 1.23-1.294 2.345-4.613 4.857v1.18h6.19z" fill="#333E49" fill-rule="nonzero"/></g><path d="M48.46 43.256V36.4H47v6.855h1.46zm2.63 0v-3.34a1.414 1.414 0 011.131-.586c.555 0 .915.236.915.925v3h1.305v-3.504c0-.966-.524-1.582-1.614-1.582-.812 0-1.418.39-1.737.77v-.647h-1.305v4.964h1.305zm6.31.123c.546 0 .895-.144 1.09-.318l-.277-.987c-.072.072-.257.144-.452.144-.288 0-.453-.236-.453-.545v-2.24h1.008v-1.141h-1.008v-1.357h-1.315v1.357h-.822v1.14h.822v2.59c0 .884.493 1.357 1.408 1.357zm4.143 0c.77 0 1.552-.236 2.045-.688l-.576-.843c-.318.308-.863.493-1.325.493-.843 0-1.347-.524-1.429-1.15h3.69v-.289c0-1.623-1.008-2.733-2.488-2.733-1.51 0-2.569 1.16-2.569 2.6 0 1.593 1.14 2.61 2.652 2.61zm1.14-3.073h-2.446c.062-.493.412-1.1 1.223-1.1.864 0 1.193.628 1.223 1.1zm3.515 2.95v-3.279c.216-.318.792-.565 1.223-.565.144 0 .268.02.36.041V38.18c-.617 0-1.233.35-1.583.791v-.678h-1.305v4.964h1.305zm5.088 0l1.994-4.964h-1.408l-1.295 3.453-1.295-3.453h-1.398l1.994 4.964h1.408zm3.227-5.694a.78.78 0 100-1.561.78.78 0 000 1.561zm.658 5.694v-4.964h-1.306v4.964h1.306zm3.628.123c.77 0 1.551-.236 2.045-.688l-.576-.843c-.318.308-.863.493-1.326.493-.842 0-1.346-.524-1.428-1.15h3.69v-.289c0-1.623-1.008-2.733-2.488-2.733-1.51 0-2.569 1.16-2.569 2.6 0 1.593 1.14 2.61 2.652 2.61zm1.14-3.073h-2.446c.062-.493.411-1.1 1.223-1.1.864 0 1.193.628 1.223 1.1zm4.471 2.95l1.048-3.381 1.049 3.38h1.387l1.51-4.963h-1.356l-.925 3.34-1.09-3.34h-1.16l-1.09 3.34-.925-3.34h-1.356l1.51 4.964h1.398zm10.062.123c1.377 0 2.148-.688 2.148-1.593 0-1.233-1.141-1.46-1.994-1.624-.555-.113-.946-.226-.946-.534 0-.288.309-.463.781-.463.607 0 1.172.257 1.47.576l.524-.894a3.17 3.17 0 00-2.004-.678c-1.305 0-2.035.73-2.035 1.562 0 1.182 1.1 1.387 1.953 1.552.565.113.997.236.997.585 0 .309-.267.504-.833.504-.616 0-1.356-.34-1.716-.678l-.565.914c.524.483 1.356.771 2.22.771zm5.426 0c1.018 0 1.634-.442 1.963-.904l-.853-.792a1.253 1.253 0 01-1.048.535c-.791 0-1.346-.586-1.346-1.45 0-.863.555-1.438 1.346-1.438.452 0 .812.185 1.048.534l.853-.801c-.329-.453-.945-.894-1.963-.894-1.531 0-2.63 1.079-2.63 2.6 0 1.531 1.099 2.61 2.63 2.61zm4.122-.123v-3.34c.226-.298.626-.586 1.13-.586.565 0 .925.216.925.904v3.022h1.305V39.73c0-.966-.524-1.562-1.613-1.562-.812 0-1.429.39-1.747.77v-2.538h-1.306v6.855h1.306zm6.988.123c.771 0 1.552-.236 2.045-.688l-.575-.843c-.319.308-.863.493-1.326.493-.843 0-1.346-.524-1.428-1.15h3.69v-.289c0-1.623-1.008-2.733-2.488-2.733-1.51 0-2.57 1.16-2.57 2.6 0 1.593 1.141 2.61 2.652 2.61zm1.141-3.073h-2.446c.062-.493.411-1.1 1.223-1.1.863 0 1.192.628 1.223 1.1zm4.09 3.073c.597 0 1.141-.267 1.532-.76v.637h1.315V36.4h-1.315v2.528a1.912 1.912 0 00-1.532-.76c-1.264 0-2.199.986-2.199 2.61 0 1.655.946 2.6 2.2 2.6zm.401-1.161c-.74 0-1.254-.586-1.254-1.439 0-.863.514-1.45 1.254-1.45.442 0 .915.237 1.13.566v1.758c-.215.329-.688.565-1.13.565zm5.345 1.161c.812 0 1.408-.37 1.747-.75v.627h1.305v-4.964h-1.305v3.36a1.461 1.461 0 01-1.13.566c-.556 0-.915-.226-.915-.915v-3.011h-1.306v3.525c0 .966.514 1.562 1.604 1.562zm5.652-.123V36.4h-1.305v6.855h1.305zm3.628.123c.771 0 1.552-.236 2.045-.688l-.575-.843c-.319.308-.863.493-1.326.493-.843 0-1.346-.524-1.429-1.15h3.69v-.289c0-1.623-1.007-2.733-2.487-2.733-1.51 0-2.57 1.16-2.57 2.6 0 1.593 1.141 2.61 2.652 2.61zm1.141-3.073h-2.446c.062-.493.411-1.1 1.223-1.1.863 0 1.192.628 1.223 1.1zm6.249 3.073c.647 0 1.233-.236 1.572-.637v.514h1.305v-3.207c0-1.428-1.038-1.88-2.168-1.88-.781 0-1.562.246-2.169.78l.494.874c.421-.39.914-.586 1.449-.586.657 0 1.09.33 1.09.833v.688c-.33-.4-.916-.606-1.573-.606-.792 0-1.727.421-1.727 1.583 0 1.11.935 1.644 1.727 1.644zm.524-.884c-.514 0-.935-.267-.935-.73 0-.482.421-.75.935-.75.421 0 .832.144 1.048.432v.617c-.216.287-.627.431-1.048.431zm4.954.76v-3.34a1.414 1.414 0 011.13-.585c.555 0 .915.236.915.925v3h1.305v-3.504c0-.966-.524-1.582-1.614-1.582-.811 0-1.418.39-1.736.77v-.647h-1.306v4.964h1.306zm6.526.124c.596 0 1.14-.267 1.531-.76v.637h1.316V36.4h-1.316v2.528a1.912 1.912 0 00-1.531-.76c-1.264 0-2.2.986-2.2 2.61 0 1.655.946 2.6 2.2 2.6zm.4-1.161c-.74 0-1.253-.586-1.253-1.439 0-.863.514-1.45 1.254-1.45.442 0 .914.237 1.13.566v1.758c-.216.329-.688.565-1.13.565zm8.038 1.161c.544 0 .894-.144 1.089-.318l-.277-.987c-.072.072-.257.144-.453.144-.287 0-.452-.236-.452-.545v-2.24h1.007v-1.141h-1.007v-1.357h-1.315v1.357h-.823v1.14h.823v2.59c0 .884.493 1.357 1.408 1.357zm2.456-5.817a.78.78 0 100-1.561.78.78 0 000 1.561zm.658 5.694v-4.964h-1.306v4.964h1.306zm2.6 0v-3.34c.195-.278.575-.586 1.028-.586.534 0 .74.329.74.791v3.135h1.315v-3.35c.185-.268.565-.576 1.028-.576.534 0 .74.329.74.791v3.135h1.315v-3.587c0-1.017-.544-1.5-1.459-1.5-.76 0-1.418.452-1.706.904-.185-.565-.648-.904-1.377-.904-.76 0-1.419.472-1.624.77v-.647h-1.305v4.964h1.305zm9.784.123c.77 0 1.552-.236 2.045-.688l-.575-.843c-.319.308-.864.493-1.326.493-.843 0-1.346-.524-1.429-1.15H177v-.289c0-1.623-1.007-2.733-2.487-2.733-1.51 0-2.57 1.16-2.57 2.6 0 1.593 1.141 2.61 2.652 2.61zm1.14-3.073h-2.445c.061-.493.41-1.1 1.223-1.1.863 0 1.192.628 1.223 1.1z" fill="#42505D" fill-rule="nonzero"/><g><g transform="translate(67 157)"><use fill="#000" filter="url(#c)" xlink:href="#d"/><use fill="#FFF" xlink:href="#d"/></g><path d="M67 189.133h303V351a8 8 0 01-8 8H75a8 8 0 01-8-8V189.133z" fill="#F9F9F9"/><path stroke="#E9EDEF" d="M85.2 270.994H350.68"/><path d="M86.284 247.93l.571-.79c.405.43 1.037.807 1.854.807.844 0 1.178-.413 1.178-.8 0-.526-.624-.684-1.336-.869-.957-.237-2.082-.518-2.082-1.757 0-.967.852-1.714 2.135-1.714.914 0 1.652.29 2.197.817l-.59.765c-.456-.457-1.08-.668-1.695-.668-.606 0-.993.29-.993.73 0 .456.598.606 1.292.781.966.246 2.117.545 2.117 1.82 0 .975-.685 1.81-2.267 1.81-1.08 0-1.862-.379-2.38-.932zm5.307-1.3c0-1.23.897-2.224 2.153-2.224 1.274 0 2.091.976 2.091 2.311v.22h-3.277c.07.641.553 1.169 1.353 1.169.413 0 .905-.167 1.204-.466l.422.606c-.422.404-1.046.615-1.723.615-1.274 0-2.223-.887-2.223-2.232zm2.153-1.468c-.79 0-1.15.606-1.195 1.125h2.39c-.018-.501-.36-1.125-1.195-1.125zm3.005 3.594v-4.244h.923v.624c.316-.404.826-.72 1.38-.72v.913a1.36 1.36 0 00-.29-.026c-.387 0-.906.263-1.09.562v2.89h-.923zm4.165 0l-1.731-4.244h.984l1.239 3.18 1.239-3.18h.993l-1.731 4.244h-.993zm3.76-4.947a.576.576 0 01-.57-.571.57.57 0 11.571.571zm-.456 4.947v-4.244h.922v4.244h-.922zm1.854-2.127c0-1.282.905-2.223 2.196-2.223.826 0 1.327.352 1.626.756l-.607.562a1.133 1.133 0 00-.975-.5c-.773 0-1.283.58-1.283 1.405 0 .826.51 1.415 1.283 1.415.413 0 .738-.176.975-.5l.607.562c-.3.404-.8.755-1.626.755-1.291 0-2.196-.94-2.196-2.232zm4.366 0c0-1.23.897-2.223 2.153-2.223 1.274 0 2.091.976 2.091 2.311v.22h-3.277c.07.641.554 1.169 1.353 1.169.413 0 .905-.167 1.204-.466l.422.606c-.422.404-1.046.615-1.723.615-1.274 0-2.223-.887-2.223-2.232zm2.153-1.467c-.79 0-1.15.606-1.195 1.125h2.39c-.017-.501-.36-1.125-1.195-1.125zm5.29 3.594v-5.86h2.179c1.827 0 3.066 1.212 3.066 2.934 0 1.722-1.239 2.926-3.066 2.926h-2.18zm1.028-.905h1.15c1.275 0 2.013-.914 2.013-2.021 0-1.134-.703-2.03-2.012-2.03h-1.151v4.05zm4.92-1.222c0-1.23.896-2.223 2.153-2.223 1.274 0 2.09.976 2.09 2.311v.22h-3.276c.07.641.553 1.169 1.353 1.169.413 0 .905-.167 1.203-.466l.422.606c-.422.404-1.045.615-1.722.615-1.274 0-2.223-.887-2.223-2.232zm2.153-1.467c-.791 0-1.151.606-1.195 1.125h2.39c-.018-.501-.36-1.125-1.195-1.125zm4.12 3.594l-1.73-4.244h.984l1.239 3.18 1.239-3.18h.992l-1.73 4.244h-.993zm3.04-2.127c0-1.23.897-2.223 2.153-2.223 1.274 0 2.092.976 2.092 2.311v.22h-3.278c.07.641.554 1.169 1.353 1.169.413 0 .905-.167 1.204-.466l.422.606c-.422.404-1.046.615-1.722.615-1.274 0-2.223-.887-2.223-2.232zm2.153-1.467c-.79 0-1.15.606-1.195 1.125h2.39c-.017-.501-.36-1.125-1.195-1.125zm3.005 3.594v-5.86h.923v5.86h-.923zm4.033.105c-1.344 0-2.179-1.01-2.179-2.232 0-1.212.835-2.223 2.18-2.223 1.361 0 2.187 1.01 2.187 2.223 0 1.222-.826 2.232-2.188 2.232zm0-.817c.791 0 1.23-.659 1.23-1.415 0-.746-.439-1.405-1.23-1.405-.782 0-1.22.659-1.22 1.405 0 .756.438 1.415 1.22 1.415zm4.042 2.329h-.922v-5.861h.922v.58a1.693 1.693 0 011.362-.686c1.098 0 1.88.826 1.88 2.223 0 1.398-.782 2.232-1.88 2.232-.536 0-1.02-.237-1.362-.694v2.206zm2.285-3.744c0-.817-.466-1.405-1.195-1.405-.43 0-.888.254-1.09.57v1.679c.202.307.66.571 1.09.571.729 0 1.195-.589 1.195-1.415zm7.09 2.127v-2.768c0-.457-.202-.764-.694-.764-.413 0-.8.29-.984.562v2.97h-.922v-2.768c0-.457-.202-.764-.703-.764-.404 0-.782.29-.976.57v2.962h-.922v-4.244h.922v.58c.176-.264.738-.686 1.38-.686.633 0 1.02.317 1.16.782.246-.386.808-.782 1.44-.782.783 0 1.222.422 1.222 1.283v3.067h-.923zm1.854-2.127c0-1.23.897-2.223 2.153-2.223 1.274 0 2.091.976 2.091 2.311v.22h-3.277c.07.641.553 1.169 1.353 1.169.413 0 .905-.167 1.204-.466l.422.606c-.422.404-1.046.615-1.723.615-1.274 0-2.223-.887-2.223-2.232zm2.153-1.467c-.79 0-1.151.606-1.195 1.125h2.39c-.018-.501-.36-1.125-1.195-1.125zm5.87 3.594v-2.654c0-.659-.334-.878-.853-.878-.474 0-.878.28-1.09.57v2.962h-.922v-4.244h.923v.58a2.008 2.008 0 011.493-.686c.914 0 1.371.493 1.371 1.362v2.988h-.923zm3.391.105c-.712 0-1.09-.386-1.09-1.09v-2.45h-.702v-.81h.703v-1.159h.922v1.16h.861v.808h-.86v2.223c0 .29.14.501.403.501.176 0 .343-.07.413-.15l.22.695c-.167.158-.44.272-.87.272zm-77.295 10.564v-4.437l-1.801 4.437h-.44l-1.792-4.437v4.437h-1.028v-5.86h1.45l1.59 3.945 1.6-3.945h1.45v5.86h-1.029zm4.842 0v-.457c-.317.36-.809.563-1.371.563-.694 0-1.476-.466-1.476-1.406 0-.976.782-1.38 1.476-1.38.571 0 1.063.185 1.37.545v-.633c0-.492-.404-.79-.992-.79-.475 0-.888.175-1.257.536l-.378-.642c.492-.466 1.107-.685 1.784-.685.94 0 1.766.395 1.766 1.537v2.812h-.922zm0-.966v-.642c-.211-.29-.607-.44-1.01-.44-.52 0-.906.3-.906.765 0 .457.387.756.905.756.404 0 .8-.15 1.01-.44zm4.981.966v-2.653c0-.66-.333-.879-.852-.879-.474 0-.878.281-1.09.571v2.961h-.922v-4.244h.923v.58a2.008 2.008 0 011.493-.685c.914 0 1.371.492 1.371 1.362v2.987h-.923zm4.71 0v-.457c-.316.36-.808.563-1.37.563-.695 0-1.477-.466-1.477-1.406 0-.976.782-1.38 1.476-1.38.571 0 1.064.185 1.371.545v-.633c0-.492-.404-.79-.993-.79-.474 0-.887.175-1.256.536l-.378-.642c.492-.466 1.107-.685 1.784-.685.94 0 1.766.395 1.766 1.537v2.812h-.923zm0-.966v-.642c-.21-.29-.606-.44-1.01-.44-.519 0-.905.3-.905.765 0 .457.386.756.905.756.404 0 .8-.15 1.01-.44zm2.065 2.056l.43-.668c.343.395.782.545 1.345.545.606 0 1.256-.282 1.256-1.151v-.51c-.325.422-.808.703-1.362.703-1.08 0-1.88-.782-1.88-2.18 0-1.37.79-2.178 1.88-2.178.536 0 1.02.246 1.362.694v-.589h.923v4.024c0 1.53-1.134 1.942-2.18 1.942-.72 0-1.256-.158-1.774-.632zm3.031-2.47v-1.58c-.202-.317-.659-.572-1.09-.572-.729 0-1.194.545-1.194 1.362 0 .817.465 1.362 1.195 1.362.43 0 .887-.255 1.09-.571zm1.854-.746c0-1.23.896-2.223 2.153-2.223 1.274 0 2.091.975 2.091 2.31v.22h-3.277c.07.642.553 1.169 1.353 1.169.413 0 .905-.167 1.204-.466l.421.607c-.421.404-1.045.615-1.722.615-1.274 0-2.223-.888-2.223-2.232zm2.153-1.468c-.79 0-1.151.607-1.195 1.125h2.39c-.018-.5-.36-1.125-1.195-1.125zm3.005 3.594v-4.244h.922v.624c.317-.404.826-.72 1.38-.72v.913a1.36 1.36 0 00-.29-.026c-.387 0-.905.264-1.09.562v2.891h-.922z" fill="#333E49" fill-rule="nonzero"/><path fill="#D4E4E2" d="M185.618 252.521h27.124v-2.51h-27.124zM222.019 252.521h27.124v-2.51h-27.124zM258.42 252.521h27.124v-2.51H258.42z"/><path d="M86.284 327.008l.571-.79c.405.43 1.037.808 1.854.808.844 0 1.178-.413 1.178-.8 0-.527-.624-.685-1.336-.87-.957-.237-2.082-.518-2.082-1.757 0-.966.852-1.713 2.135-1.713.914 0 1.652.29 2.197.817l-.59.764c-.456-.456-1.08-.667-1.695-.667-.606 0-.993.29-.993.729 0 .457.598.606 1.292.782.966.246 2.117.545 2.117 1.819 0 .975-.685 1.81-2.267 1.81-1.08 0-1.862-.378-2.38-.932zm5.307-1.3c0-1.23.897-2.223 2.153-2.223 1.274 0 2.091.975 2.091 2.31v.22h-3.277c.07.642.553 1.17 1.353 1.17.413 0 .905-.168 1.204-.467l.422.607c-.422.404-1.046.615-1.723.615-1.274 0-2.223-.888-2.223-2.232zm2.153-1.467c-.79 0-1.15.606-1.195 1.124h2.39c-.018-.5-.36-1.124-1.195-1.124zm5.87 3.593v-2.653c0-.66-.334-.879-.853-.879-.474 0-.878.281-1.09.571v2.961h-.922v-4.244h.923v.58a2.008 2.008 0 011.493-.685c.914 0 1.371.492 1.371 1.362v2.987h-.923zm2.574-4.946a.576.576 0 01-.571-.572.57.57 0 11.571.571zm-.457 4.946v-4.244h.923v4.244h-.923zm4.033.106c-1.344 0-2.179-1.01-2.179-2.232 0-1.213.835-2.223 2.179-2.223 1.362 0 2.188 1.01 2.188 2.223 0 1.221-.826 2.232-2.188 2.232zm0-.817c.79 0 1.23-.66 1.23-1.415 0-.747-.44-1.406-1.23-1.406-.782 0-1.221.66-1.221 1.406 0 .756.439 1.415 1.221 1.415zm3.12.711v-4.244h.922v.624c.316-.404.826-.72 1.38-.72v.914a1.36 1.36 0 00-.29-.027c-.387 0-.906.264-1.09.563v2.89h-.923zm10.394 0v-4.437l-1.802 4.437h-.439l-1.792-4.437v4.437h-1.028v-5.86h1.45l1.59 3.945 1.599-3.945h1.45v5.86h-1.028zm4.841 0v-.457c-.316.36-.808.563-1.37.563-.695 0-1.477-.466-1.477-1.406 0-.975.782-1.38 1.476-1.38.571 0 1.063.185 1.371.545v-.632c0-.492-.404-.791-.993-.791-.474 0-.887.176-1.256.536l-.378-.642c.492-.465 1.107-.685 1.784-.685.94 0 1.766.395 1.766 1.538v2.811h-.923zm0-.966v-.642c-.21-.29-.606-.439-1.01-.439-.519 0-.905.299-.905.764 0 .457.386.756.905.756.404 0 .8-.15 1.01-.44zm2.118.966v-4.244h.922v.624c.316-.404.826-.72 1.38-.72v.914a1.36 1.36 0 00-.29-.027c-.387 0-.905.264-1.09.563v2.89h-.922zm5.86 0l-1.3-1.748-.589.606v1.142h-.923v-5.86h.923v3.664l1.872-2.048h1.142l-1.766 1.925 1.801 2.32h-1.16zm1.547-2.126c0-1.23.896-2.223 2.152-2.223 1.274 0 2.091.975 2.091 2.31v.22h-3.277c.07.642.554 1.17 1.353 1.17.413 0 .905-.168 1.204-.467l.422.607c-.422.404-1.046.615-1.722.615-1.274 0-2.223-.888-2.223-2.232zm2.152-1.467c-.79 0-1.15.606-1.195 1.124h2.39c-.017-.5-.36-1.124-1.195-1.124zm4.28 3.699c-.712 0-1.09-.387-1.09-1.09V324.4h-.703v-.809h.703v-1.16h.922v1.16h.861v.809h-.86v2.223c0 .29.14.5.404.5.175 0 .342-.07.413-.149l.22.694c-.168.159-.44.273-.87.273zm1.985-5.052a.576.576 0 01-.571-.572.57.57 0 11.571.571zm-.457 4.946v-4.244h.923v4.244h-.923zm4.982 0v-2.653c0-.66-.334-.879-.852-.879-.475 0-.879.281-1.09.571v2.961h-.922v-4.244h.922v.58a2.008 2.008 0 011.494-.685c.914 0 1.37.492 1.37 1.362v2.987h-.922zm2.065 1.09l.43-.668c.343.395.782.545 1.345.545.606 0 1.256-.281 1.256-1.151v-.51c-.325.422-.808.703-1.362.703-1.08 0-1.88-.782-1.88-2.179 0-1.37.79-2.179 1.88-2.179.536 0 1.02.246 1.362.694v-.589h.923v4.025c0 1.528-1.134 1.941-2.18 1.941-.72 0-1.256-.158-1.774-.632zm3.031-2.47v-1.58c-.202-.317-.659-.572-1.09-.572-.729 0-1.194.545-1.194 1.362 0 .817.465 1.362 1.195 1.362.43 0 .887-.255 1.09-.571zm-59.959 12.05v-4.438l-1.801 4.438h-.44l-1.792-4.438v4.438h-1.028v-5.861h1.45l1.59 3.945 1.6-3.945h1.45v5.86h-1.029zm4.842 0v-.457c-.317.36-.809.562-1.371.562-.694 0-1.476-.466-1.476-1.406 0-.975.782-1.38 1.476-1.38.571 0 1.063.185 1.37.546v-.633c0-.492-.404-.79-.992-.79-.475 0-.888.175-1.257.535l-.378-.641c.492-.466 1.107-.686 1.784-.686.94 0 1.766.396 1.766 1.538v2.812h-.922zm0-.967v-.641c-.211-.29-.607-.44-1.01-.44-.52 0-.906.3-.906.765 0 .457.387.755.905.755.404 0 .8-.149 1.01-.439zm4.981.967v-2.654c0-.659-.333-.879-.852-.879-.474 0-.878.282-1.09.572v2.96h-.922v-4.243h.923v.58a2.008 2.008 0 011.493-.686c.914 0 1.371.492 1.371 1.362v2.988h-.923zm4.71 0v-.457c-.316.36-.808.562-1.37.562-.695 0-1.477-.466-1.477-1.406 0-.975.782-1.38 1.476-1.38.571 0 1.064.185 1.371.546v-.633c0-.492-.404-.79-.993-.79-.474 0-.887.175-1.256.535l-.378-.641c.492-.466 1.107-.686 1.784-.686.94 0 1.766.396 1.766 1.538v2.812h-.923zm0-.967v-.641c-.21-.29-.606-.44-1.01-.44-.519 0-.905.3-.905.765 0 .457.386.755.905.755.404 0 .8-.149 1.01-.439zm2.065 2.056l.43-.668c.343.396.782.545 1.345.545.606 0 1.256-.281 1.256-1.15v-.51c-.325.421-.808.702-1.362.702-1.08 0-1.88-.782-1.88-2.179 0-1.37.79-2.179 1.88-2.179.536 0 1.02.246 1.362.694v-.588h.923v4.024c0 1.529-1.134 1.942-2.18 1.942-.72 0-1.256-.158-1.774-.633zm3.031-2.469v-1.581c-.202-.317-.659-.572-1.09-.572-.729 0-1.194.545-1.194 1.362 0 .818.465 1.362 1.195 1.362.43 0 .887-.255 1.09-.57zm1.854-.747c0-1.23.896-2.223 2.153-2.223 1.274 0 2.091.976 2.091 2.311v.22h-3.277c.07.641.553 1.168 1.353 1.168.413 0 .905-.167 1.204-.465l.421.606c-.421.404-1.045.615-1.722.615-1.274 0-2.223-.887-2.223-2.232zm2.153-1.467c-.79 0-1.151.606-1.195 1.125h2.39c-.018-.501-.36-1.125-1.195-1.125zm3.005 3.594v-4.244h.922v.624c.317-.405.826-.72 1.38-.72v.913a1.36 1.36 0 00-.29-.026c-.387 0-.905.263-1.09.562v2.89h-.922z" fill="#333E49" fill-rule="nonzero"/><path fill="#D4E4E2" d="M185.618 331.6h27.124v-2.51h-27.124zM222.019 331.6h27.124v-2.51h-27.124zM258.42 331.6h27.124v-2.51H258.42z"/><path stroke="#E9EDEF" d="M85.2 231.455H350.68"/><path d="M86.662 213.61v-5.86h2.18c1.827 0 3.066 1.212 3.066 2.934 0 1.722-1.24 2.926-3.067 2.926h-2.179zm1.028-.905h1.151c1.274 0 2.012-.914 2.012-2.021 0-1.134-.703-2.03-2.012-2.03h-1.15v4.05zm4.92-1.222c0-1.23.897-2.223 2.153-2.223 1.274 0 2.092.976 2.092 2.311v.22h-3.278c.07.641.554 1.169 1.353 1.169.413 0 .905-.167 1.204-.466l.422.606c-.422.404-1.046.615-1.722.615-1.274 0-2.223-.887-2.223-2.232zm2.153-1.467c-.79 0-1.15.606-1.195 1.125h2.39c-.017-.501-.36-1.125-1.195-1.125zm2.636 3.04l.422-.668c.299.308.887.598 1.441.598s.835-.202.835-.518c0-.37-.448-.501-.967-.616-.73-.158-1.599-.351-1.599-1.3 0-.694.598-1.292 1.67-1.292.72 0 1.265.255 1.651.598l-.386.65c-.255-.29-.73-.51-1.257-.51-.483 0-.79.176-.79.475 0 .325.421.44.922.554.738.158 1.643.369 1.643 1.37 0 .747-.624 1.318-1.766 1.318-.72 0-1.38-.228-1.819-.659zm4.973-4.393a.576.576 0 01-.57-.571.57.57 0 11.571.571zm-.456 4.947v-4.244h.922v4.244h-.922zm2.064 1.09l.43-.668c.344.395.783.544 1.345.544.606 0 1.257-.28 1.257-1.15v-.51c-.325.421-.809.703-1.362.703-1.08 0-1.88-.782-1.88-2.18 0-1.37.79-2.179 1.88-2.179.536 0 1.019.247 1.362.695v-.59h.922v4.025c0 1.529-1.133 1.942-2.179 1.942-.72 0-1.256-.158-1.775-.633zm3.032-2.47v-1.581c-.202-.317-.66-.571-1.09-.571-.73 0-1.195.544-1.195 1.362 0 .817.466 1.361 1.195 1.361.43 0 .888-.254 1.09-.57zm4.982 1.38v-2.654c0-.659-.334-.878-.853-.878-.474 0-.878.28-1.09.57v2.962h-.922v-4.244h.923v.58a2.008 2.008 0 011.494-.686c.913 0 1.37.493 1.37 1.362v2.988h-.922zm4.402 0v-5.86h4.015v.904h-2.987v1.52h2.926v.905h-2.926v1.626h2.987v.905h-4.015zm7.908 0v-2.654c0-.659-.334-.878-.853-.878-.474 0-.878.28-1.09.57v2.962h-.922v-4.244h.923v.58a2.008 2.008 0 011.493-.686c.914 0 1.371.493 1.371 1.362v2.988h-.922zm2.064 1.09l.43-.668c.344.395.783.544 1.345.544.607 0 1.257-.28 1.257-1.15v-.51c-.325.421-.809.703-1.362.703-1.08 0-1.88-.782-1.88-2.18 0-1.37.79-2.179 1.88-2.179.536 0 1.019.247 1.362.695v-.59h.922v4.025c0 1.529-1.133 1.942-2.179 1.942-.72 0-1.256-.158-1.775-.633zm3.032-2.47v-1.581c-.202-.317-.66-.571-1.09-.571-.73 0-1.195.544-1.195 1.362 0 .817.466 1.361 1.195 1.361.43 0 .888-.254 1.09-.57zm2.574-3.567a.576.576 0 01-.571-.571.57.57 0 11.571.571zm-.457 4.947v-4.244h.923v4.244h-.923zm4.982 0v-2.654c0-.659-.334-.878-.852-.878-.475 0-.879.28-1.09.57v2.962h-.922v-4.244h.922v.58a2.008 2.008 0 011.494-.686c.914 0 1.37.493 1.37 1.362v2.988h-.922zm1.854-2.127c0-1.23.896-2.223 2.153-2.223 1.274 0 2.091.976 2.091 2.311v.22h-3.277c.07.641.553 1.169 1.353 1.169.413 0 .905-.167 1.204-.466l.421.606c-.421.404-1.045.615-1.722.615-1.274 0-2.223-.887-2.223-2.232zm2.153-1.467c-.79 0-1.151.606-1.195 1.125h2.39c-.018-.501-.36-1.125-1.195-1.125zm2.741 1.467c0-1.23.896-2.223 2.153-2.223 1.274 0 2.091.976 2.091 2.311v.22h-3.277c.07.641.553 1.169 1.353 1.169.413 0 .905-.167 1.204-.466l.421.606c-.421.404-1.045.615-1.722.615-1.274 0-2.223-.887-2.223-2.232zm2.153-1.467c-.79 0-1.151.606-1.195 1.125h2.39c-.018-.501-.36-1.125-1.195-1.125zm3.005 3.594v-4.244h.922v.624c.317-.404.826-.72 1.38-.72v.913a1.36 1.36 0 00-.29-.026c-.387 0-.905.263-1.09.562v2.89h-.922z" fill="#333E49" fill-rule="nonzero"/><path fill="#D4E4E2" d="M185.618 212.982h27.124v-2.51h-27.124zM222.019 212.982h27.124v-2.51h-27.124zM258.42 212.982h27.124v-2.51H258.42z"/><g><path stroke="#E9EDEF" d="M85.2 310.533H350.68"/><path d="M86.662 292.688v-5.86h2.575c1.23 0 1.915.843 1.915 1.836 0 .993-.694 1.836-1.915 1.836H87.69v2.188h-1.028zm3.436-4.024c0-.562-.422-.931-1.002-.931H87.69v1.862h1.406c.58 0 1.002-.369 1.002-.93zm1.88 4.024v-4.244h.923v.624c.316-.404.826-.72 1.38-.72v.914a1.36 1.36 0 00-.29-.027c-.388 0-.906.264-1.09.563v2.89h-.923zm4.964.106c-1.344 0-2.179-1.01-2.179-2.232 0-1.213.835-2.223 2.18-2.223 1.361 0 2.187 1.01 2.187 2.223 0 1.221-.826 2.232-2.188 2.232zm0-.817c.791 0 1.23-.66 1.23-1.415 0-.747-.439-1.406-1.23-1.406-.782 0-1.221.66-1.221 1.406 0 .756.44 1.415 1.221 1.415zm3.067 1.8l.43-.667c.343.395.782.545 1.345.545.606 0 1.256-.281 1.256-1.151v-.51c-.325.422-.808.703-1.362.703-1.08 0-1.88-.782-1.88-2.179 0-1.37.79-2.179 1.88-2.179.536 0 1.02.246 1.362.694v-.589h.923v4.025c0 1.528-1.134 1.941-2.18 1.941-.72 0-1.256-.158-1.774-.632zm3.031-2.468v-1.582c-.202-.316-.659-.57-1.09-.57-.729 0-1.194.544-1.194 1.361s.465 1.362 1.195 1.362c.43 0 .887-.255 1.09-.571zm2.118 1.38v-4.245h.922v.624c.317-.404.826-.72 1.38-.72v.914a1.36 1.36 0 00-.29-.027c-.387 0-.905.264-1.09.563v2.89h-.922zm5.64 0v-.458c-.316.36-.808.563-1.37.563-.694 0-1.476-.466-1.476-1.406 0-.975.782-1.38 1.476-1.38.571 0 1.063.185 1.37.545v-.632c0-.492-.403-.791-.992-.791-.475 0-.888.176-1.257.536l-.377-.642c.492-.465 1.107-.685 1.783-.685.94 0 1.766.395 1.766 1.538v2.811h-.922zm0-.967v-.642c-.21-.29-.606-.439-1.01-.439-.518 0-.905.299-.905.764 0 .457.387.756.905.756.404 0 .8-.15 1.01-.44zm7.32.966v-2.767c0-.457-.202-.765-.694-.765-.413 0-.8.29-.984.562v2.97h-.923v-2.767c0-.457-.202-.765-.703-.765-.404 0-.782.29-.975.571v2.961h-.923v-4.244h.923v.58c.176-.263.738-.685 1.38-.685.632 0 1.019.316 1.16.782.245-.387.807-.782 1.44-.782.782 0 1.221.422 1.221 1.283v3.066h-.922zm9.463 0v-4.437l-1.801 4.437h-.44l-1.792-4.437v4.437h-1.028v-5.86h1.45l1.59 3.945 1.6-3.945h1.449v5.86h-1.028zm4.841 0v-.457c-.316.36-.808.563-1.37.563-.695 0-1.477-.466-1.477-1.406 0-.975.782-1.38 1.477-1.38.57 0 1.063.185 1.37.545v-.632c0-.492-.404-.791-.993-.791-.474 0-.887.176-1.256.536l-.378-.642c.492-.465 1.107-.685 1.784-.685.94 0 1.766.395 1.766 1.538v2.811h-.923zm0-.966v-.642c-.21-.29-.606-.439-1.01-.439-.519 0-.905.299-.905.764 0 .457.386.756.905.756.404 0 .8-.15 1.01-.44zm4.982.966v-2.653c0-.66-.334-.879-.852-.879-.475 0-.879.281-1.09.571v2.961h-.922v-4.244h.922v.58a2.008 2.008 0 011.494-.685c.914 0 1.37.492 1.37 1.362v2.987h-.922zm4.71 0v-.457c-.317.36-.809.563-1.37.563-.695 0-1.477-.466-1.477-1.406 0-.975.782-1.38 1.476-1.38.571 0 1.063.185 1.37.545v-.632c0-.492-.403-.791-.992-.791-.475 0-.888.176-1.257.536l-.377-.642c.492-.465 1.107-.685 1.783-.685.94 0 1.766.395 1.766 1.538v2.811h-.922zm0-.966v-.642c-.211-.29-.606-.439-1.01-.439-.52 0-.906.299-.906.764 0 .457.387.756.905.756.405 0 .8-.15 1.01-.44zm2.065 2.056l.43-.668c.343.395.782.545 1.344.545.607 0 1.257-.281 1.257-1.151v-.51c-.325.422-.808.703-1.362.703-1.08 0-1.88-.782-1.88-2.179 0-1.37.79-2.179 1.88-2.179.536 0 1.02.246 1.362.694v-.589h.923v4.025c0 1.528-1.134 1.941-2.18 1.941-.72 0-1.256-.158-1.774-.632zm3.03-2.47v-1.58c-.201-.317-.658-.572-1.089-.572-.729 0-1.195.545-1.195 1.362 0 .817.466 1.362 1.195 1.362.431 0 .888-.255 1.09-.571zm1.855-.746c0-1.23.896-2.223 2.153-2.223 1.274 0 2.09.975 2.09 2.31v.22h-3.277c.07.642.554 1.17 1.354 1.17.412 0 .905-.168 1.203-.467l.422.607c-.422.404-1.046.615-1.722.615-1.274 0-2.223-.888-2.223-2.232zm2.153-1.467c-.791 0-1.151.606-1.195 1.124h2.39c-.018-.5-.36-1.124-1.195-1.124zm3.005 3.593v-4.244h.922v.624c.316-.404.826-.72 1.38-.72v.914a1.36 1.36 0 00-.29-.027c-.387 0-.905.264-1.09.563v2.89h-.922z" fill="#333E49" fill-rule="nonzero"/><path fill="#D4E4E2" d="M185.618 292.06h27.124v-2.51h-27.124zM222.019 292.06h27.124v-2.51h-27.124zM258.42 292.06h27.124v-2.51H258.42z"/></g><path d="M84.016 176.071l.474-.782c.237.255.554.484 1.002.484.632 0 1.028-.422 1.028-1.064v-3.989h1.028v4.007c0 1.336-.844 1.96-1.977 1.96-.606 0-1.142-.176-1.555-.616zm6.669.615c-1.345 0-2.18-1.01-2.18-2.231 0-1.213.835-2.223 2.18-2.223 1.362 0 2.187 1.01 2.187 2.223 0 1.221-.825 2.231-2.187 2.231zm0-.817c.79 0 1.23-.659 1.23-1.414 0-.747-.44-1.406-1.23-1.406-.782 0-1.222.659-1.222 1.406 0 .755.44 1.414 1.222 1.414zm3.119.712v-5.86h.922v2.205a1.678 1.678 0 011.362-.694c1.09 0 1.88.86 1.88 2.231 0 1.397-.799 2.223-1.88 2.223a1.706 1.706 0 01-1.362-.685v.58h-.922zm.922-1.274c.203.316.66.562 1.09.562.738 0 1.204-.58 1.204-1.406s-.466-1.414-1.204-1.414c-.43 0-.887.263-1.09.58v1.678zm3.814.72l.422-.667c.298.307.887.597 1.44.597.554 0 .835-.202.835-.518 0-.37-.448-.501-.966-.615-.73-.158-1.6-.352-1.6-1.3 0-.695.598-1.292 1.67-1.292.72 0 1.265.254 1.652.597l-.387.65c-.255-.29-.729-.51-1.256-.51-.483 0-.791.176-.791.475 0 .325.422.44.923.554.738.158 1.643.369 1.643 1.37 0 .747-.624 1.318-1.766 1.318-.72 0-1.38-.228-1.82-.659z" fill="#C4CFDE" fill-rule="nonzero"/><g><path d="M118.771 176.581v-2.557h-3.049v2.557h-1.028v-5.86h1.028v2.398h3.05v-2.399h1.027v5.861h-1.028zm2.707-4.947a.576.576 0 01-.572-.571c0-.316.264-.571.572-.571a.57.57 0 110 1.142zm-.457 4.947v-4.244h.922v4.244h-.922zm2.117 0v-4.244h.923v.624c.316-.404.826-.72 1.38-.72v.913a1.36 1.36 0 00-.29-.026c-.387 0-.906.263-1.09.562v2.891h-.923zm3.506-4.947a.576.576 0 01-.571-.571.57.57 0 11.571.571zm-.457 4.947v-4.244h.923v4.244h-.923zm4.982 0v-2.654c0-.659-.334-.878-.852-.878-.475 0-.879.281-1.09.57v2.962h-.922v-4.244h.922v.58a2.008 2.008 0 011.494-.685c.914 0 1.37.492 1.37 1.362v2.987h-.922zm2.065 1.09l.43-.668c.343.395.782.544 1.345.544.606 0 1.256-.28 1.256-1.15v-.51c-.325.422-.808.703-1.362.703-1.08 0-1.88-.782-1.88-2.18 0-1.37.79-2.178 1.88-2.178.536 0 1.02.246 1.362.694v-.589h.923v4.024c0 1.53-1.134 1.942-2.18 1.942-.72 0-1.256-.158-1.774-.633zm3.031-2.47v-1.581c-.202-.316-.659-.571-1.09-.571-.729 0-1.194.545-1.194 1.362 0 .817.465 1.362 1.195 1.362.43 0 .887-.255 1.09-.572zm4.402 1.38v-5.86h2.575c1.23 0 1.915.843 1.915 1.836 0 .993-.694 1.836-1.915 1.836h-1.547v2.188h-1.028zm3.436-4.024c0-.563-.422-.932-1.002-.932h-1.406v1.863h1.406c.58 0 1.002-.369 1.002-.931zm1.88 4.024v-5.86h.923v5.86h-.923zm4.71 0v-.457c-.317.36-.809.562-1.371.562-.694 0-1.476-.465-1.476-1.405 0-.976.782-1.38 1.476-1.38.571 0 1.063.185 1.37.545v-.633c0-.492-.404-.79-.992-.79-.475 0-.888.175-1.257.535l-.377-.641c.492-.466 1.107-.685 1.783-.685.94 0 1.766.395 1.766 1.537v2.812h-.922zm0-.967v-.641c-.211-.29-.607-.44-1.01-.44-.52 0-.906.3-.906.765 0 .457.387.756.905.756.404 0 .8-.15 1.01-.44zm4.982.967v-2.654c0-.659-.334-.878-.853-.878-.474 0-.878.281-1.09.57v2.962h-.922v-4.244h.923v.58a2.008 2.008 0 011.494-.685c.913 0 1.37.492 1.37 1.362v2.987h-.922z" fill="#333E49" fill-rule="nonzero"/><path fill="#00756A" d="M114.07 189.133h42.05v1.883h-42.05z"/></g><g transform="translate(303 204)"><rect fill="#DAF2DA" width="48.326" height="14.435" rx="4"/><path d="M9.63 10.042L9.2 8.917H6.422l-.43 1.125H4.867l2.302-5.86h1.283l2.302 5.86H9.63zM7.811 5.05L6.713 8.012H8.91L7.81 5.051zm4.481 6.607h-.922v-5.86h.922v.58a1.693 1.693 0 011.362-.686c1.099 0 1.88.826 1.88 2.223 0 1.397-.781 2.232-1.88 2.232-.536 0-1.019-.237-1.362-.694v2.205zm2.285-3.743c0-.817-.466-1.405-1.195-1.405-.43 0-.888.254-1.09.57V8.76c.202.307.66.571 1.09.571.73 0 1.195-.589 1.195-1.415zm2.811 3.743h-.922v-5.86h.922v.58a1.693 1.693 0 011.362-.686c1.099 0 1.88.826 1.88 2.223 0 1.397-.781 2.232-1.88 2.232-.536 0-1.019-.237-1.362-.694v2.205zm2.285-3.743c0-.817-.466-1.405-1.195-1.405-.43 0-.887.254-1.09.57V8.76c.203.307.66.571 1.09.571.73 0 1.195-.589 1.195-1.415zm1.89 2.127V5.798h.922v.624c.316-.405.826-.72 1.38-.72v.913a1.36 1.36 0 00-.29-.026c-.387 0-.906.263-1.09.562v2.89h-.923zm4.963.105c-1.344 0-2.179-1.01-2.179-2.232 0-1.212.835-2.223 2.18-2.223 1.361 0 2.187 1.01 2.187 2.223 0 1.222-.826 2.232-2.188 2.232zm0-.817c.791 0 1.23-.659 1.23-1.415 0-.746-.439-1.405-1.23-1.405-.782 0-1.22.659-1.22 1.405 0 .756.438 1.415 1.22 1.415zm4.236.712L29.03 5.798h.984l1.239 3.18 1.238-3.18h.993l-1.73 4.244h-.993zm3.04-2.127c0-1.23.896-2.223 2.152-2.223 1.274 0 2.092.976 2.092 2.311v.22h-3.278c.07.641.554 1.169 1.353 1.169.413 0 .905-.167 1.204-.466l.422.606c-.422.404-1.046.615-1.722.615-1.274 0-2.223-.887-2.223-2.232zm2.152-1.467c-.79 0-1.15.606-1.195 1.125h2.39c-.017-.501-.36-1.125-1.195-1.125zm5.993 3.594v-.58a1.719 1.719 0 01-1.362.685c-1.09 0-1.89-.826-1.89-2.223 0-1.37.792-2.232 1.89-2.232.527 0 1.02.246 1.362.695V4.18h.922v5.86h-.922zm0-1.274V7.08c-.211-.317-.66-.571-1.099-.571-.729 0-1.195.588-1.195 1.414 0 .817.466 1.406 1.195 1.406.44 0 .888-.246 1.099-.562z" fill="#00756A" fill-rule="nonzero"/></g><g transform="translate(303 323)"><rect fill="#FFD1D1" width="48.326" height="14.435" rx="4"/><path d="M10.838 10.042l-1.3-2.188h-1.02v2.188H7.49v-5.86h2.575c1.16 0 1.915.755 1.915 1.835 0 1.046-.685 1.608-1.388 1.723l1.432 2.302h-1.186zm.088-4.025c0-.562-.422-.93-1.002-.93H8.52v1.862h1.405c.58 0 1.002-.37 1.002-.932zm1.792 1.898c0-1.23.897-2.223 2.153-2.223 1.274 0 2.091.976 2.091 2.311v.22h-3.277c.07.641.554 1.169 1.353 1.169.413 0 .905-.167 1.204-.466l.422.606c-.422.404-1.046.615-1.723.615-1.274 0-2.223-.887-2.223-2.232zm2.153-1.467c-.79 0-1.15.606-1.195 1.125h2.39c-.017-.501-.36-1.125-1.195-1.125zm3.462-1.353a.576.576 0 01-.571-.571.57.57 0 11.571.571zm.466.703v4.49c0 .905-.475 1.476-1.406 1.476-.193 0-.343-.018-.475-.044l.097-.764c.07.017.185.026.264.026.334 0 .597-.193.597-.694v-4.49h.923zm.931 2.117c0-1.23.896-2.223 2.153-2.223 1.274 0 2.091.976 2.091 2.311v.22h-3.277c.07.641.553 1.169 1.353 1.169.413 0 .905-.167 1.203-.466l.422.606c-.422.404-1.045.615-1.722.615-1.274 0-2.223-.887-2.223-2.232zm2.153-1.467c-.791 0-1.151.606-1.195 1.125h2.39c-.018-.501-.36-1.125-1.195-1.125zm2.741 1.467c0-1.282.905-2.223 2.197-2.223.826 0 1.327.352 1.625.756l-.606.562a1.133 1.133 0 00-.975-.5c-.773 0-1.283.58-1.283 1.405 0 .826.51 1.415 1.283 1.415.413 0 .738-.176.975-.5l.606.562c-.298.404-.8.755-1.625.755-1.292 0-2.197-.94-2.197-2.232zm5.905 2.232c-.712 0-1.09-.386-1.09-1.09v-2.45h-.703v-.81h.703V4.639h.923v1.16h.86v.808h-.86V8.83c0 .29.14.501.404.501.176 0 .343-.07.413-.15l.22.695c-.167.158-.44.272-.87.272zm1.265-2.232c0-1.23.896-2.223 2.153-2.223 1.274 0 2.09.976 2.09 2.311v.22H32.76c.07.641.554 1.169 1.354 1.169.413 0 .905-.167 1.203-.466l.422.606c-.422.404-1.046.615-1.722.615-1.274 0-2.223-.887-2.223-2.232zm2.153-1.467c-.791 0-1.151.606-1.195 1.125h2.39c-.018-.501-.36-1.125-1.195-1.125zm5.992 3.594v-.58a1.719 1.719 0 01-1.362.685c-1.09 0-1.889-.826-1.889-2.223 0-1.37.79-2.232 1.89-2.232.526 0 1.018.246 1.361.695V4.18h.923v5.86h-.923zm0-1.274V7.08c-.21-.317-.659-.571-1.098-.571-.73 0-1.195.588-1.195 1.414 0 .817.465 1.406 1.195 1.406.44 0 .887-.246 1.098-.562z" fill="#941132" fill-rule="nonzero"/></g><g transform="translate(303 283)"><rect fill="#FCD39F" width="48.326" height="14.435" rx="4"/><path d="M8.527 10.042v-5.86h2.575c1.23 0 1.915.843 1.915 1.835 0 .993-.694 1.837-1.915 1.837H9.555v2.188H8.527zm3.436-4.025c0-.562-.422-.93-1.002-.93H9.555v1.862h1.406c.58 0 1.002-.37 1.002-.932zm1.617 1.898c0-1.23.896-2.223 2.152-2.223 1.274 0 2.091.976 2.091 2.311v.22h-3.277c.07.641.554 1.169 1.353 1.169.413 0 .905-.167 1.204-.466l.422.606c-.422.404-1.046.615-1.722.615-1.275 0-2.223-.887-2.223-2.232zm2.152-1.467c-.79 0-1.15.606-1.195 1.125h2.39c-.017-.501-.36-1.125-1.195-1.125zm5.87 3.594V7.388c0-.659-.334-.878-.853-.878-.474 0-.878.28-1.09.57v2.962h-.922V5.798h.923v.58a2.008 2.008 0 011.494-.686c.913 0 1.37.492 1.37 1.362v2.988h-.922zm5.105 0v-.58a1.719 1.719 0 01-1.362.685c-1.09 0-1.89-.826-1.89-2.223 0-1.37.791-2.232 1.89-2.232.527 0 1.019.246 1.362.695V4.18h.922v5.86h-.922zm0-1.274V7.08c-.211-.317-.66-.571-1.099-.571-.729 0-1.195.588-1.195 1.414 0 .817.466 1.406 1.195 1.406.44 0 .888-.246 1.099-.562zm2.574-3.673a.576.576 0 01-.571-.571.57.57 0 11.571.571zm-.457 4.947V5.798h.923v4.244h-.923zm4.982 0V7.388c0-.659-.334-.878-.852-.878-.475 0-.879.28-1.09.57v2.962h-.922V5.798h.922v.58a2.008 2.008 0 011.494-.686c.914 0 1.37.492 1.37 1.362v2.988h-.922zm2.065 1.09l.43-.669c.343.396.782.545 1.345.545.606 0 1.256-.28 1.256-1.15v-.51c-.325.421-.808.703-1.362.703-1.08 0-1.88-.782-1.88-2.18 0-1.37.79-2.179 1.88-2.179.536 0 1.02.246 1.362.695v-.59h.923v4.025c0 1.529-1.134 1.942-2.18 1.942-.72 0-1.256-.158-1.774-.633zm3.031-2.47V7.081c-.202-.317-.659-.571-1.09-.571-.729 0-1.194.544-1.194 1.361 0 .818.465 1.362 1.195 1.362.43 0 .887-.254 1.09-.57z" fill="#683D26" fill-rule="nonzero"/></g><g transform="translate(303 244)"><rect fill="#E9EDEF" width="48.326" height="14.435" rx="4"/><path d="M14.142 10.042v-5.86h4.015v.904H15.17v1.52h2.926v.905H15.17v2.53h-1.028zm5.368-4.947a.576.576 0 01-.57-.571.57.57 0 11.571.571zm-.456 4.947V5.798h.922v4.244h-.922zm2.117 0v-5.86h.923v5.86h-.923zm2.118 0v-5.86h.922v5.86h-.922zm1.854-2.127c0-1.23.896-2.223 2.152-2.223 1.274 0 2.091.976 2.091 2.311v.22H26.11c.07.641.554 1.169 1.353 1.169.413 0 .905-.167 1.204-.466l.422.606c-.422.404-1.046.615-1.722.615-1.274 0-2.223-.887-2.223-2.232zm2.152-1.467c-.79 0-1.15.606-1.195 1.125h2.39c-.017-.501-.36-1.125-1.195-1.125zm5.993 3.594v-.58a1.719 1.719 0 01-1.362.685c-1.09 0-1.89-.826-1.89-2.223 0-1.37.791-2.232 1.89-2.232.527 0 1.019.246 1.362.695V4.18h.922v5.86h-.922zm0-1.274V7.08c-.211-.317-.66-.571-1.099-.571-.729 0-1.195.588-1.195 1.414 0 .817.466 1.406 1.195 1.406.44 0 .888-.246 1.099-.562z" fill="#333E49" fill-rule="nonzero"/></g></g></g></svg>