<svg width="530" height="735" viewBox="0 0 530 735" fill="none" xmlns="http://www.w3.org/2000/svg">
<path d="M468 348C468 356.284 474.94 363 483.5 363C492.06 363 499 356.284 499 348L468 348Z" fill="#18A369"/>
<circle cx="462" cy="420" r="4" fill="#88929E"/>
<circle cx="512" cy="321" r="3" fill="#BFC9D8"/>
<circle cx="502" cy="476" r="3" fill="#BFC9D8"/>
<circle cx="473" cy="512" r="3" fill="#88929E"/>
<path d="M505.744 221.38L501.3 270.457C499.935 284.879 483.595 292.47 471.814 284.133L431.486 255.759L391.158 227.384C379.377 219.048 381.1 201.113 394.06 195.06L438.832 174.357L483.604 153.654C496.751 147.569 511.399 158.099 510.22 172.489L505.744 221.38Z" fill="#4D52B1"/>
<g filter="url(#filter0_d)">
<rect x="40" y="22" width="191" height="119" rx="8" fill="white"/>
<mask id="mask0" mask-type="alpha" maskUnits="userSpaceOnUse" x="108" y="72" width="91" height="18">
<path fill-rule="evenodd" clip-rule="evenodd" d="M108.125 72.0211H198.979V89.9152H108.125V72.0211Z" fill="white"/>
</mask>
<g mask="url(#mask0)">
<path fill-rule="evenodd" clip-rule="evenodd" d="M198.979 80.1105V77.8446H196.251V74.3717L196.168 74.3929L193.586 75.1764L193.523 75.1976V77.8446H189.442V76.3623C189.442 75.6846 189.609 75.1552 189.9 74.8164C190.192 74.4776 190.629 74.3082 191.17 74.3082C191.545 74.3082 191.941 74.3929 192.378 74.5835L192.482 74.647V72.2541L192.42 72.2329C192.045 72.1058 191.545 72.0211 190.899 72.0211C190.088 72.0211 189.379 72.2117 188.734 72.5294C188.088 72.8894 187.609 73.3764 187.255 74.0329C186.901 74.6682 186.714 75.3882 186.714 76.2141V77.8446H184.819V80.0894H186.714V89.5764H189.442V80.1105H193.523V86.1458C193.523 88.6235 194.669 89.8731 196.959 89.8731C197.334 89.8731 197.73 89.8094 198.105 89.7458C198.5 89.6613 198.792 89.5554 198.958 89.4705L198.979 89.4496V87.1835L198.875 87.2682C198.708 87.3741 198.563 87.4588 198.313 87.5223C198.105 87.5858 197.917 87.607 197.771 87.607C197.23 87.607 196.855 87.4799 196.585 87.1623C196.335 86.8658 196.209 86.379 196.209 85.6588V80.1105H198.979ZM180.925 86.6117C180.425 87.2682 179.634 87.5858 178.655 87.5858C177.656 87.5858 176.885 87.2682 176.323 86.5694C175.761 85.9129 175.49 84.9599 175.49 83.7529C175.49 82.5035 175.782 81.5505 176.323 80.8729C176.885 80.1952 177.656 79.8564 178.634 79.8564C179.571 79.8564 180.342 80.1741 180.883 80.8305C181.425 81.487 181.716 82.4399 181.716 83.6894C181.716 84.9599 181.446 85.9554 180.925 86.6117ZM178.78 77.5905C176.885 77.5905 175.365 78.1623 174.303 79.2846C173.241 80.407 172.7 81.9529 172.7 83.9011C172.7 85.7223 173.241 87.2046 174.282 88.2849C175.323 89.3437 176.739 89.8941 178.509 89.8941C180.363 89.8941 181.841 89.3223 182.903 88.179C183.986 87.0352 184.507 85.5105 184.507 83.626C184.507 81.7623 184.007 80.2799 182.986 79.1999C182.008 78.1199 180.571 77.5905 178.78 77.5905ZM168.535 82.7152C167.681 82.3554 167.14 82.0799 166.89 81.847C166.681 81.6352 166.577 81.3388 166.577 80.9576C166.577 80.6399 166.702 80.3223 167.015 80.1105C167.327 79.8988 167.681 79.7929 168.201 79.7929C168.66 79.7929 169.139 79.8776 169.597 80.0046C170.055 80.1317 170.471 80.3223 170.804 80.5764L170.909 80.6611V78.0776L170.846 78.0564C170.534 77.9294 170.117 77.8023 169.618 77.6964C169.118 77.6117 168.66 77.5694 168.285 77.5694C166.994 77.5694 165.932 77.887 165.099 78.5858C164.266 79.2423 163.87 80.1317 163.87 81.1694C163.87 81.7202 163.954 82.207 164.141 82.6094C164.328 83.0117 164.599 83.3929 164.974 83.7105C165.349 84.007 165.89 84.3458 166.64 84.6635C167.264 84.9388 167.744 85.1505 168.035 85.3202C168.327 85.4894 168.514 85.6799 168.66 85.8282C168.764 85.9976 168.826 86.2094 168.826 86.4849C168.826 87.2682 168.243 87.6496 167.056 87.6496C166.598 87.6496 166.119 87.5646 165.557 87.3741C164.995 87.1835 164.474 86.9084 164.037 86.5907L163.933 86.5058V89.1952L163.995 89.2164C164.391 89.407 164.87 89.5341 165.453 89.6823C166.036 89.7882 166.557 89.8731 167.015 89.8731C168.41 89.8731 169.555 89.5554 170.367 88.8564C171.2 88.179 171.637 87.3105 171.637 86.1882C171.637 85.4046 171.429 84.7058 170.971 84.1764C170.367 83.6682 169.618 83.1388 168.535 82.7152ZM158.935 86.6117C158.435 87.2682 157.644 87.5858 156.665 87.5858C155.687 87.5858 154.895 87.2682 154.333 86.5694C153.771 85.9129 153.5 84.9599 153.5 83.7529C153.5 82.5035 153.792 81.5505 154.333 80.8729C154.895 80.1952 155.666 79.8564 156.644 79.8564C157.602 79.8564 158.352 80.1741 158.893 80.8305C159.435 81.487 159.726 82.4399 159.726 83.6894C159.685 84.9599 159.455 85.9554 158.935 86.6117ZM156.769 77.5905C154.874 77.5905 153.354 78.1623 152.292 79.2846C151.209 80.407 150.689 81.9529 150.689 83.9011C150.689 85.7223 151.23 87.2046 152.271 88.2849C153.312 89.3437 154.729 89.8941 156.499 89.8941C158.352 89.8941 159.831 89.3223 160.893 88.179C161.975 87.0352 162.496 85.5105 162.496 83.626C162.496 81.7623 161.996 80.2799 160.976 79.1999C159.997 78.1199 158.56 77.5905 156.769 77.5905ZM149.398 77.6541C148.731 77.6541 148.107 77.8658 147.565 78.3105C147.107 78.6917 146.795 79.2423 146.524 79.8988H146.503V77.8446H143.796V89.5764H146.503V83.5835C146.503 82.5672 146.712 81.7202 147.169 81.1058C147.628 80.4705 148.211 80.1529 148.919 80.1529C149.169 80.1529 149.419 80.2164 149.731 80.2588C150.022 80.3435 150.231 80.4282 150.377 80.5341L150.481 80.6188V77.8658L150.418 77.8446C150.231 77.7176 149.856 77.6541 149.398 77.6541ZM140.464 77.7388C139.965 77.6329 139.444 77.5694 138.944 77.5694C137.716 77.5694 136.591 77.8446 135.654 78.3952C134.717 78.9458 133.967 79.7082 133.488 80.6611C132.989 81.6352 132.739 82.7576 132.739 84.0496C132.739 85.1717 132.989 86.1672 133.467 87.0776C133.947 87.9672 134.613 88.687 135.508 89.1741C136.362 89.6613 137.362 89.9152 138.486 89.9152C139.777 89.9152 140.881 89.6399 141.755 89.1319L141.776 89.1105V86.5694L141.672 86.6541C141.276 86.9505 140.818 87.2046 140.36 87.3529C139.881 87.5223 139.444 87.607 139.069 87.607C137.986 87.607 137.133 87.2894 136.529 86.5907C135.904 85.9129 135.592 84.9811 135.592 83.8164C135.592 82.6094 135.904 81.6564 136.549 80.9576C137.195 80.2588 138.049 79.8988 139.09 79.8988C139.965 79.8988 140.86 80.1952 141.672 80.7882L141.776 80.8729V78.1835L141.755 78.1623C141.401 78.0141 141.006 77.8446 140.464 77.7388ZM129.532 72.8894C129.074 72.8894 128.699 73.0588 128.387 73.3552C128.074 73.6517 127.908 74.0329 127.908 74.4988C127.908 74.9435 128.074 75.3246 128.387 75.6211C128.699 75.9176 129.074 76.0658 129.532 76.0658C129.99 76.0658 130.386 75.8964 130.677 75.6211C130.99 75.3246 131.156 74.9435 131.156 74.4988C131.156 74.0541 130.99 73.6729 130.677 73.3552C130.406 73.0588 130.011 72.8894 129.532 72.8894ZM128.157 89.5764H130.864V77.8446H128.157V89.5764ZM117.621 83.4988L116.871 85.6588H116.808C116.684 85.1717 116.455 84.4305 116.08 83.5411L112.061 73.2705H108.125V89.6399H110.728V79.5388C110.728 78.9035 110.728 78.1835 110.707 77.2941C110.686 76.8494 110.645 76.5105 110.624 76.2564H110.686C110.811 76.8917 110.957 77.3576 111.061 77.6541L115.892 89.5976H117.725L122.514 77.5482C122.618 77.2729 122.723 76.7223 122.827 76.2564H122.889C122.827 77.4635 122.785 78.5435 122.764 79.1999V89.5764H125.534V73.2282H121.744L117.621 83.4988Z" fill="#737373"/>
</g>
<mask id="mask1" mask-type="alpha" maskUnits="userSpaceOnUse" x="73" y="68" width="126" height="27">
<path fill-rule="evenodd" clip-rule="evenodd" d="M73 95H199V68H73V95Z" fill="white"/>
</mask>
<g mask="url(#mask1)">
<path fill-rule="evenodd" clip-rule="evenodd" d="M73 81H86V68H73V81Z" fill="#F25022"/>
<path fill-rule="evenodd" clip-rule="evenodd" d="M87 81H100V68H87V81Z" fill="#7FBA00"/>
<path fill-rule="evenodd" clip-rule="evenodd" d="M73 95H86V82H73V95Z" fill="#00A4EF"/>
<path fill-rule="evenodd" clip-rule="evenodd" d="M87 95H100V82H87V95Z" fill="#FFB900"/>
</g>
<rect x="40" y="156" width="191" height="119" rx="8" fill="white"/>
<path fill-rule="evenodd" clip-rule="evenodd" d="M141.072 221.221C140.864 222.679 139.694 223.443 138.305 223.335C137.958 223.309 137.644 223.238 137.362 223.129C136.242 222.491 135.904 221.424 135.806 220.754C135.805 220.755 135.804 220.755 135.804 220.755C135.727 219.718 135.644 217.55 136.154 216.525C136.587 215.74 137.343 215.312 138.345 215.279C139.769 215.233 140.846 215.933 141.058 217.366C141.246 218.629 141.254 219.96 141.072 221.221ZM140.365 211.647C138.579 211.458 137.035 211.994 135.729 213.551V213.067V204.66V204.568V204L131 204.568V226.675H135.729V225.363C136.366 225.814 136.987 226.358 137.712 226.615C140.468 227.595 144.101 226.796 145.372 223.142C146.188 220.798 146.167 218.394 145.552 216.023C144.871 213.39 143.103 211.936 140.365 211.647Z" fill="#3B5998"/>
<path fill-rule="evenodd" clip-rule="evenodd" d="M158.134 221.146C158.118 221.241 158.101 221.335 158.079 221.428C157.763 222.776 156.744 223.505 155.386 223.445C153.924 223.381 152.922 222.56 152.781 221.158C152.68 220.134 152.671 219.088 152.76 218.063C152.898 216.445 153.952 215.56 155.532 215.59C156.831 215.614 157.757 216.321 158.086 217.52C158.386 218.727 158.164 220.872 158.134 221.146ZM157.933 212.316C156.28 211.892 154.611 211.897 152.961 212.319C150.492 212.95 148.836 214.451 148.303 216.838C148.012 218.141 147.954 219.526 148.031 220.861C148.207 223.916 150.174 226.093 153.227 226.768C153.27 226.778 153.315 226.786 153.359 226.795H153.358C153.358 226.795 153.366 226.797 153.38 226.799C153.498 226.822 153.615 226.843 153.733 226.86C153.773 226.864 153.813 226.867 153.851 226.87H153.855C154.003 226.897 154.181 226.916 154.367 226.93C154.965 226.991 155.726 227.035 156.36 226.963C156.365 226.963 156.368 226.962 156.37 226.961C156.403 226.961 156.436 226.961 156.468 226.958C159.621 226.801 162.013 224.892 162.711 221.963C163.094 220.357 163.094 218.743 162.724 217.135C162.144 214.612 160.551 212.989 157.933 212.316Z" fill="#3B5998"/>
<path fill-rule="evenodd" clip-rule="evenodd" d="M85.6273 210.968H82.3935V208.696C82.6298 206.549 85.988 206.957 85.988 206.957L85.9891 206.81L85.988 206.793V203.266H85.9875V203.265H85.9849C85.8694 203.236 79.305 201.59 78.0011 206.868C78.0011 206.869 78.0011 206.871 77.9996 206.872C77.997 206.884 77.9938 206.895 77.9912 206.907C77.7862 207.566 77.8002 210.588 77.8028 210.968H75V215.009H77.9767V226H82.3113V215.009H85.6268L86 210.968H85.6273Z" fill="#3B5998"/>
<path fill-rule="evenodd" clip-rule="evenodd" d="M97.1418 221.366C96.9923 222.703 95.8602 223.505 94.522 223.455C93.1509 223.404 92.2435 222.703 91.9473 221.445C91.5923 219.658 92.0078 217.534 92.0429 217.362C92.4013 216.162 93.3152 215.568 94.6561 215.598C95.9729 215.627 96.9879 216.37 97.1363 217.674C97.2754 218.892 97.2787 220.147 97.1418 221.366ZM97.5348 214.094C97.4787 214.035 97.4232 213.977 97.3754 213.93V213.929C97.3677 213.922 97.3617 213.915 97.354 213.908C97.2875 213.842 97.2408 213.798 97.2408 213.798C96.163 212.751 95.7564 212.491 94.9122 212.253C91.6659 211.34 88.5054 212.963 87.5046 216.083C86.8897 218 86.8809 219.973 87.2414 221.914C88.0201 226.118 91.2939 227.525 94.7831 226.831C95.8536 226.618 96.6494 225.982 97.3875 225.095C97.3875 225.095 97.454 225.017 97.5353 224.866V226.715H102V212.265H97.5353V214.094H97.5348Z" fill="#3B5998"/>
<path fill-rule="evenodd" clip-rule="evenodd" d="M114.877 225.661C114.675 224.937 114.445 224.222 114.223 223.532L114.013 222.765C114.013 222.765 108.559 225.332 107.709 220.453C107.63 219.648 107.654 218.817 107.767 218.023C107.979 216.523 108.912 215.72 110.396 215.582C110.898 215.535 111.419 215.559 111.916 215.642C112.592 215.753 113.252 215.953 113.991 216.132C114.249 215.361 114.512 214.597 114.756 213.829C114.795 213.709 114.827 213.605 114.852 213.512H114.853L114.975 213.05C114.945 212.988 114.87 212.925 114.771 212.863V212.863C114.645 212.761 114.432 212.675 114.098 212.555C113.965 212.507 113.831 212.465 113.697 212.424C113.577 212.387 113.499 212.364 113.499 212.364H113.499C112.066 211.963 110.596 211.932 109.101 212.086C105.952 212.412 103.814 214.235 103.221 217.244C102.91 218.827 102.924 220.429 103.282 222.017C103.817 224.395 105.287 225.931 107.676 226.618C109.235 227.067 110.833 227.089 112.423 226.846C113.091 226.743 114.05 226.404 114.738 226.161L115 226.071L114.876 225.66L114.877 225.661Z" fill="#3B5998"/>
<path fill-rule="evenodd" clip-rule="evenodd" d="M124.753 218.006H119.662C119.688 217.022 119.815 216.107 120.715 215.55C121.671 214.959 122.727 214.937 123.71 215.466C124.704 216 124.782 216.964 124.753 218.006ZM128.991 219.983C128.97 218.98 128.984 217.972 128.838 216.986C128.436 214.283 126.743 212.572 124.006 212.125C122.961 211.955 121.857 211.978 120.795 212.076C117.89 212.346 115.685 214.105 115.233 216.753C114.958 218.359 114.923 220.064 115.145 221.677C115.48 224.103 116.695 225.649 118.798 226.392H118.799C118.808 226.392 118.817 226.394 118.826 226.394C118.825 226.395 118.826 226.395 118.825 226.396C119.785 226.675 124.482 227.869 128.622 225.846L128.456 225.254C128.454 225.255 128.452 225.255 128.45 225.255C128.258 224.464 128.028 223.682 127.811 222.899L127.788 222.822C127.788 222.822 127.701 222.852 127.549 222.9C127.546 222.9 127.541 222.9 127.538 222.901C127.357 222.947 127.179 223 127.001 223.058C126.968 223.068 126.936 223.079 126.903 223.088C126.276 223.259 125.38 223.471 124.434 223.589C123.64 223.668 122.837 223.671 122.028 223.603C120.713 223.391 119.707 222.707 119.755 221.088H120.506C123.084 221.088 125.661 221.088 128.239 221.087C128.3 221.087 128.362 221.088 128.424 221.087L128.423 221.088C128.423 221.088 128.977 221.081 129 221.076C129 221.076 128.999 220.934 129 220.916L128.991 219.983Z" fill="#3B5998"/>
<mask id="mask2" mask-type="alpha" maskUnits="userSpaceOnUse" x="179" y="204" width="15" height="23">
<path fill-rule="evenodd" clip-rule="evenodd" d="M179.426 204.168H193.848V226.694H179.426V204.168Z" fill="white"/>
</mask>
<g mask="url(#mask2)">
<path fill-rule="evenodd" clip-rule="evenodd" d="M193.848 212.111H188.718L184.262 218.818V204.824V204.732V204.168L179.426 204.732V226.684H184.262V219.966L188.718 226.694H193.848L189.013 219.39L193.848 212.111Z" fill="#3B5998"/>
</g>
<path fill-rule="evenodd" clip-rule="evenodd" d="M173.133 221.146C173.117 221.241 173.1 221.335 173.078 221.429C172.762 222.776 171.744 223.504 170.385 223.445C168.924 223.379 167.921 222.559 167.78 221.158C167.679 220.134 167.67 219.088 167.758 218.063C167.899 216.445 168.951 215.56 170.533 215.59C171.829 215.614 172.756 216.321 173.086 217.52C173.384 218.726 173.163 220.872 173.133 221.146ZM172.933 212.317C171.28 211.892 169.609 211.897 167.96 212.319C165.492 212.95 163.836 214.451 163.303 216.837C163.012 218.14 162.954 219.525 163.031 220.861C163.206 223.916 165.174 226.093 168.226 226.768C168.27 226.778 168.315 226.785 168.359 226.795H168.357C168.357 226.795 168.365 226.796 168.379 226.799C168.496 226.821 168.614 226.842 168.733 226.859C168.772 226.863 168.812 226.867 168.851 226.869C168.853 226.87 168.854 226.87 168.855 226.87C169.004 226.896 169.18 226.916 169.366 226.93C169.965 226.991 170.727 227.035 171.361 226.963C171.364 226.962 171.366 226.962 171.37 226.961C171.404 226.96 171.435 226.96 171.467 226.958C174.62 226.8 177.013 224.891 177.711 221.963C178.094 220.357 178.094 218.742 177.725 217.135C177.143 214.612 175.55 212.989 172.933 212.317Z" fill="#3B5998"/>
<rect x="40" y="290" width="191" height="119" rx="8" fill="white"/>
<path fill-rule="evenodd" clip-rule="evenodd" d="M192.825 359.903H192.38V359.227H192.944C193.236 359.227 193.566 359.263 193.566 359.55C193.566 359.877 193.233 359.903 192.825 359.903ZM193.267 360.104C193.716 360.063 193.952 359.877 193.952 359.565C193.952 359.185 193.644 359 193.014 359H192V361H192.38V360.129H192.851L192.862 360.14L193.594 361H194L193.216 360.11L193.267 360.104Z" fill="#231F20"/>
<path fill-rule="evenodd" clip-rule="evenodd" d="M193.001 361.738C192.044 361.738 191.294 360.982 191.294 360C191.294 359.019 192.044 358.262 193.001 358.262C193.958 358.262 194.706 359.019 194.706 360C194.706 360.982 193.958 361.738 193.001 361.738ZM193.001 358C191.879 358 191 358.878 191 360C191 361.123 191.879 362 193.001 362C194.12 362 195 361.123 195 360C195 358.878 194.12 358 193.001 358Z" fill="#231F20"/>
<path fill-rule="evenodd" clip-rule="evenodd" d="M79 342H83.2077V357.957H91V362H79V342Z" fill="#231F20"/>
<path fill-rule="evenodd" clip-rule="evenodd" d="M95.4996 342C96.8798 342 98 343.079 98 344.408C98 345.737 96.8798 346.813 95.4996 346.813C94.1202 346.813 93 345.737 93 344.408C93 343.079 94.1202 342 95.4996 342ZM93.344 362H97.6543V348.641H93.344V362Z" fill="#231F20"/>
<path fill-rule="evenodd" clip-rule="evenodd" d="M115 342H119.166V353.952L123.891 348.434H129L123.532 354.709L128.886 362H123.647L119.221 355.299H119.166V362H115V342Z" fill="#231F20"/>
<path fill-rule="evenodd" clip-rule="evenodd" d="M100 348.34H104V350.207H104.056C104.611 349.132 105.971 348 108 348C112.222 348 113 350.83 113 354.509V362H108.833V355.357C108.833 353.773 108.805 351.736 106.666 351.736C104.499 351.736 104.167 353.461 104.167 355.244V362H100V348.34Z" fill="#231F20"/>
<path fill-rule="evenodd" clip-rule="evenodd" d="M141.355 359.363C140.003 361.039 137.784 362 135.591 362C131.374 362 128 359.254 128 354.999C128 350.746 131.374 348 135.591 348C139.528 348 142 350.746 142 354.999V356.289H132.217C132.552 357.854 133.764 358.869 135.393 358.869C136.772 358.869 137.698 358.184 138.402 357.251L141.355 359.363ZM137.784 353.491C137.811 352.117 136.715 350.966 135.195 350.966C133.341 350.966 132.33 352.201 132.217 353.491H137.784Z" fill="#231F20"/>
<path fill-rule="evenodd" clip-rule="evenodd" d="M158 361.669H154.078V359.9H154.023C153.366 360.868 151.721 362 149.79 362C145.698 362 143 359.129 143 355.07C143 351.339 145.387 347.917 149.306 347.917C151.069 347.917 152.715 348.385 153.681 349.682H153.737V342H158V361.669ZM150.669 351.561C148.54 351.561 147.26 352.943 147.26 354.958C147.26 356.975 148.54 358.355 150.669 358.355C152.801 358.355 154.078 356.975 154.078 354.958C154.078 352.943 152.801 351.561 150.669 351.561Z" fill="#231F20"/>
<path fill-rule="evenodd" clip-rule="evenodd" d="M187.929 338H164.065C162.926 338 162 338.904 162 340.019V363.979C162 365.095 162.926 366 164.065 366H187.929C189.071 366 190 365.095 190 363.979V340.019C190 338.904 189.071 338 187.929 338Z" fill="#007BB6"/>
<path fill-rule="evenodd" clip-rule="evenodd" d="M168.501 342C169.88 342 171 343.079 171 344.407C171 345.737 169.88 346.816 168.501 346.816C167.117 346.816 166 345.737 166 344.407C166 343.079 167.117 342 168.501 342ZM166.343 362H170.658V348.641H166.343V362Z" fill="white"/>
<path fill-rule="evenodd" clip-rule="evenodd" d="M174 348.339H177.997V350.207H178.054C178.61 349.132 179.971 348 181.999 348C186.22 348 187 350.828 187 354.508V362H182.832V355.356C182.832 353.772 182.804 351.734 180.665 351.734C178.495 351.734 178.164 353.461 178.164 355.243V362H174V348.339Z" fill="white"/>
<rect x="40" y="424" width="191" height="119" rx="8" fill="white"/>
<path fill-rule="evenodd" clip-rule="evenodd" d="M94.8742 496H92.0456C91.4397 496 91.0068 495.892 90.5448 495.166L83.9644 484.56C83.8486 484.398 83.791 484.345 83.7044 484.345C83.6179 484.345 83.5598 484.398 83.5598 484.56V495.462C83.5598 495.758 83.3002 496 82.9829 496H79.5769C79.2596 496 79 495.758 79 495.462V477.023C79 476.458 79.4904 476 80.0965 476H83.0117C83.5886 476 83.8775 476.269 84.2239 476.834L91.0644 487.925C91.1799 488.086 91.2087 488.14 91.2952 488.14C91.3533 488.14 91.4397 488.086 91.4397 487.898V476.512C91.4397 476.215 91.6994 476 92.0166 476H95.4226C95.74 476 96 476.215 96 476.512V494.977C96 495.542 95.4804 496 94.8742 496Z" fill="#14212D"/>
<path fill-rule="evenodd" clip-rule="evenodd" d="M110.437 495.741H107.286C106.976 495.741 106.723 495.482 106.723 495.165V494.703C105.625 495.511 104.5 496 102.812 496C100.364 496 98 494.79 98 491.044V490.785C98 487.413 100.11 485.915 104.922 485.915H106.442V484.878C106.442 483.236 105.654 482.89 104.331 482.89C102.53 482.89 100.532 483.005 99.6598 483.091H99.5192C99.238 483.091 99.0126 482.947 99.0126 482.573V480.239C99.0126 479.922 99.2099 479.691 99.5473 479.605C100.589 479.345 102.558 479 104.415 479C108.468 479 111 480.671 111 484.878V495.165C111 495.482 110.746 495.741 110.437 495.741ZM106.526 488.682H104.922C102.952 488.682 102.446 489.373 102.446 490.785V491.044C102.446 492.254 103.037 492.485 104.219 492.485C105.063 492.485 105.85 492.197 106.526 491.851V488.682Z" fill="#14212D"/>
<path fill-rule="evenodd" clip-rule="evenodd" d="M134.416 496H131.051C130.744 496 130.494 495.708 130.494 495.385V485.408C130.494 483.535 130.077 482.979 128.798 482.979C128.325 482.979 127.49 483.096 126.656 483.506C126.711 484.091 126.739 484.764 126.739 485.408V495.385C126.739 495.708 126.489 496 126.183 496H122.817C122.511 496 122.233 495.708 122.233 495.385V485.408C122.233 483.535 121.899 482.979 120.62 482.979C120.091 482.979 119.368 483.272 118.506 483.74V495.385C118.506 495.708 118.256 496 117.95 496H114.584C114.278 496 114 495.708 114 495.385V479.819C114 479.497 114.25 479.234 114.556 479.234H117.727C118.033 479.234 118.283 479.497 118.283 479.819V480.463C119.452 479.644 120.787 479 122.4 479C123.874 479 124.903 479.439 125.682 480.434C127.295 479.468 128.408 479 130.216 479C133.887 479 135 481.575 135 485.408V495.385C135 495.708 134.722 496 134.416 496Z" fill="#14212D"/>
<path fill-rule="evenodd" clip-rule="evenodd" d="M151.412 488.941H142.48V488.998C142.48 490.641 143.152 492.139 145.364 492.139C147.128 492.139 149.62 491.995 150.74 491.88H150.824C151.132 491.88 151.356 492.024 151.356 492.341V494.531C151.356 494.992 151.244 495.193 150.768 495.309C148.976 495.77 147.464 496 145.028 496C141.64 496 138 494.156 138 488.595V486.578C138 481.939 140.632 479 145.084 479C149.676 479 152 482.227 152 486.578V488.249C152 488.682 151.776 488.941 151.412 488.941ZM147.576 485.944C147.576 483.812 146.624 482.746 145.056 482.746C143.516 482.746 142.48 483.841 142.48 485.944V486.059H147.576V485.944Z" fill="#14212D"/>
<path fill-rule="evenodd" clip-rule="evenodd" d="M159.414 496H155.648C155.309 496 155 495.726 155 495.425V475.548C155 475.246 155.309 475 155.648 475H159.414C159.753 475 160 475.246 160 475.548V495.425C160 495.726 159.753 496 159.414 496Z" fill="#14212D"/>
<path fill-rule="evenodd" clip-rule="evenodd" d="M176.971 480.623L172.075 496.583C171.172 499.51 169.977 501 165.692 501C164.614 501 162.894 500.783 162.166 500.567C161.845 500.458 161.554 500.377 161.554 500.079V497.884C161.554 497.586 161.816 497.369 162.137 497.369H162.195C163.157 497.423 164.876 497.586 165.838 497.586C166.887 497.586 167.412 497.261 167.762 496.177L168.024 495.337H167.587C166.508 495.337 165.605 495.174 164.876 492.817L161.029 480.623C161 480.542 161 480.488 161 480.434C161 480.162 161.175 480 161.583 480H165.459C165.75 480 165.955 480.244 166.013 480.515L168.636 490.704C168.724 491.082 168.811 491.218 168.986 491.218H169.015H169.131H169.248L171.958 480.515C172.016 480.244 172.25 480 172.57 480H176.447C176.738 480 177 480.217 177 480.488C177 480.542 176.971 480.569 176.971 480.623Z" fill="#14212D"/>
<path fill-rule="evenodd" clip-rule="evenodd" d="M192.807 463L190.724 467.478C190.644 467.381 190.624 467.327 190.534 467.237C190.209 466.904 189.837 466.645 189.412 466.457C188.992 466.27 188.539 466.175 188.066 466.175C187.369 466.175 186.737 466.363 186.163 466.739C185.588 467.114 185.161 467.623 184.879 468.263L181 477.054L187.219 480L189.299 475.536C189.38 475.639 189.378 475.684 189.473 475.779C189.798 476.111 190.178 476.371 190.609 476.557C191.044 476.747 191.498 476.84 191.975 476.84C192.668 476.84 193.292 476.648 193.845 476.26C194.399 475.874 194.824 475.361 195.129 474.721L199 465.934L192.807 463Z" fill="#0073DD"/>
<rect x="40" y="558" width="191" height="119" rx="8" fill="white"/>
<mask id="mask3" mask-type="alpha" maskUnits="userSpaceOnUse" x="75" y="605" width="118" height="25">
<path fill-rule="evenodd" clip-rule="evenodd" d="M75.0001 605.769H192.858V629.5H75.0001V605.769Z" fill="white"/>
</mask>
<g mask="url(#mask3)">
<path fill-rule="evenodd" clip-rule="evenodd" d="M192.858 611.262C192.858 611.128 192.754 610.995 192.649 610.942C192.386 610.809 191.993 610.702 191.207 610.702C189.424 610.702 187.824 611.608 187.143 613.102V611.262C187.143 611.102 187.011 610.968 186.854 610.968H184.18C184.022 610.968 183.891 611.102 183.891 611.262V623.687C183.891 623.847 184.022 623.98 184.18 623.98H186.985C187.143 623.98 187.274 623.847 187.274 623.687V618.088C187.274 615.581 188.978 614.355 191.207 614.355C191.731 614.355 192.255 614.461 192.491 614.568C192.675 614.621 192.858 614.488 192.858 614.302V611.262ZM174.898 620.914C172.984 620.914 171.489 619.528 171.489 617.448C171.489 615.368 172.984 613.981 174.898 613.981C176.812 613.981 178.306 615.368 178.306 617.448C178.306 619.554 176.838 620.914 174.898 620.914ZM174.898 610.648C170.965 610.648 168.028 613.395 168.028 617.474C168.028 621.527 170.965 624.3 174.898 624.3C178.831 624.3 181.768 621.554 181.768 617.474C181.793 613.421 178.857 610.648 174.898 610.648ZM159.297 620.914C157.383 620.914 155.888 619.528 155.888 617.448C155.888 615.368 157.383 613.981 159.297 613.981C161.211 613.981 162.705 615.368 162.705 617.448C162.679 619.554 161.211 620.914 159.297 620.914ZM159.297 610.648C155.364 610.648 152.428 613.395 152.428 617.474C152.428 621.527 155.364 624.3 159.297 624.3C163.23 624.3 166.167 621.554 166.167 617.474C166.167 613.421 163.23 610.648 159.297 610.648ZM143.696 620.968C141.782 620.968 140.34 619.581 140.34 617.474C140.34 615.368 141.782 613.981 143.696 613.981C145.584 613.981 147.053 615.315 147.053 617.474C147.053 619.607 145.584 620.968 143.696 620.968ZM150.041 605.769H147.236C147.078 605.769 146.948 605.902 146.948 606.062V612.835C146.082 611.582 144.64 610.622 142.647 610.622C139.527 610.622 136.879 613.075 136.879 617.474C136.879 621.874 139.527 624.3 142.7 624.3C144.562 624.3 146.03 623.474 146.948 622.141V623.661C146.948 623.82 147.078 623.954 147.236 623.954H150.041C150.199 623.954 150.33 623.82 150.33 623.661V606.035C150.33 605.902 150.199 605.769 150.041 605.769ZM135.017 620.034C135.017 622.994 132.893 624.274 129.485 624.274C127.125 624.274 125.106 623.634 123.953 622.301C123.874 622.194 123.874 622.034 123.953 621.927L125.578 619.794C125.683 619.661 125.893 619.661 125.998 619.768C126.863 620.648 128.174 621.207 129.826 621.207C130.77 621.207 131.53 620.941 131.53 620.221C131.53 619.528 130.849 619.367 128.698 618.887C126.81 618.488 124.451 617.608 124.451 614.781C124.451 612.142 126.496 610.648 129.852 610.648C132.054 610.648 133.628 611.315 134.755 612.382C134.86 612.488 134.86 612.648 134.781 612.782L133.234 614.808C133.129 614.941 132.946 614.968 132.841 614.861C132.081 614.168 130.822 613.741 129.59 613.741C128.541 613.741 127.964 614.088 127.964 614.648C127.964 615.288 128.646 615.448 130.927 615.955C133.129 616.461 135.017 617.314 135.017 620.034ZM122.038 620.034C122.038 622.994 119.915 624.274 116.506 624.274C114.146 624.274 112.127 623.634 110.974 622.301C110.895 622.194 110.895 622.034 110.974 621.927L112.599 619.794C112.704 619.661 112.914 619.661 113.019 619.768C113.884 620.648 115.195 621.207 116.847 621.207C117.791 621.207 118.551 620.941 118.551 620.221C118.551 619.528 117.87 619.367 115.72 618.887C113.832 618.488 111.472 617.608 111.472 614.781C111.472 612.142 113.517 610.648 116.873 610.648C119.076 610.648 120.649 611.315 121.776 612.382C121.881 612.488 121.881 612.648 121.802 612.782L120.255 614.808C120.151 614.941 119.967 614.968 119.862 614.861C119.102 614.168 117.843 613.741 116.611 613.741C115.562 613.741 114.985 614.088 114.985 614.648C114.985 615.288 115.667 615.448 117.948 615.955C120.15 616.461 122.038 617.314 122.038 620.034ZM105.205 618.728C105.205 620.168 104.052 621.394 102.269 621.394C101.089 621.394 100.459 620.861 100.459 620.008C100.459 619.288 101.01 618.728 102.033 618.568L105.205 618.167V618.728ZM102.977 610.675C100.302 610.675 98.2833 611.582 97.3654 613.395C97.3132 613.528 97.3393 613.688 97.4703 613.768L99.5158 615.261C99.6468 615.368 99.8303 615.315 99.9089 615.181C100.486 614.141 101.744 613.795 102.977 613.795C104.497 613.795 105.205 614.328 105.205 615.101V615.315C105.205 615.634 105.022 615.795 104.55 615.848L101.036 616.168C98.6767 616.408 96.9461 617.874 96.9461 620.248C96.9461 622.647 98.7292 624.3 101.272 624.3C103.265 624.3 104.55 623.314 105.205 622.274V623.741C105.205 623.9 105.336 624.034 105.494 624.034H108.299C108.457 624.034 108.588 623.9 108.588 623.741V615.981C108.588 612.355 106.7 610.675 102.977 610.675ZM94.6386 606.062V623.687C94.6386 623.847 94.5076 623.98 94.3504 623.98H91.5184C91.3613 623.98 91.2302 623.847 91.2302 623.687V606.062C91.2302 605.902 91.3613 605.769 91.5184 605.769H94.3504C94.5076 605.769 94.6386 605.902 94.6386 606.062ZM81.8172 620.941C79.9031 620.941 78.461 619.554 78.461 617.448C78.461 615.341 79.9031 613.955 81.8172 613.955C83.7313 613.955 85.1473 615.288 85.1473 617.448C85.1473 619.581 83.7313 620.941 81.8172 620.941ZM88.1625 610.968H85.3569C85.1995 610.968 85.0684 611.102 85.0684 611.262V612.782C84.3607 611.608 82.8658 610.648 80.8995 610.648C77.7269 610.648 75.0001 613.075 75.0001 617.421C75.0001 621.741 77.5958 624.114 81.0045 624.114C82.8397 624.114 84.2818 623.341 85.1209 622.114V622.941C85.1209 624.807 84.2294 626.3 81.3715 626.3C79.9294 626.3 78.7755 625.82 77.753 624.887C77.6219 624.78 77.4123 624.807 77.3337 624.941L76.0749 627.1C75.9177 627.367 75.9438 627.527 76.0488 627.634C77.3598 628.78 79.064 629.5 81.5287 629.5C86.9039 629.5 88.4771 626.46 88.4771 623.1V611.235C88.451 611.075 88.3197 610.968 88.1625 610.968Z" fill="#0CAA41"/>
</g>
<path fill-rule="evenodd" clip-rule="evenodd" d="M195.802 610.469H195.961C196.011 610.469 196.054 610.464 196.089 610.454C196.124 610.445 196.152 610.431 196.174 610.413C196.195 610.394 196.211 610.372 196.22 610.346C196.23 610.319 196.235 610.288 196.235 610.254C196.235 610.22 196.23 610.19 196.222 610.165C196.213 610.14 196.199 610.118 196.179 610.102C196.16 610.086 196.134 610.073 196.102 610.065C196.07 610.057 196.031 610.053 195.983 610.053H195.802V610.469ZM195.802 610.625V611.109H195.589V609.889H195.983C196.14 609.889 196.256 609.917 196.332 609.974C196.408 610.031 196.446 610.115 196.446 610.226C196.446 610.312 196.421 610.385 196.373 610.445C196.324 610.506 196.251 610.547 196.154 610.57C196.17 610.579 196.183 610.59 196.194 610.604C196.206 610.618 196.217 610.633 196.227 610.652L196.539 611.109H196.336C196.306 611.109 196.284 611.097 196.269 611.075L195.994 610.662C195.986 610.65 195.976 610.641 195.965 610.634C195.953 610.628 195.935 610.625 195.911 610.625H195.802ZM195.137 610.501C195.137 610.583 195.147 610.661 195.167 610.735C195.187 610.81 195.216 610.88 195.253 610.945C195.291 611.01 195.335 611.069 195.388 611.123C195.44 611.175 195.498 611.221 195.561 611.259C195.626 611.296 195.694 611.326 195.768 611.346C195.842 611.367 195.919 611.377 195.999 611.377C196.12 611.377 196.233 611.354 196.339 611.308C196.443 611.263 196.535 611.201 196.614 611.122C196.692 611.043 196.753 610.951 196.798 610.844C196.843 610.738 196.866 610.624 196.866 610.501C196.866 610.42 196.855 610.342 196.835 610.266C196.815 610.19 196.786 610.12 196.748 610.055C196.711 609.99 196.666 609.93 196.614 609.876C196.561 609.822 196.502 609.777 196.439 609.739C196.375 609.701 196.306 609.671 196.231 609.65C196.157 609.63 196.08 609.619 195.999 609.619C195.879 609.619 195.766 609.642 195.661 609.688C195.556 609.734 195.465 609.797 195.388 609.877C195.31 609.957 195.249 610.05 195.204 610.158C195.159 610.264 195.137 610.379 195.137 610.501ZM195 610.501C195 610.409 195.012 610.321 195.036 610.235C195.059 610.15 195.093 610.07 195.136 609.996C195.18 609.922 195.232 609.854 195.293 609.794C195.354 609.733 195.422 609.681 195.496 609.637C195.57 609.593 195.649 609.559 195.734 609.536C195.819 609.512 195.907 609.5 195.999 609.5C196.092 609.5 196.18 609.512 196.266 609.536C196.351 609.559 196.431 609.593 196.505 609.637C196.578 609.681 196.646 609.733 196.707 609.794C196.768 609.854 196.82 609.922 196.864 609.996C196.907 610.07 196.941 610.15 196.965 610.235C196.988 610.321 197 610.409 197 610.501C197 610.593 196.988 610.681 196.965 610.766C196.941 610.851 196.907 610.931 196.864 611.005C196.82 611.079 196.768 611.146 196.707 611.207C196.646 611.267 196.578 611.32 196.505 611.363C196.431 611.407 196.351 611.441 196.266 611.464C196.18 611.488 196.092 611.5 195.999 611.5C195.907 611.5 195.819 611.488 195.734 611.464C195.649 611.441 195.57 611.407 195.496 611.363C195.422 611.32 195.354 611.267 195.293 611.207C195.232 611.146 195.18 611.079 195.136 611.005C195.093 610.931 195.059 610.852 195.036 610.767C195.012 610.682 195 610.593 195 610.501Z" fill="#0CAA41"/>
<rect x="247" y="22" width="191" height="119" rx="8" fill="white"/>
<path fill-rule="evenodd" clip-rule="evenodd" d="M307.572 80.4716C306.532 79.3636 305.058 78 302.457 78C298.208 78 295 81.1534 295 85.5C295 90.1023 298.468 93 302.37 93C304.798 93 306.532 91.892 307.572 90.6136H307.659V92.4886H310V78.5114H307.659V80.4716H307.572ZM302.63 90.8693C299.075 90.8693 297.428 88.0568 297.428 85.4135C297.428 82.6875 299.162 79.9602 302.717 79.9602C305.491 79.9602 307.832 82.1761 307.832 85.5C307.746 88.6534 305.318 90.8693 302.63 90.8693Z" fill="#73C41D"/>
<path fill-rule="evenodd" clip-rule="evenodd" d="M328.478 78C325.936 78 324.183 79.5 323.482 81C322.869 79.3235 321.028 78 318.749 78C316.908 78 315.418 78.9706 314.454 80.2941H314.367V78.4412H312V92.9118H314.367V84.8824C314.367 81.8824 315.944 80.1176 318.311 80.1176C320.414 80.1176 321.729 81.9706 321.729 84.3529V93H324.183V84.8824C324.183 81.5294 326.112 80.1176 328.127 80.1176C330.582 80.1176 331.633 82.0588 331.633 84.3529V93H334V84.5294C334 80.2059 331.721 78 328.478 78Z" fill="#73C41D"/>
<path fill-rule="evenodd" clip-rule="evenodd" d="M360.5 78C356.239 78 353 81.1534 353 85.5C353 89.7614 356.239 93 360.5 93C364.847 93 368 89.5909 368 85.5C368 81.1534 364.847 78 360.5 78ZM360.5 90.8693C357.773 90.8693 355.386 88.6534 355.386 85.4148C355.386 82.3466 357.517 80.0455 360.5 80.0455C363.568 80.0455 365.614 82.4318 365.614 85.4148C365.614 88.483 363.483 90.8693 360.5 90.8693Z" fill="#73C41D"/>
<path fill-rule="evenodd" clip-rule="evenodd" d="M377.501 78C373.239 78 370 81.1534 370 85.5C370 89.7614 373.239 93 377.501 93C381.848 93 385 89.5909 385 85.5C385 81.1534 381.848 78 377.501 78ZM377.501 90.8693C374.772 90.8693 372.387 88.6534 372.387 85.4148C372.387 82.3466 374.516 80.0455 377.501 80.0455C380.568 80.0455 382.613 82.4318 382.613 85.4148C382.529 88.483 380.399 90.8693 377.501 90.8693Z" fill="#73C41D"/>
<path fill-rule="evenodd" clip-rule="evenodd" d="M395.283 84.9756H387.72V79H386V93H387.72V86.5122H395.283V93H397V79H395.283V84.9756Z" fill="#73C41D"/>
<path fill-rule="evenodd" clip-rule="evenodd" d="M405.556 86.939C407.352 86.5988 408.803 85.061 408.803 83.0976C408.803 81.1341 407.521 79 404.017 79H400V93H401.709V87.1951H403.591L407.863 93H410L405.556 86.939ZM401.709 85.5732V80.5366H404.274C406.068 80.5366 407.095 81.4756 407.095 83.0976C407.095 84.4634 406.155 85.5732 404.274 85.5732H401.709Z" fill="#73C41D"/>
<path fill-rule="evenodd" clip-rule="evenodd" d="M411 79H414V79.3333H412.732V82H412.154V79.3333H411V79Z" fill="#73C41D"/>
<path fill-rule="evenodd" clip-rule="evenodd" d="M415.5 81.0833L416.368 79H416.842L417 82H416.605L416.526 79.5833L415.658 81.5833H415.342L414.474 79.5833L414.395 82H414L414.158 79H414.632L415.5 81.0833Z" fill="#73C41D"/>
<mask id="mask4" mask-type="alpha" maskUnits="userSpaceOnUse" x="278" y="71" width="16" height="23">
<path fill-rule="evenodd" clip-rule="evenodd" d="M278.169 71.0607H293.803V93.6515H278.169V71.0607Z" fill="white"/>
</mask>
<g mask="url(#mask4)">
<path fill-rule="evenodd" clip-rule="evenodd" d="M286.116 78.0118C283.322 78.0118 281.837 78.9676 280.789 80.0102L280.527 80.2709V71.0607H278.169V86.0924C278.169 90.6963 281.75 93.6518 285.854 93.6518C290.396 93.6518 293.802 90.1762 293.802 85.7436C293.889 81.5742 290.221 78.0118 286.116 78.0118ZM285.854 91.4796C282.885 91.4796 280.353 89.1336 280.353 86.0043C280.353 82.8776 282.536 80.2709 285.942 80.2709C289.435 80.2709 291.444 83.0513 291.444 85.9187C291.444 89.0467 289.26 91.4796 285.854 91.4796Z" fill="#73C41D"/>
</g>
<mask id="mask5" mask-type="alpha" maskUnits="userSpaceOnUse" x="336" y="72" width="16" height="21">
<path fill-rule="evenodd" clip-rule="evenodd" d="M336.279 72.1736H351.911V93H336.279V72.1736Z" fill="white"/>
</mask>
<g mask="url(#mask5)">
<path fill-rule="evenodd" clip-rule="evenodd" d="M344.226 77.6364C341.431 77.6364 339.947 78.5753 338.899 79.5995L338.637 79.8556V72.1736H336.279V85.5744C336.279 90.0982 339.859 93.0002 343.964 93.0002C348.505 93.0002 351.911 89.586 351.911 85.2317C351.911 81.1359 348.33 77.6364 344.226 77.6364ZM343.964 90.8664C340.995 90.8664 338.462 88.5618 338.462 85.4877C338.462 82.4162 340.645 79.8556 344.051 79.8556C347.544 79.8556 349.553 82.5869 349.553 85.4036C349.466 88.4764 347.37 90.8664 343.964 90.8664Z" fill="#73C41D"/>
</g>
<path fill-rule="evenodd" clip-rule="evenodd" d="M277 80C277 80 275.941 79.8416 275.059 79.6831C274.088 79.5247 273.647 79.4454 272.324 78.9701C271.088 78.4947 269.853 77.3856 268.794 76.118C267.647 74.8504 265 72.8698 265 72.8698C265 72.8698 265.794 72.949 266.676 73.1075C267.382 73.2659 269.147 73.7413 270.912 74.6127C271.353 74.7712 271.529 74.9296 271.971 75.1673C272.588 75.4842 273.206 76.0388 273.824 76.5934C274.529 77.2271 275.147 77.7817 275.676 78.3363C275.059 77.3856 273.559 73.8997 270.647 71.0477C270.382 70.7308 272.676 72.0776 273.294 72.6321C275.059 74.3751 275.324 75.3258 275.941 76.9103L277 80Z" fill="#73C41D"/>
<rect x="247" y="156" width="191" height="119" rx="8" fill="white"/>
<path fill-rule="evenodd" clip-rule="evenodd" d="M305.367 208.926C304.505 208.029 303.568 207.341 302.575 206.864C301.582 206.386 300.327 206.157 298.884 206.157C297.722 206.157 296.617 206.367 295.586 206.787C294.556 207.208 293.657 207.8 292.888 208.563C292.101 209.328 291.483 210.263 291.033 211.352C290.584 212.441 290.359 213.644 290.359 214.981C290.359 216.318 290.584 217.521 291.033 218.61C291.483 219.699 292.101 220.615 292.888 221.379C293.675 222.143 294.593 222.754 295.624 223.175C296.654 223.595 297.779 223.805 298.959 223.805C300.214 223.805 301.32 223.633 302.257 223.27C303.193 222.907 303.999 222.411 304.674 221.8C305.124 221.379 305.536 220.864 305.892 220.252C306.248 219.622 306.529 218.934 306.735 218.171H298.809V213.587H311.738C311.812 213.892 311.869 214.255 311.925 214.714C311.981 215.172 312 215.592 312 216.031C312 217.846 311.738 219.489 311.213 220.997C310.688 222.506 309.883 223.824 308.833 224.989C307.653 226.269 306.248 227.243 304.599 227.95C302.95 228.656 301.057 229 298.94 229C297.029 229 295.23 228.656 293.544 227.95C291.858 227.243 290.378 226.269 289.103 225.027C287.848 223.786 286.855 222.315 286.105 220.615C285.356 218.915 285 217.025 285 215C285 212.975 285.375 211.104 286.105 209.385C286.836 207.666 287.829 206.195 289.103 204.954C290.359 203.712 291.839 202.757 293.544 202.05C295.249 201.344 297.048 201 298.94 201C301.114 201 303.044 201.382 304.711 202.146C306.379 202.91 307.822 203.96 309.04 205.297L305.367 208.926Z" fill="#737373"/>
<path fill-rule="evenodd" clip-rule="evenodd" d="M339 221.221C339 223.572 338.156 225.464 336.469 226.898C334.762 228.293 332.681 229 330.225 229C328.05 229 326.119 228.35 324.45 227.051C322.781 225.751 321.638 223.974 321 221.737L324.225 220.38C324.45 221.183 324.75 221.909 325.144 222.559C325.537 223.209 325.988 223.763 326.512 224.222C327.038 224.681 327.619 225.044 328.256 225.311C328.894 225.579 329.569 225.713 330.281 225.713C331.819 225.713 333.094 225.311 334.069 224.489C335.044 223.687 335.531 222.597 335.531 221.259C335.531 220.132 335.119 219.176 334.312 218.374C333.563 217.609 332.138 216.844 330.056 216.118C327.956 215.354 326.644 214.819 326.119 214.551C323.325 213.098 321.938 210.977 321.938 208.148C321.938 206.179 322.706 204.498 324.244 203.102C325.819 201.707 327.731 201 330.019 201C332.025 201 333.769 201.516 335.231 202.567C336.694 203.6 337.687 204.88 338.175 206.428L335.044 207.747C334.744 206.753 334.162 205.912 333.3 205.262C332.438 204.593 331.369 204.268 330.131 204.268C328.8 204.268 327.694 204.651 326.794 205.396C325.894 206.084 325.444 207.001 325.444 208.11C325.444 209.027 325.8 209.83 326.512 210.499C327.3 211.168 329.006 211.971 331.613 212.888C334.275 213.806 336.187 214.952 337.331 216.29C338.438 217.628 339 219.272 339 221.221Z" fill="#737373"/>
<path fill-rule="evenodd" clip-rule="evenodd" d="M360 228.387H356.556V225.84H356.396C355.855 226.74 354.994 227.487 353.873 228.1C352.732 228.694 351.55 229 350.329 229C347.966 229 346.164 228.349 344.902 227.066C343.641 225.782 343 223.944 343 221.569V210H346.604V221.339C346.684 224.346 348.266 225.84 351.35 225.84C352.792 225.84 353.993 225.285 354.954 224.174C355.915 223.063 356.396 221.722 356.396 220.17V210H360V228.387Z" fill="#737373"/>
<mask id="mask6" mask-type="alpha" maskUnits="userSpaceOnUse" x="285" y="201" width="113" height="28">
<path fill-rule="evenodd" clip-rule="evenodd" d="M285 229H398V201H285V229Z" fill="white"/>
</mask>
<g mask="url(#mask6)">
<path fill-rule="evenodd" clip-rule="evenodd" d="M360.728 228H364.272V209.721H360.728V228ZM365 203.418C365 204.085 364.764 204.656 364.272 205.132C363.78 205.608 363.189 205.836 362.5 205.836C361.811 205.836 361.22 205.608 360.728 205.132C360.236 204.656 360 204.085 360 203.418C360 202.752 360.236 202.18 360.728 201.705C361.22 201.229 361.811 201 362.5 201C363.189 201 363.78 201.229 364.272 201.705C364.764 202.18 365 202.752 365 203.418Z" fill="#737373"/>
<path fill-rule="evenodd" clip-rule="evenodd" d="M376.041 228C374.625 228 373.445 227.546 372.502 226.64C371.558 225.732 371.086 224.447 371.068 222.822V212.674H368V209.556H371.05V204H374.317V209.556H378.583V212.674H374.317V221.707C374.317 222.917 374.535 223.729 374.989 224.164C375.442 224.599 375.951 224.806 376.513 224.806C376.767 224.806 377.021 224.769 377.276 224.712C377.53 224.655 377.747 224.561 377.965 224.466L379 227.509C378.183 227.83 377.185 228 376.041 228Z" fill="#737373"/>
<path fill-rule="evenodd" clip-rule="evenodd" d="M383.792 216.73H394.343C394.247 215.419 393.73 214.342 392.792 213.482C391.853 212.62 390.59 212.19 389.019 212.19C387.717 212.19 386.607 212.601 385.668 213.423C384.711 214.264 384.098 215.36 383.792 216.73ZM389.306 229C386.607 229 384.385 228.061 382.624 226.163C380.881 224.264 380 221.877 380 219C380 216.143 380.843 213.756 382.547 211.857C384.251 209.959 386.415 209 389.077 209C391.796 209 393.979 209.9 395.587 211.701C397.196 213.501 398 216.026 398 219.274L397.962 219.665H383.523C383.581 221.505 384.175 222.992 385.324 224.108C386.473 225.223 387.851 225.791 389.46 225.791C391.662 225.791 393.385 224.675 394.63 222.425L397.713 223.951C396.889 225.536 395.74 226.769 394.285 227.67C392.811 228.55 391.145 229 389.306 229Z" fill="#737373"/>
</g>
<rect x="247" y="290" width="191" height="119" rx="8" fill="white"/>
<mask id="mask7" mask-type="alpha" maskUnits="userSpaceOnUse" x="290" y="336" width="101" height="28">
<path fill-rule="evenodd" clip-rule="evenodd" d="M290 336.5H391V363.5H290V336.5Z" fill="white"/>
</mask>
<g mask="url(#mask7)">
<path fill-rule="evenodd" clip-rule="evenodd" d="M309.841 348.962V349.475C310.481 348.613 311.306 347.897 312.258 347.377C313.199 346.923 314.238 346.695 315.288 346.713C316.319 346.699 317.338 346.941 318.247 347.418C319.095 347.865 319.775 348.562 320.192 349.41C320.475 349.918 320.659 350.473 320.734 351.046C320.826 351.782 320.867 352.523 320.857 353.264V360.877C320.902 361.541 320.695 362.197 320.276 362.722C319.901 363.144 319.351 363.377 318.78 363.359C318.201 363.381 317.642 363.147 317.26 362.722C316.842 362.196 316.639 361.537 316.692 360.873V354.062C316.692 352.693 316.486 351.666 316.104 350.951C315.722 350.235 314.948 349.876 313.809 349.876C313.076 349.875 312.362 350.103 311.771 350.526C311.144 350.981 310.674 351.612 310.422 352.334C310.219 352.946 310.103 354.076 310.103 355.757V360.877C310.103 361.715 309.921 362.325 309.525 362.749C309.135 363.161 308.58 363.389 308.005 363.372C307.429 363.391 306.875 363.152 306.502 362.722C306.079 362.198 305.87 361.539 305.917 360.873V349.03C305.917 348.247 306.093 347.661 306.446 347.288C306.806 346.892 307.33 346.677 307.872 346.703C308.22 346.697 308.563 346.784 308.863 346.956C309.176 347.138 309.427 347.406 309.585 347.726C309.77 348.116 309.859 348.543 309.844 348.972L309.841 348.962ZM302.53 348.096C300.823 348.952 298.729 348.293 297.852 346.625C296.976 344.957 297.65 342.91 299.357 342.054C301.065 341.198 303.159 341.857 304.035 343.525C304.041 343.535 304.046 343.544 304.05 343.554C304.917 345.219 304.237 347.255 302.534 348.101C302.533 348.102 302.532 348.102 302.53 348.103V348.096ZM298.821 337.143C301.665 336.13 304.916 336.185 307.35 338.249C307.864 338.662 308.267 339.19 308.527 339.789C308.772 340.566 307.665 339.71 307.515 339.601C306.747 339.087 305.915 338.673 305.038 338.368C300.246 336.934 295.71 339.546 292.908 343.605C291.766 345.396 290.894 347.338 290.319 349.373C290.267 349.622 290.184 349.864 290.074 350.095C289.951 350.324 290.018 349.479 290.018 349.451C290.121 348.601 290.286 347.759 290.512 346.932C291.811 342.507 294.687 338.824 298.821 337.136V337.143ZM298.863 360.76V350.903C299.15 350.93 299.423 350.944 299.71 350.944C301.017 350.948 302.299 350.6 303.416 349.937V360.76C303.416 361.685 303.245 362.369 302.817 362.814C302.39 363.271 301.78 363.521 301.147 363.499C300.522 363.52 299.92 363.27 299.504 362.814C299.08 362.359 298.859 361.675 298.859 360.76H298.863ZM334.35 357.854C334.04 358.554 333.525 359.149 332.872 359.566C332.271 359.938 331.573 360.133 330.861 360.127C330.142 360.13 329.438 359.925 328.837 359.538C328.183 359.102 327.674 358.488 327.372 357.772C326.994 356.864 326.812 355.888 326.84 354.907C326.82 353.956 326.988 353.01 327.334 352.121C327.618 351.386 328.112 350.744 328.756 350.273C329.353 349.841 330.08 349.614 330.823 349.629H330.879C331.585 349.64 332.271 349.865 332.84 350.273C333.501 350.727 334.018 351.353 334.332 352.08C334.714 352.979 334.9 353.945 334.879 354.918C334.915 355.922 334.735 356.922 334.35 357.854ZM338.518 341.007C338.146 340.598 337.603 340.376 337.044 340.405C336.471 340.374 335.918 340.62 335.565 341.062C335.107 341.582 334.988 342.171 334.988 343.013V349.099C334.342 348.329 333.556 347.683 332.669 347.192C332.094 346.922 331.479 346.741 330.847 346.658C330.429 346.602 330.008 346.575 329.586 346.576C327.64 346.51 325.768 347.308 324.493 348.746C323.221 350.194 322.577 352.203 322.577 354.788C322.569 355.938 322.731 357.084 323.057 358.19C323.356 359.182 323.843 360.111 324.493 360.928C325.099 361.679 325.865 362.291 326.738 362.722C327.61 363.141 328.569 363.357 329.541 363.351C329.982 363.352 330.421 363.312 330.854 363.232C331.124 363.19 331.39 363.127 331.649 363.044C332.29 362.829 332.895 362.522 333.443 362.133C334.058 361.674 334.623 361.153 335.128 360.579V360.979C335.087 361.612 335.286 362.237 335.688 362.735C336.427 363.515 337.672 363.561 338.47 362.839C338.498 362.815 338.524 362.789 338.55 362.763C338.952 362.256 339.147 361.622 339.096 360.983V342.76C339.12 342.128 338.916 341.507 338.518 341.007ZM346.102 350.307C346.765 349.602 347.711 349.216 348.691 349.249C349.688 349.21 350.655 349.59 351.346 350.293C352.015 350.978 352.397 352.091 352.509 353.511H344.873C345.009 352.111 345.419 351.016 346.106 350.307H346.102ZM355.959 357.974C355.664 357.736 355.29 357.614 354.908 357.632C354.58 357.613 354.255 357.708 353.99 357.899C353.458 358.382 353.031 358.768 352.705 359.049C352.355 359.333 351.989 359.597 351.608 359.84C351.238 360.079 350.831 360.26 350.404 360.377C349.953 360.5 349.488 360.558 349.02 360.552C348.915 360.559 348.81 360.559 348.705 360.552C348.085 360.517 347.482 360.332 346.953 360.014C346.309 359.63 345.787 359.078 345.447 358.419C345.064 357.624 344.868 356.755 344.873 355.876H353.118C354.229 355.876 355.097 355.76 355.7 355.465C356.303 355.171 356.618 354.473 356.618 353.442C356.606 352.285 356.3 351.149 355.728 350.136C355.113 349.031 354.193 348.116 353.073 347.497C351.78 346.783 350.312 346.428 348.827 346.47H348.705C347.564 346.471 346.432 346.67 345.363 347.059C344.366 347.436 343.465 348.02 342.722 348.77C342.001 349.55 341.452 350.466 341.107 351.461C340.727 352.556 340.538 353.706 340.547 354.863C340.547 357.461 341.3 359.497 342.806 361.024C344.228 362.458 346.2 363.208 348.705 363.287H349.142C350.212 363.306 351.277 363.152 352.295 362.831C353.108 362.575 353.872 362.191 354.558 361.695C355.095 361.296 355.554 360.806 355.913 360.247C356.178 359.859 356.333 359.411 356.365 358.946C356.386 358.579 356.237 358.222 355.959 357.974ZM363.007 350.307C363.67 349.602 364.616 349.216 365.595 349.249C366.593 349.21 367.559 349.59 368.25 350.293C368.92 350.978 369.301 352.091 369.413 353.511H361.774C361.914 352.111 362.324 351.016 363.007 350.307ZM372.864 357.974C372.569 357.736 372.195 357.614 371.813 357.632C371.484 357.613 371.16 357.708 370.895 357.899C370.363 358.382 369.936 358.768 369.61 359.049C369.26 359.333 368.894 359.597 368.513 359.84C368.142 360.079 367.736 360.26 367.309 360.377C366.858 360.5 366.392 360.558 365.925 360.552C365.82 360.559 365.714 360.559 365.609 360.552C364.989 360.517 364.388 360.332 363.858 360.014C363.213 359.63 362.692 359.078 362.352 358.419C361.967 357.624 361.77 356.755 361.774 355.876H370.019C371.13 355.876 371.999 355.76 372.601 355.465C373.204 355.171 373.519 354.473 373.519 353.442C373.507 352.285 373.201 351.149 372.629 350.136C372.015 349.027 371.093 348.109 369.97 347.487C368.677 346.773 367.209 346.418 365.725 346.46H365.602C364.462 346.464 363.332 346.667 362.264 347.059C361.267 347.436 360.366 348.02 359.623 348.77C358.902 349.55 358.353 350.466 358.008 351.461C357.628 352.556 357.439 353.706 357.448 354.863C357.448 357.461 358.201 359.497 359.707 361.024C361.129 362.458 363.101 363.208 365.606 363.287H366.044C367.113 363.306 368.178 363.152 369.196 362.831C370.011 362.576 370.778 362.192 371.466 361.695C372.003 361.296 372.463 360.806 372.822 360.247C373.086 359.859 373.242 359.411 373.274 358.946C373.293 358.579 373.143 358.222 372.864 357.974ZM386.139 357.8C385.83 358.496 385.321 359.09 384.676 359.511C384.069 359.883 383.367 360.078 382.651 360.072C381.932 360.075 381.227 359.87 380.626 359.484C379.976 359.043 379.467 358.431 379.162 357.717C378.783 356.809 378.602 355.833 378.629 354.853C378.607 353.9 378.78 352.953 379.137 352.066C379.415 351.333 379.901 350.691 380.538 350.218C381.141 349.785 381.872 349.559 382.619 349.575H382.662C383.382 349.576 384.085 349.796 384.672 350.204C385.324 350.664 385.835 351.289 386.15 352.012C386.538 352.908 386.724 353.876 386.696 354.849C386.733 355.861 386.542 356.868 386.139 357.8ZM390.395 340.953C390.023 340.541 389.479 340.319 388.917 340.35C388.344 340.319 387.792 340.565 387.439 341.007C387.054 341.572 386.871 342.244 386.917 342.921V349.03C386.225 348.259 385.394 347.619 384.465 347.141C383.891 346.868 383.276 346.688 382.644 346.607C382.226 346.551 381.804 346.524 381.383 346.525C379.44 346.461 377.572 347.256 376.297 348.688C375.011 350.136 374.366 352.142 374.366 354.73C374.36 355.883 374.532 357.031 374.874 358.135C375.168 359.127 375.651 360.056 376.297 360.873C376.902 361.624 377.669 362.236 378.542 362.667C379.413 363.086 380.372 363.302 381.344 363.297C381.785 363.299 382.225 363.259 382.658 363.177C382.927 363.135 383.193 363.072 383.453 362.989C384.094 362.775 384.698 362.468 385.247 362.078C385.865 361.622 386.43 361.101 386.931 360.524V360.925C386.891 361.558 387.09 362.183 387.492 362.681C388.238 363.464 389.492 363.508 390.294 362.779C390.319 362.756 390.343 362.732 390.368 362.708C390.799 362.217 391.024 361.585 390.998 360.938V342.691C391.015 342.06 390.801 341.444 390.395 340.953Z" fill="#2164F3"/>
</g>
<rect x="247" y="424" width="191" height="119" rx="8" fill="white"/>
<path fill-rule="evenodd" clip-rule="evenodd" d="M345.001 501C338.384 501 333 495.617 333 488.999C333 482.383 338.384 477 345.001 477C351.616 477 357 482.383 357 488.999C357 495.617 351.616 501 345.001 501ZM345.001 480.766C340.46 480.766 336.766 484.459 336.766 488.999C336.766 493.539 340.46 497.234 345.001 497.234C349.541 497.234 353.234 493.539 353.234 488.999C353.234 484.459 349.541 480.766 345.001 480.766Z" fill="#535353"/>
<path fill-rule="evenodd" clip-rule="evenodd" d="M310.507 479.014V468.682C310.507 467.201 309.275 466 307.754 466C306.233 466 305 467.201 305 468.682V489.341C305.007 496.327 310.836 502 318 502C325.168 502 331 496.321 331 489.341C331 482.361 325.168 476.683 318 476.683C315.209 476.683 312.627 477.551 310.507 479.014ZM318 496.637C313.869 496.637 310.507 493.365 310.507 489.341C310.507 485.318 313.869 482.046 318 482.046C322.131 482.046 325.493 485.318 325.493 489.341C325.493 493.365 322.131 496.637 318 496.637Z" fill="#535353"/>
<path fill-rule="evenodd" clip-rule="evenodd" d="M370 478.301C366.317 478.301 363.059 480.186 361.061 483.063V467.064C361.061 466.477 360.6 466 360.031 466C359.463 466 359 466.477 359 467.064V489.65C359 489.652 359.001 489.655 359.001 489.658C359.006 495.912 363.939 501 370 501C376.065 501 381 495.908 381 489.65C381 483.393 376.065 478.301 370 478.301ZM370 498.874C365.072 498.874 361.061 494.736 361.061 489.65C361.061 484.565 365.072 480.427 370 480.427C374.93 480.427 378.939 484.565 378.939 489.65C378.939 494.736 374.93 498.874 370 498.874Z" fill="#535353"/>
<rect x="247" y="558" width="191" height="119" rx="8" fill="white"/>
<path fill-rule="evenodd" clip-rule="evenodd" d="M292 617.246H287.822V613H286.18V617.246H282V618.755H286.18V623H287.822V618.755H292" fill="#E9762D"/>
<path fill-rule="evenodd" clip-rule="evenodd" d="M284 624.906H280.217V621H278.785V624.906H275V626.095H278.785V630H280.217V626.095H284" fill="#C92035"/>
<path fill-rule="evenodd" clip-rule="evenodd" d="M299 610.923H295.216V607H293.784V610.923H290V612.113H293.784V616H295.216V612.113H299" fill="#59879B"/>
<path fill-rule="evenodd" clip-rule="evenodd" d="M286.423 626V628.933H284V630.067H286.423V633H287.577V630.067H290V628.933H287.577V626H286.423Z" fill="#5A6591"/>
<path fill-rule="evenodd" clip-rule="evenodd" d="M284 610.923H280.172V607H278.829V610.923H275V612.078H278.829V616H280.172V612.078H284" fill="#EC912D"/>
<path fill-rule="evenodd" clip-rule="evenodd" d="M302 617.933H299.577V615H298.423V617.933H296V619.067H298.423V622H299.577V619.067H302" fill="#5A6591"/>
<path fill-rule="evenodd" clip-rule="evenodd" d="M299 624.906H295.216V621H293.784V624.906H290V626.095H293.784V630H295.216V626.095H299" fill="#1C447E"/>
<path fill-rule="evenodd" clip-rule="evenodd" d="M286.542 604V606.606H284V607.395H286.542V610H287.458V607.395H290V606.606H287.458V604H286.542Z" fill="#7099A6"/>
<path fill-rule="evenodd" clip-rule="evenodd" d="M274.551 615V617.584H272V618.415L274.551 618.401V621H275.449V618.396L278 618.381V617.584H275.449V615H274.551Z" fill="#7099A6"/>
<path fill-rule="evenodd" clip-rule="evenodd" d="M348.511 623.085C350.28 623.085 351.294 622.076 351.294 620.277C351.294 618.508 350.275 617.446 348.683 617.446C347.991 617.446 347.335 617.685 346.854 617.904V622.767C347.438 622.979 347.985 623.085 348.511 623.085ZM346.854 616.162C347.745 615.814 348.538 615.711 349.046 615.711C351.575 615.711 353.284 617.481 353.284 620.258C353.284 623.137 351.488 624.819 348.32 624.819C347.222 624.819 346.146 624.609 345.014 624.227L344.96 611.492H346.854" fill="#1C447E"/>
<mask id="mask8" mask-type="alpha" maskUnits="userSpaceOnUse" x="272" y="603" width="142" height="30">
<path fill-rule="evenodd" clip-rule="evenodd" d="M272 633H413.486V603.845H272V633Z" fill="white"/>
</mask>
<g mask="url(#mask8)">
<path fill-rule="evenodd" clip-rule="evenodd" d="M360.541 626.418H362.416V609.703H360.541V626.418Z" fill="#1C447E"/>
<path fill-rule="evenodd" clip-rule="evenodd" d="M374.275 624.854C371.388 624.575 369.981 622.554 370.061 620.157C370.149 617.569 371.83 615.733 374.395 615.733C377.086 615.733 378.644 617.715 378.51 620.64H372.034C372.188 622.259 373.165 623.027 374.501 623.129C375.612 623.214 377.181 622.964 378.03 622.432V624.214C376.911 624.756 375.745 624.997 374.275 624.854ZM372.151 619.266H376.455C376.406 618.125 375.791 617.534 374.695 617.462C373.591 617.392 372.522 618.099 372.151 619.266Z" fill="#1C447E"/>
<path fill-rule="evenodd" clip-rule="evenodd" d="M405.38 623.384C406.569 623.384 407.371 622.781 407.371 621.429V615.9H409.265V621.663C409.265 623.588 407.764 624.762 405.379 624.762C402.996 624.762 401.494 623.588 401.494 621.663V615.9H403.389V621.429C403.389 622.781 404.193 623.384 405.38 623.384Z" fill="#1C447E"/>
<path fill-rule="evenodd" clip-rule="evenodd" d="M332.296 623.085C332.728 623.079 333.251 623.048 333.919 622.88L333.954 618.056C333.347 617.642 332.762 617.446 332.124 617.446C330.533 617.446 329.514 618.508 329.514 620.277C329.514 622.076 330.528 623.11 332.296 623.085ZM332.488 624.819C329.32 624.83 327.524 623.137 327.524 620.258C327.524 617.481 329.234 615.711 331.763 615.711C332.616 615.711 333.321 615.898 333.954 616.306V615.67H335.847L335.794 624.227C334.997 624.572 333.688 624.816 332.488 624.819Z" fill="#1C447E"/>
<path fill-rule="evenodd" clip-rule="evenodd" d="M390.598 623.085C390.972 623.085 391.551 623.048 392.219 622.88L392.255 618.056C391.647 617.642 391.062 617.446 390.425 617.446C388.833 617.446 387.813 618.508 387.813 620.277C387.813 622.076 388.828 623.089 390.598 623.085ZM390.788 624.819C387.621 624.83 385.825 623.137 385.825 620.258C385.825 617.481 387.534 615.711 390.062 615.711C390.916 615.711 391.622 615.898 392.255 616.306V615.67H394.148L394.093 624.227C393.298 624.572 391.988 624.816 390.788 624.819Z" fill="#1C447E"/>
<path fill-rule="evenodd" clip-rule="evenodd" d="M313.739 612.094H315.615V617.396H320.68V619.137H315.615V624.885H313.739V619.137H308.674V617.396H313.739" fill="#1C447E"/>
<path fill-rule="evenodd" clip-rule="evenodd" d="M412.168 616.905H412.313C412.477 616.905 412.617 616.845 412.617 616.69C412.617 616.581 412.538 616.473 412.313 616.473C412.249 616.473 412.203 616.476 412.168 616.482V616.905ZM412.168 617.596H411.969V616.348C412.074 616.333 412.174 616.317 412.323 616.317C412.513 616.317 412.638 616.357 412.713 616.412C412.788 616.467 412.828 616.551 412.828 616.671C412.828 616.834 412.718 616.934 412.582 616.974V616.983C412.692 617.004 412.768 617.103 412.792 617.288C412.823 617.481 412.852 617.556 412.871 617.596H412.663C412.632 617.556 412.603 617.441 412.578 617.278C412.547 617.118 412.468 617.059 412.308 617.059H412.168V617.596ZM412.378 615.999C411.884 615.999 411.478 616.423 411.478 616.944C411.478 617.476 411.884 617.894 412.383 617.894C412.882 617.9 413.281 617.476 413.281 616.949C413.281 616.423 412.882 615.999 412.383 615.999H412.378ZM412.383 615.825C412.997 615.825 413.486 616.322 413.486 616.944C413.486 617.576 412.997 618.068 412.378 618.068C411.763 618.068 411.263 617.576 411.263 616.944C411.263 616.322 411.763 615.825 412.378 615.825H412.383Z" fill="#1C447E"/>
</g>
</g>
<defs>
<filter id="filter0_d" x="0" y="0" width="478" height="735" filterUnits="userSpaceOnUse" color-interpolation-filters="sRGB">
<feFlood flood-opacity="0" result="BackgroundImageFix"/>
<feColorMatrix in="SourceAlpha" type="matrix" values="0 0 0 0 0 0 0 0 0 0 0 0 0 0 0 0 0 0 127 0"/>
<feOffset dy="18"/>
<feGaussianBlur stdDeviation="20"/>
<feColorMatrix type="matrix" values="0 0 0 0 0 0 0 0 0 0 0 0 0 0 0 0 0 0 0.1 0"/>
<feBlend mode="normal" in2="BackgroundImageFix" result="effect1_dropShadow"/>
<feBlend mode="normal" in="SourceGraphic" in2="effect1_dropShadow" result="shape"/>
</filter>
</defs>
</svg>
