<svg width="344" height="430" viewBox="0 0 344 430" fill="none" xmlns="http://www.w3.org/2000/svg">
<rect x="153" y="218" width="129" height="129" rx="12" fill="#FFDCBF"/>
<rect x="54" y="119" width="129" height="129" rx="12" fill="#4D52B1"/>
<path fill-rule="evenodd" clip-rule="evenodd" d="M183 218V236C183 242.627 177.627 248 171 248H153V230C153 223.373 158.373 218 165 218H183Z" fill="#979AD3"/>
<path d="M54 184C63.3888 184 71 176.613 71 167.5C71 158.387 63.3888 151 54 151V184Z" fill="#FFDCBF"/>
<path d="M54 151C44.6112 151 37 158.387 37 167.5C37 176.613 44.6112 184 54 184L54 151Z" fill="#FF9561"/>
<path d="M265 314C265 304.059 272.611 296 282 296C291.389 296 299 304.059 299 314" stroke="#18A369" stroke-width="12"/>
<path d="M312 62C329.673 62 344 48.1208 344 31C344 13.8792 329.673 0 312 0V62Z" fill="#FF9561"/>
<circle cx="5" cy="361" r="5" fill="#99D6D8"/>
<circle cx="5" cy="393" r="5" fill="#99D6D8"/>
<circle cx="5" cy="425" r="5" fill="#99D6D8"/>
<circle cx="38" cy="361" r="5" fill="#99D6D8"/>
<circle cx="38" cy="393" r="5" fill="#99D6D8"/>
<circle cx="38" cy="425" r="5" fill="#99D6D8"/>
<circle cx="71" cy="361" r="5" fill="#99D6D8"/>
<circle cx="71" cy="393" r="5" fill="#99D6D8"/>
<circle cx="71" cy="425" r="5" fill="#99D6D8"/>
<circle cx="104" cy="361" r="5" fill="#99D6D8"/>
<circle cx="104" cy="393" r="5" fill="#99D6D8"/>
<circle cx="104" cy="425" r="5" fill="#99D6D8"/>
<path d="M193.673 27.5081C193.642 25.1989 196.123 23.7222 198.138 24.8501L207.721 30.2137C209.737 31.3416 209.775 34.2281 207.791 35.4094L198.354 41.0269C196.37 42.2082 193.851 40.7983 193.82 38.4891L193.673 27.5081Z" fill="#99D6D8"/>
<path d="M220.673 27.5081C220.642 25.1989 223.123 23.7222 225.138 24.8501L234.721 30.2137C236.737 31.3416 236.775 34.2281 234.791 35.4094L225.354 41.0269C223.37 42.2082 220.851 40.7983 220.82 38.4891L220.673 27.5081Z" fill="#979AD3"/>
<path d="M247.673 27.5081C247.642 25.1989 250.123 23.7222 252.138 24.8501L261.721 30.2137C263.737 31.3416 263.775 34.2281 261.791 35.4094L252.354 41.0269C250.37 42.2082 247.851 40.7983 247.82 38.4891L247.673 27.5081Z" fill="#4D52B1"/>
</svg>
