<svg xmlns="http://www.w3.org/2000/svg" viewBox="0 0 64 64" width="64" height="64"><ellipse id="pine-circle" rx="9" ry="9" stroke="#008075" fill="none" opacity="0" class="mobile_animate1__rJZ0W"></ellipse><ellipse id="teal-circle" rx="9" ry="9" stroke="#00b7cd" fill="none" stroke-width="1.5" opacity="0" class="mobile_animate2__TNV5V"></ellipse><path class="st2" d="M37.8,45L37.8,40.2C37.8,38.8,36.7,37.7,35.3,37.7C33.9,37.7,32.8,38.8,32.8,40.2L32.8,45M47.8,57L47.8,43.9C47.8,42.5,46.7,41.4,45.3,41.4C43.9,41.4,42.8,42.5,42.8,43.9L42.8,51M42.8,48L42.8,41.7C42.8,40.3,41.7,39.2,40.3,39.2C38.9,39.2,37.8,40.3,37.8,41.7L37.8,47M22.8,60.5L22.8,49.2C22.8,47.8,23.9,46.7,25.3,46.7C26.7,46.7,27.8,47.8,27.8,49.2L27.8,52M27.8,52L27.8,43.1L27.8,44.1L27.8,28.9C27.8,27.5,28.9,26.4,30.3,26.4C31.7,26.4,32.8,27.5,32.8,28.9L32.8,45" stroke="#008075" fill="#fff"></path><path class="st2" d="M44.5,42L44.5,2.5L15.5,2.5L15.5,50.5L22.3,50.5M16,41.5L28.2,41.5M16,8.5L44.2,8.5M33.6,5.5L29.6,5.5M27.6,5.5L26.6,5.5M47.8,60.5L47.8,59.5L47.8,60.5Z" stroke="#008075" fill="none"></path><defs><filter id="Adobe_OpacityMaskFilter" filterUnits="userSpaceOnUse" x="47.2" y="60" width="1" height="0.5"><feColorMatrix values="1 0 0 0 0 0 1 0 0 0 0 0 1 0 0 0 0 0 1 0"></feColorMatrix></filter><mask id="b_1_"><g class="st3" filter="url(#Adobe_OpacityMaskFilter)"><path id="a_1_" class="st4" d="M47.2,59.8L48.2,59.8L48.2,60.6L47.2,60.6L47.2,59.8Z" fill="#FFF" clip-rule="evenodd" fill-rule="evenodd"></path></g></mask></defs><path class="st5" d="M47.8,60L47.8,60.5" stroke="#008075" fill="none" mask="url(#b_1_)"></path></svg>