<svg xmlns="http://www.w3.org/2000/svg" viewBox="0 0 64 64" width="64" height="64"><path class="st0" d="M37.4,53.6L37.4,40.9L37.4,38.9L37.4,30.2C37.4,29,37,27.9,36.4,27" stroke="#008075" fill="none"></path><path class="st0" d="M37.4,56.4L37.4,55.4" stroke="#008075" fill="none"></path><path id="blue01" class="st1 fingerprint_animate1__bbM_z" d="M10.5,59.9L10.5,58.9" stroke="#02BFD3" fill="none" stroke-dashoffset="1" stroke-dasharray="1 1"></path><path class="st0" d="M35.3,25.7C34.2,24.8,32.7,24.4,31.2,24.6C28.5,24.9,26.5,27.4,26.5,30.2L26.5,38.9L26.5,40.9L26.5,51.9" stroke="#008075" fill="none"></path><path class="st0" d="M22.7,28C23.7,23.1,28.4,19.9,33.3,20.6C38,21.2,41.5,25.5,41.5,30.3L41.5,59.9" stroke="#008075" fill="none"></path><path class="st0" d="M22.5,46.8L22.5,29.9" stroke="#008075" fill="none"></path><path class="st0" d="M22.5,48.9L22.5,49.9" stroke="#008075" fill="none"></path><path id="blue04" class="st1 fingerprint_animate2__1YBmn" d="M53.6,50.1L53.6,51.1" stroke="#02BFD3" fill="none" stroke-dashoffset="1" stroke-dasharray="1 1"></path><path id="green01" class="st0 fingerprint_animate3__SwB9z" d="M45.5,51.1L45.5,30.4C45.5,23.5,40.4,17.4,33.6,16.6C30.3,16.2,27.2,17,24.7,18.6" stroke="#008075" fill="none" stroke-dashoffset="49.76" stroke-dasharray="49.759999999999998 49.759999999999998"></path><path id="green02" class="st0 fingerprint_animate4__1Co5P" d="M23,19.9C20.3,22.4,18.5,26,18.5,30L18.5,38.9L18.5,40.9L18.5,57.9" stroke="#008075" fill="none" stroke-dashoffset="39.2" stroke-dasharray="39.200000000000003 39.200000000000003"></path><path class="st0" d="M14.5,49.9L14.5,30.4C14.5,21.3,21.3,13.3,30.4,12.5C40,11.6,48.2,18.6,49.4,27.7" stroke="#008075" fill="none"></path><path class="st0" d="M49.5,29.9L49.5,38.9L49.5,40.9L49.5,57.9" stroke="#008075" fill="none"></path><path id="green01-ex" class="st0 fingerprint_animate5__UMGN2" d="M57.5,55L57.5,30C57.5,21.8,53.7,14.6,47.7,9.9" stroke="#008075" fill="none" stroke-dashoffset="48.11" stroke-dasharray="48.109999999999999 48.109999999999999"></path><path id="green02-ex" class="st0 fingerprint_animate6__ZfINB" d="M45.8,8.6C41.7,5.9,36.9,4.5,32,4.5C21.9,4.5,13.2,10.3,9.1,18.8" stroke="#008075" fill="none" stroke-dashoffset="42.93" stroke-dasharray="42.93 42.93"></path><path id="green03-ex" class="st0 fingerprint_animate7__D8ipd" d="M8.1,21C7.1,23.8,6.5,26.8,6.5,30L6.5,38.9L6.5,40.9L6.5,55" stroke="#008075" fill="none" stroke-dashoffset="34.18" stroke-dasharray="34.18 34.18"></path><path id="blue03" class="st1 fingerprint_animate8__Zxu96" d="M27.7,9C28.6,8.8,29.5,8.7,30.5,8.6C33.1,8.4,35.7,8.7,38.1,9.4L38.1,9.4C47.2,12,53.6,20.7,53.6,30.5L53.6,44.8L53.6,48.3" stroke="#02BFD3" fill="none" stroke-dashoffset="56.23" stroke-dasharray="56.229999999999997 56.229999999999997"></path><path id="blue02" class="st1 fingerprint_animate9__513Dm" d="M10.5,56.8L10.5,30.5C10.5,21,16.6,12.6,25.3,9.7" stroke="#02BFD3" fill="none" stroke-dashoffset="53.44" stroke-dasharray="53.439999999999998 53.439999999999998"></path><g id="horizontal-line" transform="translate(4 38)"><rect width="54" height="3" fill="#fff" transform="translate(1)"></rect><path class="st0" d="M4,38.4L60,38.4M4,41.4L60,41.4" stroke="#008075" fill="none" transform="translate(-4 -38)"></path></g></svg>